SplineFontDB: 3.2
FontName: AtkinsonHyperPro-Regular
FullName: Atkinson Hyperlegible Pro Regular
FamilyName: Atkinson Hyperlegible Pro
Weight: Regular
Copyright: Copyright 2020 Braille Institute of America, Inc.
UComments: "Update by Jacob Perez+AAoA-https://jacobxperez.github.io/atkinson-hyperlegible-pro/"
Version: 1.5.1
ItalicAngle: 0
UnderlinePosition: -106
UnderlineWidth: 57
Ascent: 800
Descent: 200
InvalidEm: 0
sfntRevision: 0x00010000
LayerCount: 2
Layer: 0 0 "Back" 1
Layer: 1 0 "Fore" 0
XUID: [1021 466 782043844 18134]
StyleMap: 0x0040
FSType: 0
OS2Version: 4
OS2_WeightWidthSlopeOnly: 0
OS2_UseTypoMetrics: 1
CreationTime: 1615339189
ModificationTime: 1701929776
PfmFamily: 33
TTFWeight: 400
TTFWidth: 5
LineGap: 0
VLineGap: 0
Panose: 0 0 0 0 0 0 0 0 0 0
OS2TypoAscent: 950
OS2TypoAOffset: 0
OS2TypoDescent: -290
OS2TypoDOffset: 0
OS2TypoLinegap: 0
OS2WinAscent: 950
OS2WinAOffset: 0
OS2WinDescent: 290
OS2WinDOffset: 0
HheadAscent: 950
HheadAOffset: 0
HheadDescent: -290
HheadDOffset: 0
OS2SubXSize: 650
OS2SubYSize: 699
OS2SubXOff: 0
OS2SubYOff: 140
OS2SupXSize: 650
OS2SupYSize: 699
OS2SupXOff: 0
OS2SupYOff: 479
OS2StrikeYSize: 49
OS2StrikeYPos: 258
OS2CapHeight: 668
OS2XHeight: 496
OS2FamilyClass: 2048
OS2Vendor: 'NONE'
OS2CodePages: 20000003.00000000
OS2UnicodeRanges: 800000ef.0000204b.00000000.00000000
Lookup: 4 0 1 "'liga' Standard Ligatures lookup 0" { "'liga' Standard Ligatures lookup 0-1"  } ['liga' ('DFLT' <'dflt' > 'grek' <'dflt' > 'latn' <'MOL ' 'dflt' > ) ]
Lookup: 1 0 0 "'zero' Slashed Zero lookup 0" { "'zero' Slashed Zero lookup 0-1"  } ['zero' ('DFLT' <'dflt' > 'grek' <'dflt' > 'latn' <'MOL ' 'dflt' > ) ]
Lookup: 1 0 0 "'aalt' Access All Alternates lookup 0" { "'aalt' Access All Alternates lookup 0 subtable"  } ['aalt' ('DFLT' <'dflt' > 'grek' <'dflt' > 'latn' <'dflt' > ) ]
Lookup: 3 0 0 "'aalt' Access All Alternates lookup 1" { "'aalt' Access All Alternates lookup 1 subtable"  } ['aalt' ('DFLT' <'dflt' > 'grek' <'dflt' > 'latn' <'dflt' > ) ]

StartChar: zero
Encoding: 48 48 5
Width: 648
GlyphClass: 1
Flags: W
HStem: -12 74<241.885 405.648> 606 74<241.824 406.115>
VStem: 60 91<179.16 483.715> 497 91<192.972 489.955>
LayerCount: 2
Fore
SplineSet
151 335 m 0
 151 155 210 62 324 62 c 0
 370 62 407 77 435 107 c 1
 171 486 l 1
 158 444 151 393 151 335 c 0
497 335 m 0
 497 514 438 606 324 606 c 0
 280 606 245 593 217 566 c 1
 480 190 l 1
 491 231 497 280 497 335 c 0
588 335 m 0
 588 110 495 -12 324 -12 c 0
 153 -12 60 110 60 335 c 0
 60 559 153 680 324 680 c 0
 495 680 588 559 588 335 c 0
EndSplineSet
Substitution2: "'zero' Slashed Zero lookup 0-1" zero.alt1
Substitution2: "'tnum' Tabular Numbers lookup 14 subtable" zero.tf
Substitution2: "'aalt' Access All Alternates lookup 0 subtable" zero.alt1
EndChar

StartChar: one
Encoding: 49 49 6
Width: 402
GlyphClass: 1
Flags: W
HStem: 0 21G<220 304> 504 67<42 178.983> 648 20G<236 304>
VStem: 220 84<0 504> 248 56<628.468 668>
LayerCount: 2
Fore
SplineSet
42 571 m 1xf0
 165 571 224 599 248 668 c 1
 304 668 l 1xe8
 304 0 l 1
 220 0 l 1
 220 504 l 1
 42 504 l 1
 42 571 l 1xf0
EndSplineSet
Substitution2: "'tnum' Tabular Numbers lookup 14 subtable" one.tf
Substitution2: "'sups' Superscript lookup 9 subtable" uni00B9
AlternateSubs2: "'aalt' Access All Alternates lookup 1 subtable" uni00B9 one.tf
EndChar

StartChar: two
Encoding: 50 50 7
Width: 549
GlyphClass: 1
Flags: W
HStem: 0 77<147 515> 498 21G<73 150> 610 70<202.786 361.938>
VStem: 59 84<520 553.014> 408 89<411.883 564.868>
LayerCount: 2
Fore
SplineSet
497 505 m 0
 497 379 402 263 147 77 c 1
 515 77 l 1
 515 0 l 1
 34 0 l 1
 34 75 l 1
 305 274 408 390 408 494 c 0
 408 566 360 610 283 610 c 0
 208 610 157 569 143 498 c 1
 59 522 l 1
 83 621 168 680 285 680 c 0
 414 680 497 612 497 505 c 0
EndSplineSet
Substitution2: "'tnum' Tabular Numbers lookup 14 subtable" two.tf
Substitution2: "'sups' Superscript lookup 9 subtable" uni00B2
AlternateSubs2: "'aalt' Access All Alternates lookup 1 subtable" uni00B2 two.tf
EndChar

StartChar: three
Encoding: 51 51 8
Width: 574
GlyphClass: 1
Flags: W
HStem: -12 70<188.549 362.372> 314 76<218 349.535> 498 21G<65.6667 141> 610 70<193.253 360.534>
VStem: 42 83<122.717 153.024> 52 82<519.951 549.004> 407 88<437.157 566.394> 424 90<114.525 257.078>
LayerCount: 2
Fore
SplineSet
514 188 m 0xf1
 514 67 418 -12 272 -12 c 0
 152 -12 70 46 42 151 c 1
 125 175 l 1
 141 99 194 58 273 58 c 0
 366 58 424 108 424 187 c 0xf9
 424 274 360 314 218 314 c 1
 218 390 l 1
 350 390 407 424 407 501 c 0
 407 567 356 610 277 610 c 0
 200 610 148 569 134 498 c 1
 52 522 l 1
 77 622 161 680 279 680 c 0
 417 680 495 619 495 510 c 0xf6
 495 440 455 384 386 355 c 1
 472 329 514 274 514 188 c 0xf1
EndSplineSet
Substitution2: "'tnum' Tabular Numbers lookup 14 subtable" three.tf
Substitution2: "'sups' Superscript lookup 9 subtable" uni00B3
AlternateSubs2: "'aalt' Access All Alternates lookup 1 subtable" uni00B3 three.tf
EndChar

StartChar: four
Encoding: 52 52 9
Width: 614
GlyphClass: 1
Flags: W
HStem: 0 21G<370 454> 165 79<129 370 454 576> 648 20G<353.387 454>
VStem: 370 84<0 165 244 553>
LayerCount: 2
Fore
SplineSet
129 244 m 1
 370 244 l 1
 370 553 l 1
 129 244 l 1
370 0 m 1
 370 165 l 1
 38 165 l 1
 38 244 l 1
 369 668 l 1
 454 668 l 1
 454 244 l 1
 576 244 l 1
 576 165 l 1
 454 165 l 1
 454 0 l 1
 370 0 l 1
EndSplineSet
Substitution2: "'tnum' Tabular Numbers lookup 14 subtable" four.tf
Substitution2: "'sups' Superscript lookup 9 subtable" uni2074
AlternateSubs2: "'aalt' Access All Alternates lookup 1 subtable" four.tf uni2074
EndChar

StartChar: five
Encoding: 53 53 10
Width: 583
GlyphClass: 1
Flags: W
HStem: -12 70<197.689 363.861> 378 72<201.786 364.38> 587 81<181 496>
VStem: 54 82<122.486 153.049> 433 88<131.839 307.751>
LayerCount: 2
Fore
SplineSet
521 220 m 0
 521 82 425 -12 284 -12 c 0
 165 -12 85 45 54 151 c 1
 136 175 l 1
 153 97 202 58 284 58 c 0
 372 58 433 124 433 219 c 0
 433 314 373 378 283 378 c 0
 225 378 173 348 154 304 c 1
 72 328 l 1
 113 668 l 1
 496 668 l 1
 496 587 l 1
 181 587 l 1
 158 400 l 1
 190 432 242 450 302 450 c 0
 431 450 521 355 521 220 c 0
EndSplineSet
Substitution2: "'tnum' Tabular Numbers lookup 14 subtable" five.tf
Substitution2: "'aalt' Access All Alternates lookup 0 subtable" five.tf
EndChar

StartChar: six
Encoding: 54 54 11
Width: 598
GlyphClass: 1
Flags: W
HStem: -12 71<225.511 381.018> 371 74<224.257 380.04> 610 70<239.324 387.042>
VStem: 60 87<352 475.013> 448 90<126.7 303.261>
LayerCount: 2
Fore
SplineSet
157 215 m 0
 157 121 215 59 303 59 c 0
 390 59 448 121 448 215 c 0
 448 309 390 371 303 371 c 0
 215 371 157 309 157 215 c 0
538 218 m 0
 538 85 439 -12 303 -12 c 0
 142 -12 60 97 60 310 c 0
 60 544 156 680 321 680 c 0
 409 680 475 642 509 573 c 1
 424 548 l 1
 403 588 363 610 311 610 c 0
 211 610 151 515 147 352 c 1
 183 413 244 445 323 445 c 0
 448 445 538 350 538 218 c 0
EndSplineSet
Substitution2: "'tnum' Tabular Numbers lookup 14 subtable" six.tf
Substitution2: "'aalt' Access All Alternates lookup 0 subtable" six.tf
EndChar

StartChar: seven
Encoding: 55 55 12
Width: 510
GlyphClass: 1
Flags: W
HStem: 0 21G<93 207.472> 587 81<15 383>
LayerCount: 2
Fore
SplineSet
93 0 m 1
 383 587 l 1
 15 587 l 1
 15 668 l 1
 476 668 l 1
 476 587 l 1
 198 0 l 1
 93 0 l 1
EndSplineSet
Substitution2: "'tnum' Tabular Numbers lookup 14 subtable" seven.tf
Substitution2: "'aalt' Access All Alternates lookup 0 subtable" seven.tf
EndChar

StartChar: eight
Encoding: 56 56 13
Width: 615
GlyphClass: 1
Flags: W
HStem: -12 74<212.033 402.629> 317 74<242.591 371.409> 606 74<243.671 370.59>
VStem: 60 91<119.767 258.856> 126 74<434.734 562.433> 414 75<434.734 562.634> 464 91<119.545 259.077>
LayerCount: 2
Fore
SplineSet
151 188 m 0xf2
 151 111 211 62 307 62 c 0
 404 62 464 110 464 188 c 0
 464 267 403 317 307 317 c 0
 212 317 151 267 151 188 c 0xf2
200 500 m 0xec
 200 439 247 391 307 391 c 0
 367 391 414 439 414 500 c 0
 414 559 367 606 307 606 c 0
 247 606 200 559 200 500 c 0xec
555 188 m 0xe2
 555 68 456 -12 307 -12 c 0
 159 -12 60 68 60 188 c 0xf2
 60 270 105 335 183 366 c 1
 146 401 126 448 126 499 c 0
 126 599 207 680 307 680 c 0
 408 680 489 600 489 499 c 0xec
 489 448 469 401 432 366 c 1
 511 335 555 271 555 188 c 0xe2
EndSplineSet
Substitution2: "'tnum' Tabular Numbers lookup 14 subtable" eight.tf
Substitution2: "'aalt' Access All Alternates lookup 0 subtable" eight.tf
EndChar

StartChar: nine
Encoding: 57 57 14
Width: 598
GlyphClass: 1
Flags: W
HStem: 0 21G<213 336.5> 201 86<222.483 349.841> 594 85<222.289 376.572>
VStem: 60 86<364.303 517.657> 454 84<364.113 517.345>
LayerCount: 2
Fore
SplineSet
146 441 m 0
 146 356 214 287 299 287 c 0
 384 287 454 356 454 441 c 0
 454 526 385 594 299 594 c 0
 214 594 146 526 146 441 c 0
299 679 m 0
 434 679 538 575 538 439 c 0
 538 372 506 301 390 112 c 0
 372 83 356 57 317 0 c 1
 213 0 l 1
 226 19 l 1
 272 84 315 147 352 207 c 1
 335 203 318 201 299 201 c 0
 167 201 60 309 60 441 c 0
 60 574 166 679 299 679 c 0
EndSplineSet
Substitution2: "'tnum' Tabular Numbers lookup 14 subtable" nine.tf
Substitution2: "'aalt' Access All Alternates lookup 0 subtable" nine.tf
EndChar

StartChar: A
Encoding: 65 65 15
AltUni2: 000391.ffffffff.0
Width: 626
GlyphClass: 2
Flags: W
HStem: 0 21G<10 116.986 509.014 616> 146 81<190 436> 574 95<261 366>
AnchorPoint: "Anchor-2" 615 0 basechar 0
AnchorPoint: "Anchor-1" 313 0 basechar 0
AnchorPoint: "Anchor-0" 313 668 basechar 0
LayerCount: 2
Fore
SplineSet
190 227 m 1
 436 227 l 1
 313 574 l 1
 190 227 l 1
10 0 m 1
 261 669 l 1
 366 669 l 1
 616 0 l 1
 516 0 l 1
 465 146 l 1
 161 146 l 1
 110 0 l 1
 10 0 l 1
EndSplineSet
Substitution2: "Single Substitution lookup 12 subtable" ordfeminine
Substitution2: "'aalt' Access All Alternates lookup 0 subtable" ordfeminine
EndChar

StartChar: B
Encoding: 66 66 16
AltUni2: 000392.ffffffff.0
Width: 619
GlyphClass: 1
Flags: W
HStem: 0 79<170 434.462> 308 74<170 419.525> 589 79<170 415.909>
VStem: 76 94<79 308 382 589> 457 95<419.626 550.42> 484 97<126.03 263.818>
AnchorPoint: "Anchor-1" 288 0 basechar 0
AnchorPoint: "Anchor-0" 290 668 basechar 0
LayerCount: 2
Fore
SplineSet
484 195 m 0xf4
 484 262 437 308 370 308 c 2
 170 308 l 1
 170 79 l 1
 371 79 l 2
 436 79 484 128 484 195 c 0xf4
457 484 m 0xf8
 457 545 414 589 355 589 c 2
 170 589 l 1
 170 382 l 1
 355 382 l 2
 415 382 457 424 457 484 c 0xf8
581 192 m 0xf4
 581 79 490 0 361 0 c 2
 76 0 l 1
 76 668 l 1
 345 668 l 2
 471 668 552 603 552 502 c 0xf8
 552 447 526 393 482 355 c 1
 544 323 581 262 581 192 c 0xf4
EndSplineSet
EndChar

StartChar: C
Encoding: 67 67 17
Width: 656
GlyphClass: 2
Flags: W
HStem: -12 79<268.873 455.543> 499 21G<516 586.667> 601 79<263.45 453.108>
VStem: 50 96<207.165 462.1>
AnchorPoint: "Anchor-1" 348 0 basechar 0
AnchorPoint: "Anchor-0" 353 668 basechar 0
LayerCount: 2
Fore
SplineSet
618 139 m 1
 571 43 475 -12 353 -12 c 0
 169 -12 50 124 50 335 c 0
 50 544 173 680 361 680 c 0
 476 680 570 624 614 529 c 1
 532 499 l 1
 500 564 437 601 356 601 c 0
 228 601 146 498 146 335 c 0
 146 172 229 67 359 67 c 0
 440 67 503 103 536 169 c 1
 618 139 l 1
EndSplineSet
EndChar

StartChar: D
Encoding: 68 68 18
Width: 673
GlyphClass: 2
Flags: W
HStem: 0 79<170 398.893> 589 79<170 398.452>
VStem: 76 94<79 589> 527 96<201.766 467.259>
AnchorPoint: "Anchor-1" 337 0 basechar 0
AnchorPoint: "Anchor-0" 327 668 basechar 0
LayerCount: 2
Fore
SplineSet
527 335 m 0
 527 516 449 589 256 589 c 2
 170 589 l 1
 170 79 l 1
 256 79 l 2
 450 79 527 152 527 335 c 0
623 335 m 0
 623 109 505 0 258 0 c 2
 76 0 l 1
 76 668 l 1
 258 668 l 2
 505 668 623 560 623 335 c 0
EndSplineSet
EndChar

StartChar: E
Encoding: 69 69 19
AltUni2: 000395.ffffffff.0
Width: 567
GlyphClass: 2
Flags: W
HStem: 0 81<170 529> 303 81<170 435> 587 81<170 529>
VStem: 76 94<81 303 384 587>
AnchorPoint: "Anchor-2" 506 0 basechar 0
AnchorPoint: "Anchor-1" 284 0 basechar 0
AnchorPoint: "Anchor-0" 304 668 basechar 0
LayerCount: 2
Fore
SplineSet
76 0 m 1
 76 668 l 1
 529 668 l 1
 529 587 l 1
 170 587 l 1
 170 384 l 1
 435 384 l 1
 435 303 l 5
 170 303 l 1
 170 81 l 1
 529 81 l 1
 529 0 l 1
 76 0 l 1
EndSplineSet
EndChar

StartChar: F
Encoding: 70 70 20
Width: 548
GlyphClass: 1
Flags: W
HStem: 0 21G<76 170> 303 81<170 510> 587 81<170 510>
VStem: 76 94<0 303 384 587>
AnchorPoint: "Anchor-0" 305 668 basechar 0
LayerCount: 2
Fore
SplineSet
76 0 m 1
 76 668 l 1
 510 668 l 1
 510 587 l 1
 170 587 l 1
 170 384 l 1
 510 384 l 1
 510 303 l 1
 170 303 l 1
 170 0 l 1
 76 0 l 1
EndSplineSet
EndChar

StartChar: G
Encoding: 71 71 21
Width: 710
GlyphClass: 2
Flags: W
HStem: -12 79<263.648 463.926> 0 21G<582.048 642> 264 81<358 553> 499 21G<516 587.333> 601 79<263.45 453.033>
VStem: 50 96<206.744 462.1> 553 89<152.226 264> 588 54<0 23.52>
AnchorPoint: "Anchor-1" 355 0 basechar 0
AnchorPoint: "Anchor-0" 359 668 basechar 0
LayerCount: 2
Fore
SplineSet
563 84 m 1x7d
 523 21 451 -12 352 -12 c 0
 167 -12 50 123 50 335 c 0
 50 544 173 680 361 680 c 0
 476 680 569 625 615 529 c 1
 532 499 l 1
 500 564 437 601 356 601 c 0
 228 601 146 498 146 335 c 0
 146 171 228 67 356 67 c 0
 481 67 553 131 553 242 c 2
 553 264 l 1xbe
 358 264 l 1
 358 345 l 1
 642 345 l 1
 642 0 l 1
 588 0 l 1
 563 84 l 1x7d
EndSplineSet
EndChar

StartChar: H
Encoding: 72 72 22
AltUni2: 000397.ffffffff.0
Width: 690
GlyphClass: 2
Flags: W
HStem: 0 21G<76 170 520 614> 303 81<170 520> 648 20G<76 170 520 614>
VStem: 76 94<0 303 384 668> 520 94<0 303 384 668>
AnchorPoint: "Anchor-1" 345 0 basechar 0
AnchorPoint: "Anchor-0" 345 668 basechar 0
LayerCount: 2
Fore
SplineSet
76 0 m 1
 76 668 l 1
 170 668 l 1
 170 384 l 1
 520 384 l 1
 520 668 l 1
 614 668 l 1
 614 0 l 1
 520 0 l 1
 520 303 l 1
 170 303 l 1
 170 0 l 1
 76 0 l 1
EndSplineSet
EndChar

StartChar: I
Encoding: 73 73 23
AltUni2: 000399.ffffffff.0
Width: 414
GlyphClass: 2
Flags: W
HStem: 0 74<66 160 254 348> 594 74<66 160 254 348>
VStem: 160 94<74 594>
AnchorPoint: "Anchor-2" 273 0 basechar 0
AnchorPoint: "Anchor-1" 207 0 basechar 0
AnchorPoint: "Anchor-0" 207 668 basechar 0
LayerCount: 2
Fore
SplineSet
66 0 m 1
 66 74 l 1
 160 74 l 1
 160 594 l 1
 66 594 l 1
 66 668 l 1
 348 668 l 1
 348 594 l 1
 254 594 l 1
 254 74 l 1
 348 74 l 1
 348 0 l 1
 66 0 l 1
EndSplineSet
EndChar

StartChar: J
Encoding: 74 74 24
Width: 510
GlyphClass: 1
Flags: W
HStem: -12 77<154.925 293.62> 648 20G<340 434>
VStem: 340 94<116.672 668>
AnchorPoint: "Anchor-0" 388 668 basechar 0
LayerCount: 2
Fore
SplineSet
434 212 m 2
 434 69 358 -12 224 -12 c 0
 95 -12 22 59 15 189 c 1
 102 214 l 1
 102 207 l 2
 102 120 149 65 224 65 c 0
 300 65 340 116 340 213 c 2
 340 668 l 1
 434 668 l 1
 434 212 l 2
EndSplineSet
EndChar

StartChar: K
Encoding: 75 75 25
AltUni2: 00039a.ffffffff.0
Width: 627
GlyphClass: 2
Flags: W
HStem: 0 21G<76 170 487.5 617> 648 20G<76 170 453.083 588>
VStem: 76 94<0 210 332 668>
AnchorPoint: "Anchor-1" 314 0 basechar 0
AnchorPoint: "Anchor-0" 314 668 basechar 0
LayerCount: 2
Fore
SplineSet
76 0 m 1
 76 668 l 1
 170 668 l 1
 170 332 l 1
 471 668 l 1
 588 668 l 1
 333 389 l 1
 617 0 l 1
 502 0 l 1
 270 320 l 1
 170 210 l 1
 170 0 l 1
 76 0 l 1
EndSplineSet
EndChar

StartChar: L
Encoding: 76 76 26
Width: 539
GlyphClass: 2
Flags: W
HStem: 0 81<170 529> 648 20G<76 170>
VStem: 76 94<81 668>
AnchorPoint: "Anchor-1" 305 0 basechar 0
AnchorPoint: "Anchor-0" 135 668 basechar 0
LayerCount: 2
Fore
SplineSet
76 0 m 1
 76 668 l 1
 170 668 l 1
 170 81 l 1
 529 81 l 1
 529 0 l 1
 76 0 l 1
EndSplineSet
EndChar

StartChar: M
Encoding: 77 77 27
AltUni2: 00039c.ffffffff.0
Width: 820
GlyphClass: 1
Flags: W
HStem: 0 122<303 518> 648 20G<76 238.52 581.48 744>
VStem: 76 94<0 570> 650 94<0 570>
AnchorPoint: "Anchor-1" 411 0 basechar 0
AnchorPoint: "Anchor-0" 410 668 basechar 0
LayerCount: 2
Fore
SplineSet
76 0 m 1
 76 668 l 1
 232 668 l 1
 410 122 l 1
 588 668 l 1
 744 668 l 1
 744 0 l 1
 650 0 l 1
 650 570 l 1
 457 0 l 1
 364 0 l 1
 170 570 l 1
 170 0 l 1
 76 0 l 1
EndSplineSet
EndChar

StartChar: N
Encoding: 78 78 28
AltUni2: 00039d.ffffffff.0
Width: 689
GlyphClass: 2
Flags: W
HStem: 0 21G<76 170 464.317 613> 648 20G<76 225.704 519 613>
VStem: 76 94<0 571> 519 94<100 668>
AnchorPoint: "Anchor-1" 311 0 basechar 0
AnchorPoint: "Anchor-0" 362 668 basechar 0
LayerCount: 2
Fore
SplineSet
76 0 m 1
 76 668 l 1
 215 668 l 1
 519 100 l 1
 519 668 l 1
 613 668 l 1
 613 0 l 1
 475 0 l 1
 170 571 l 1
 170 0 l 1
 76 0 l 1
EndSplineSet
EndChar

StartChar: O
Encoding: 79 79 29
AltUni2: 00039f.ffffffff.0
Width: 727
GlyphClass: 2
Flags: W
HStem: -12 79<270.609 455.909> 601 79<270.609 455.909>
VStem: 50 96<207.986 461.059> 581 96<207.986 461.259>
AnchorPoint: "Anchor-2" 454 0 basechar 0
AnchorPoint: "Anchor-1" 364 0 basechar 0
AnchorPoint: "Anchor-0" 364 668 basechar 0
LayerCount: 2
Fore
SplineSet
146 335 m 0
 146 173 232 67 363 67 c 0
 495 67 581 173 581 335 c 0
 581 496 495 601 363 601 c 0
 232 601 146 496 146 335 c 0
677 335 m 0
 677 127 551 -12 363 -12 c 0
 176 -12 50 127 50 335 c 0
 50 541 176 680 363 680 c 0
 551 680 677 542 677 335 c 0
EndSplineSet
Substitution2: "Single Substitution lookup 12 subtable" ordmasculine
Substitution2: "'aalt' Access All Alternates lookup 0 subtable" ordmasculine
EndChar

StartChar: P
Encoding: 80 80 30
AltUni2: 0003a1.ffffffff.0
Width: 601
GlyphClass: 1
Flags: W
HStem: 1 21G<76 170> 266 81<170 418.516> 589 79<170 416.513>
VStem: 76 94<1 266 347 589> 467 96<389.442 543.711>
AnchorPoint: "Anchor-0" 294 668 basechar 0
LayerCount: 2
Fore
SplineSet
467 466 m 0
 467 556 420 589 293 589 c 2
 170 589 l 1
 170 347 l 1
 293 347 l 2
 423 347 467 377 467 466 c 0
563 466 m 0
 563 324 483 266 285 266 c 2
 170 266 l 1
 170 1 l 1
 76 1 l 1
 76 668 l 1
 285 668 l 2
 482 668 563 609 563 466 c 0
EndSplineSet
EndChar

StartChar: Q
Encoding: 81 81 31
Width: 753
GlyphClass: 1
Flags: W
HStem: -12 79<270.609 455.734> 601 79<270.609 455.909>
VStem: 50 96<207.986 461.059> 581 96<208.147 461.259>
LayerCount: 2
Fore
SplineSet
146 335 m 0
 146 173 232 67 363 67 c 0
 421 67 470 87 508 126 c 1
 329 294 l 1
 393 362 l 1
 559 206 l 1
 574 241 581 284 581 335 c 0
 581 496 495 601 363 601 c 0
 232 601 146 496 146 335 c 0
677 335 m 0
 677 261 661 194 630 139 c 1
 753 24 l 1
 689 -44 l 1
 572 65 l 1
 519 15 446 -12 363 -12 c 0
 176 -12 50 127 50 335 c 0
 50 541 176 680 363 680 c 0
 551 680 677 542 677 335 c 0
EndSplineSet
EndChar

StartChar: R
Encoding: 82 82 32
Width: 618
GlyphClass: 2
Flags: W
HStem: 0 21G<76 170 458.552 588> 281 79<170 270> 589 79<170 421.946>
VStem: 76 94<0 281 360 589> 470 96<400.828 546.352>
AnchorPoint: "Anchor-1" 309 0 basechar 0
AnchorPoint: "Anchor-0" 303 668 basechar 0
LayerCount: 2
Fore
SplineSet
470 474 m 0
 470 559 424 589 295 589 c 2
 170 589 l 1
 170 360 l 1
 295 360 l 2
 424 360 470 390 470 474 c 0
566 476 m 0
 566 361 512 306 381 288 c 1
 588 0 l 1
 473 0 l 1
 270 281 l 1
 170 281 l 1
 170 0 l 1
 76 0 l 1
 76 668 l 1
 288 668 l 2
 487 668 566 614 566 476 c 0
EndSplineSet
EndChar

StartChar: S
Encoding: 83 83 33
Width: 596
GlyphClass: 2
Flags: W
HStem: -12 79<202.052 393.811> 601 79<197.301 383.916>
VStem: 46 97<442.155 553.049> 457 99<122.414 242.958>
AnchorPoint: "Anchor-1" 298 0 basechar 0
AnchorPoint: "Anchor-0" 298 668 basechar 0
LayerCount: 2
Fore
SplineSet
556 182 m 0
 556 71 445 -12 296 -12 c 0
 171 -12 72 49 40 146 c 1
 127 172 l 1
 149 107 215 67 300 67 c 0
 394 67 457 115 457 186 c 0
 457 240 421 269 323 294 c 1
 238 313 l 1
 101 349 46 403 46 501 c 0
 46 604 150 680 291 680 c 0
 397 680 485 633 523 555 c 1
 437 530 l 1
 414 573 355 601 287 601 c 0
 202 601 143 558 143 497 c 0
 143 443 179 417 286 392 c 1
 359 376 l 1
 498 343 556 285 556 182 c 0
EndSplineSet
EndChar

StartChar: T
Encoding: 84 84 34
AltUni2: 0003a4.ffffffff.0
Width: 558
GlyphClass: 2
Flags: W
HStem: 0 21G<232 326> 587 81<10 232 326 548>
VStem: 232 94<0 587>
AnchorPoint: "Anchor-1" 279 0 basechar 0
AnchorPoint: "Anchor-0" 279 668 basechar 0
LayerCount: 2
Fore
SplineSet
232 0 m 1
 232 587 l 1
 10 587 l 1
 10 668 l 5
 548 668 l 1
 548 587 l 1
 326 587 l 1
 326 0 l 1
 232 0 l 1
EndSplineSet
EndChar

StartChar: U
Encoding: 85 85 35
Width: 690
GlyphClass: 2
Flags: W
HStem: -12 81<249.089 441.096> 648 20G<76 170 520 614>
VStem: 76 94<155.694 668> 520 94<155.282 668>
AnchorPoint: "Anchor-2" 427 0 basechar 0
AnchorPoint: "Anchor-1" 345 0 basechar 0
AnchorPoint: "Anchor-0" 345 668 basechar 0
LayerCount: 2
Fore
SplineSet
614 279 m 2
 614 77 532 -12 345 -12 c 0
 159 -12 76 78 76 279 c 2
 76 668 l 1
 170 668 l 1
 170 272 l 2
 170 132 224 69 345 69 c 0
 466 69 520 132 520 272 c 2
 520 668 l 1
 614 668 l 1
 614 279 l 2
EndSplineSet
EndChar

StartChar: V
Encoding: 86 86 36
Width: 589
GlyphClass: 1
Flags: W
HStem: 0 21G<232.144 355.886> 648 20G<10 119.487 469.477 579>
VStem: 10 103<565 668> 476 103<565 668>
LayerCount: 2
Fore
SplineSet
239 0 m 1
 10 668 l 1
 113 668 l 1
 294 110 l 1
 476 668 l 1
 579 668 l 1
 349 0 l 1
 239 0 l 1
EndSplineSet
EndChar

StartChar: W
Encoding: 87 87 37
Width: 840
GlyphClass: 1
Flags: W
HStem: 0 21G<172.97 295.674 544.326 668> 552 116<307 533>
VStem: 10 103<565 668> 727 103<565 668>
AnchorPoint: "Anchor-1" 420 0 basechar 0
AnchorPoint: "Anchor-0" 420 668 basechar 0
LayerCount: 2
Fore
SplineSet
178 0 m 1
 10 668 l 1
 113 668 l 1
 243 116 l 1
 365 668 l 1
 475 668 l 1
 597 116 l 1
 727 668 l 1
 830 668 l 1
 663 0 l 1
 549 0 l 1
 420 552 l 1
 291 0 l 1
 178 0 l 1
EndSplineSet
EndChar

StartChar: X
Encoding: 88 88 38
AltUni2: 0003a7.ffffffff.0
Width: 623
GlyphClass: 1
Flags: W
HStem: 0 21G<10 137.189 485.736 613> 648 20G<24 150.286 471.714 599>
AnchorPoint: "Anchor-1" 311 0 basechar 0
AnchorPoint: "Anchor-0" 311 668 basechar 0
LayerCount: 2
Fore
SplineSet
10 0 m 1
 255 344 l 1
 24 668 l 1
 136 668 l 1
 311 423 l 1
 486 668 l 1
 599 668 l 1
 368 344 l 1
 613 0 l 1
 500 0 l 1
 311 265 l 1
 123 0 l 1
 10 0 l 1
EndSplineSet
EndChar

StartChar: Y
Encoding: 89 89 39
AltUni2: 0003a5.ffffffff.0
Width: 595
GlyphClass: 2
Flags: W
HStem: 0 21G<251 345> 648 20G<10 124.455 470.607 585>
VStem: 251 94<0 259>
AnchorPoint: "Anchor-1" 298 0 basechar 0
AnchorPoint: "Anchor-0" 298 668 basechar 0
LayerCount: 2
Fore
SplineSet
251 0 m 1
 251 259 l 1
 10 668 l 1
 113 668 l 1
 298 345 l 1
 482 668 l 1
 585 668 l 1
 345 259 l 1
 345 0 l 1
 251 0 l 1
EndSplineSet
EndChar

StartChar: Z
Encoding: 90 90 40
AltUni2: 000396.ffffffff.0
Width: 607
GlyphClass: 2
Flags: W
HStem: 0 81<156 563> 587 81<59 438>
AnchorPoint: "Anchor-1" 304 0 basechar 0
AnchorPoint: "Anchor-0" 304 668 basechar 0
LayerCount: 2
Fore
SplineSet
44 0 m 1
 44 81 l 1
 438 587 l 1
 59 587 l 1
 59 668 l 1
 548 668 l 1
 548 587 l 1
 156 81 l 1
 563 81 l 1
 563 0 l 1
 44 0 l 1
EndSplineSet
EndChar

StartChar: a
Encoding: 97 97 41
Width: 526
GlyphClass: 2
Flags: W
HStem: -12 67<156.295 313.231> 0 21G<392.118 475> 239 67<242.344 373> 437 67<186.98 334.955>
VStem: 38 93<79.6865 179.183> 373 85<304.72 397.748> 380 78<119.971 239>
AnchorPoint: "Anchor-2" 475 0 basechar 0
AnchorPoint: "Anchor-1" 263 0 basechar 0
AnchorPoint: "Anchor-0" 263 496 basechar 0
LayerCount: 2
Fore
SplineSet
131 133 m 0xba
 131 85 168 55 227 55 c 0
 325 55 380 110 380 208 c 2
 380 239 l 1
 197 220 131 192 131 133 c 0xba
378 68 m 1
 346 15 289 -12 209 -12 c 0
 108 -12 38 46 38 131 c 0
 38 232 128 279 373 306 c 1
 373 315 l 2xbc
 373 396 336 437 261 437 c 0
 202 437 162 409 151 360 c 1
 70 384 l 1
 96 459 168 504 260 504 c 0
 397 504 458 442 458 303 c 2
 458 187 l 2
 458 115 463 56 475 0 c 1
 398 0 l 1x7a
 378 68 l 1
EndSplineSet
Substitution2: "Single Substitution lookup 12 subtable" ordfeminine
Substitution2: "'aalt' Access All Alternates lookup 0 subtable" ordfeminine
EndChar

StartChar: b
Encoding: 98 98 42
Width: 566
GlyphClass: 1
Flags: W
HStem: -12 72<221.675 366.541> 0 21G<70 137.867> 432 72<221.868 366.541> 648 20G<70 154>
VStem: 70 84<132.55 359.45 418 668> 70 62<0 23.8636> 434 94<136.169 355.831>
AnchorPoint: "Anchor-1" 315 0 basechar 0
AnchorPoint: "Anchor-0" 315 496 basechar 0
LayerCount: 2
Fore
SplineSet
293 432 m 0xb2
 205 432 152 362 152 246 c 0
 152 130 205 60 293 60 c 0
 381 60 434 130 434 246 c 0
 434 362 381 432 293 432 c 0xb2
528 246 m 0
 528 95 440 -12 315 -12 c 0
 242 -12 187 18 154 75 c 1xba
 132 0 l 1
 70 0 l 1x76
 70 668 l 1
 154 668 l 1
 154 418 l 1x7a
 187 474 243 504 315 504 c 0
 440 504 528 397 528 246 c 0
EndSplineSet
EndChar

StartChar: c
Encoding: 99 99 43
Width: 500
GlyphClass: 2
Flags: W
HStem: -12 74<201.401 348.046> 430 74<200.003 346.018>
VStem: 38 91<144.811 350.666>
AnchorPoint: "Anchor-1" 270 0 basechar 0
AnchorPoint: "Anchor-0" 275 496 basechar 0
LayerCount: 2
Fore
SplineSet
467 99 m 1
 427 30 352 -12 269 -12 c 0
 131 -12 38 91 38 246 c 0
 38 399 135 504 278 504 c 0
 358 504 428 462 465 392 c 1
 388 364 l 1
 366 405 322 430 272 430 c 0
 185 430 129 359 129 247 c 0
 129 136 186 62 272 62 c 0
 323 62 367 86 390 127 c 1
 467 99 l 1
EndSplineSet
EndChar

StartChar: d
Encoding: 100 100 44
Width: 564
GlyphClass: 2
Flags: W
HStem: -12 72<199.459 344.882> 0 21G<428.133 513> 432 72<199.459 344.507> 648 20G<412 496>
VStem: 38 94<136.169 355.831> 412 84<133.003 359.45 418 668>
AnchorPoint: "Anchor-1" 282 0 basechar 0
AnchorPoint: "Anchor-0" 251 496 basechar 0
LayerCount: 2
Fore
SplineSet
273 432 m 0xbc
 185 432 132 362 132 246 c 0
 132 130 185 60 273 60 c 0
 361 60 414 130 414 246 c 0
 414 362 361 432 273 432 c 0xbc
412 75 m 1
 381 18 325 -12 251 -12 c 0xbc
 126 -12 38 95 38 246 c 0
 38 397 126 504 251 504 c 0
 324 504 380 474 412 418 c 1
 412 668 l 1
 496 668 l 1
 496 187 l 2
 496 114 501 64 513 0 c 1
 434 0 l 1x7c
 412 75 l 1
EndSplineSet
EndChar

StartChar: e
Encoding: 101 101 45
Width: 539
GlyphClass: 2
Flags: W
HStem: -12 74<202.361 364.892> 225 67<129 421> 432 72<196.487 355.736>
VStem: 38 90<140.719 225 292 357.09> 421 90<292 361.988>
AnchorPoint: "Anchor-2" 364 0 basechar 0
AnchorPoint: "Anchor-1" 270 0 basechar 0
AnchorPoint: "Anchor-0" 281 496 basechar 0
LayerCount: 2
Fore
SplineSet
421 292 m 1
 421 370 358 432 279 432 c 0
 191 432 136 381 129 292 c 1
 421 292 l 1
478 87 m 1
 438 24 367 -12 281 -12 c 0
 135 -12 38 91 38 247 c 0
 38 399 137 504 279 504 c 0
 413 504 511 397 511 250 c 0
 511 238 511 232 510 225 c 1
 128 225 l 1
 131 127 192 62 281 62 c 0
 332 62 372 79 397 111 c 1
 478 87 l 1
EndSplineSet
EndChar

StartChar: f
Encoding: 102 102 46
Width: 311
GlyphClass: 1
Flags: W
HStem: 0 21G<99 183> 429 67<15 99 183 286> 635 71<188.326 286>
VStem: 99 84<0 429 496 629.935>
AnchorPoint: "Anchor-0" 90 668 basechar 0
LayerCount: 2
Fore
SplineSet
234 635 m 2
 193 635 183 622 183 571 c 2
 183 496 l 1
 286 496 l 1
 286 429 l 1
 183 429 l 1
 183 0 l 1
 99 0 l 1
 99 429 l 1
 15 429 l 1
 15 496 l 1
 99 496 l 1
 99 570 l 2
 99 678 127 706 232 706 c 2
 286 706 l 1
 286 635 l 1
 234 635 l 2
EndSplineSet
EndChar

StartChar: g
Encoding: 103 103 47
Width: 560
GlyphClass: 2
Flags: W
HStem: -192 74<197.005 360.281> 9 70<196.922 340.857> 432 72<196.922 340.857> 476 20G<423.103 490>
VStem: 38 91<154.165 357.535> 406 84<-72.0227 94 144.407 367.232> 429 61<472.261 496>
AnchorPoint: "Anchor-1" 280 -251 basechar 0
AnchorPoint: "Anchor-0" 268 496 basechar 0
LayerCount: 2
Fore
SplineSet
129 256 m 0xe8
 129 147 183 79 269 79 c 0
 357 79 409 145 409 256 c 0
 409 367 357 432 269 432 c 0
 183 432 129 364 129 256 c 0xe8
490 47 m 2xdc
 490 -121 425 -192 274 -192 c 0
 177 -192 104 -148 81 -76 c 1
 165 -53 l 1
 180 -96 217 -118 274 -118 c 0
 368 -118 406 -76 406 28 c 2
 406 94 l 1
 372 37 320 9 248 9 c 0
 125 9 38 111 38 256 c 0
 38 401 125 504 248 504 c 0
 320 504 372 476 406 418 c 1xec
 429 496 l 1
 490 496 l 1xda
 490 47 l 2xdc
EndSplineSet
EndChar

StartChar: h
Encoding: 104 104 48
Width: 546
GlyphClass: 2
Flags: W
HStem: 0 21G<70 154 394 478> 432 72<218.01 357.536> 648 20G<70 154>
VStem: 70 84<0 369.441 421 668> 394 84<0 392.763>
AnchorPoint: "Anchor-1" 273 0 basechar 0
AnchorPoint: "Anchor-0" 114 668 basechar 0
LayerCount: 2
Fore
SplineSet
285 432 m 0
 201 432 154 373 154 269 c 2
 154 0 l 1
 70 0 l 1
 70 668 l 1
 154 668 l 1
 154 421 l 1
 187 476 240 504 314 504 c 0
 423 504 478 441 478 314 c 2
 478 0 l 1
 394 0 l 1
 394 289 l 2
 394 392 364 432 285 432 c 0
EndSplineSet
EndChar

StartChar: i
Encoding: 105 105 49
Width: 278
GlyphClass: 1
Flags: W
HStem: 0 21G<114 198> 429 67<45 114> 590 125<109.2 203.707>
VStem: 94 125<605.293 699.8> 114 84<0 429>
AnchorPoint: "Anchor-2" 198 0 basechar 0
LayerCount: 2
Fore
SplineSet
219 653 m 0xf0
 219 618 191 590 156 590 c 0
 122 590 94 618 94 653 c 0
 94 687 122 715 156 715 c 0
 191 715 219 688 219 653 c 0xf0
EndSplineSet
Refer: 353 305 S 1 0 0 1 2 0 2
Substitution2: "Single Substitution lookup 4 subtable" dotlessi
Substitution2: "Single Substitution lookup 3 subtable" dotlessi
EndChar

StartChar: j
Encoding: 106 106 50
Width: 254
GlyphClass: 1
Flags: W
HStem: -161 74<-58 72.777> 476 20G<90 174> 590 125<84.2933 179.137>
VStem: 69 125<605.293 700.137> 90 84<-69.5282 496>
LayerCount: 2
Fore
SplineSet
194 653 m 0xf0
 194 618 167 590 132 590 c 0
 97 590 69 618 69 653 c 0
 69 688 97 715 132 715 c 0
 167 715 194 688 194 653 c 0xf0
EndSplineSet
Refer: 410 567 S 1 0 0 1 0 0 2
EndChar

StartChar: k
Encoding: 107 107 51
Width: 490
GlyphClass: 2
Flags: W
HStem: 0 21G<70 154 362.59 480> 476 20G<336.063 455> 648 20G<70 154>
VStem: 70 84<0 166 273 668>
AnchorPoint: "Anchor-1" 251 0 basechar 0
AnchorPoint: "Anchor-0" 113 668 basechar 0
LayerCount: 2
Fore
SplineSet
70 0 m 1
 70 668 l 1
 154 668 l 1
 154 273 l 1
 354 496 l 1
 455 496 l 1
 268 291 l 1
 480 0 l 1
 377 0 l 1
 212 229 l 1
 154 166 l 1
 154 0 l 1
 70 0 l 1
EndSplineSet
EndChar

StartChar: l
Encoding: 108 108 52
Width: 239
GlyphClass: 2
Flags: W
HStem: 0 74<158.381 224> 647 20G<70 154>
VStem: 70 84<78.5552 667>
AnchorPoint: "Anchor-1" 145 0 basechar 0
AnchorPoint: "Anchor-0" 117 668 basechar 0
LayerCount: 2
Fore
SplineSet
154 138 m 2
 154 84 162 74 205 74 c 2
 224 74 l 1
 224 0 l 1
 187 0 l 2
 92 0 70 23 70 124 c 2
 70 667 l 1
 154 667 l 1
 154 138 l 2
EndSplineSet
EndChar

StartChar: m
Encoding: 109 109 53
Width: 841
GlyphClass: 2
Flags: W
HStem: 0 21G<70 154 380 464 689 773> 432 72<217.305 344.194 516.587 651.757> 476 20G<70 137.867>
VStem: 70 84<0 372.101> 70 62<472.136 496> 380 84<0 372.101> 689 84<0 391.939>
AnchorPoint: "Anchor-1" 421 0 basechar 0
AnchorPoint: "Anchor-0" 433 496 basechar 0
LayerCount: 2
Fore
SplineSet
274 432 m 0xd6
 198 432 154 372 154 269 c 2
 154 0 l 1
 70 0 l 1xd6
 70 496 l 1
 132 496 l 1xae
 154 421 l 1
 187 475 239 504 303 504 c 0
 375 504 423 475 446 417 c 1
 484 475 539 504 613 504 c 0
 718 504 773 439 773 314 c 2
 773 0 l 1
 689 0 l 1
 689 289 l 2
 689 390 658 432 583 432 c 0
 508 432 464 372 464 269 c 2
 464 0 l 1
 380 0 l 1
 380 289 l 2
 380 390 349 432 274 432 c 0xd6
EndSplineSet
EndChar

StartChar: n
Encoding: 110 110 54
Width: 546
GlyphClass: 2
Flags: W
HStem: 0 21G<70 154 394 478> 432 72<218.01 357.536> 476 20G<70 137.867>
VStem: 70 84<0 369.441> 70 62<472.136 496> 394 84<0 392.763>
AnchorPoint: "Anchor-1" 257 0 basechar 0
AnchorPoint: "Anchor-0" 288 496 basechar 0
LayerCount: 2
Fore
SplineSet
285 432 m 0xd4
 201 432 154 373 154 269 c 2
 154 0 l 1
 70 0 l 1xd4
 70 496 l 1
 132 496 l 1xac
 154 421 l 1
 187 476 240 504 314 504 c 0
 423 504 478 441 478 314 c 2
 478 0 l 1
 394 0 l 1
 394 289 l 2
 394 392 364 432 285 432 c 0xd4
EndSplineSet
EndChar

StartChar: o
Encoding: 111 111 55
AltUni2: 0003bf.ffffffff.0
Width: 552
GlyphClass: 2
Flags: W
HStem: -12 74<202.179 350.007> 430 74<202.179 350.007>
VStem: 38 90<145.313 346.687> 424 90<144.886 347.114>
AnchorPoint: "Anchor-2" 355 0 basechar 0
AnchorPoint: "Anchor-1" 276 0 basechar 0
AnchorPoint: "Anchor-0" 276 496 basechar 0
LayerCount: 2
Fore
SplineSet
128 246 m 0
 128 137 188 62 276 62 c 0
 364 62 424 136 424 246 c 0
 424 356 364 430 276 430 c 0
 188 430 128 355 128 246 c 0
514 246 m 0
 514 92 418 -12 276 -12 c 0
 135 -12 38 93 38 246 c 0
 38 399 135 504 276 504 c 0
 418 504 514 400 514 246 c 0
EndSplineSet
Substitution2: "Single Substitution lookup 12 subtable" ordmasculine
Substitution2: "'aalt' Access All Alternates lookup 0 subtable" ordmasculine
EndChar

StartChar: p
Encoding: 112 112 56
AltUni2: 0003c1.ffffffff.0
Width: 566
GlyphClass: 1
Flags: W
HStem: -161 21G<70 154> -12 72<221.675 366.541> 432 72<221.868 366.541> 476 20G<70 136.897>
VStem: 70 84<-161 75 132.55 359.45> 70 61<472.261 496> 434 94<136.169 355.831>
AnchorPoint: "Anchor-0" 306 496 basechar 0
LayerCount: 2
Fore
SplineSet
293 432 m 0xe2
 205 432 152 362 152 246 c 0
 152 130 205 60 293 60 c 0
 381 60 434 130 434 246 c 0
 434 362 381 432 293 432 c 0xe2
315 -12 m 0
 242 -12 187 18 154 75 c 1
 154 -161 l 1
 70 -161 l 1xea
 70 496 l 1
 131 496 l 1xd6
 154 418 l 1xda
 187 474 243 504 315 504 c 0
 440 504 528 397 528 246 c 0
 528 95 440 -12 315 -12 c 0
EndSplineSet
EndChar

StartChar: q
Encoding: 113 113 57
Width: 576
GlyphClass: 1
Flags: W
HStem: -173 79<512.724 626.805> -12 72<199.016 344.813> 432 72<199.016 344.438> 476 20G<429.103 496>
VStem: 38 93<136.389 355.831> 412 84<-76.1221 75 132.55 359.45> 435 61<472.261 496>
LayerCount: 2
Fore
SplineSet
628 -159 m 1xdc
 599 -168 569 -173 543 -173 c 0
 457 -173 412 -123 412 -27 c 2
 412 75 l 1
 381 18 325 -12 250 -12 c 0
 126 -12 38 95 38 246 c 0
 38 397 126 504 250 504 c 0
 324 504 380 474 412 418 c 1xec
 435 496 l 1
 496 496 l 1xda
 496 -24 l 2
 496 -67 523 -94 567 -94 c 0
 585 -94 606 -89 628 -81 c 1
 628 -159 l 1xdc
273 432 m 256
 185 432 131 362 131 246 c 0
 131 131 185 60 273 60 c 256
 361 60 414 130 414 246 c 0
 414 362 361 432 273 432 c 256
EndSplineSet
EndChar

StartChar: r
Encoding: 114 114 58
Width: 340
GlyphClass: 2
Flags: W
HStem: 0 21G<70 154> 417 87<239.662 335> 476 20G<70 136.87>
VStem: 70 84<0 333.721> 70 61<472.148 496>
AnchorPoint: "Anchor-1" 113 0 basechar 0
AnchorPoint: "Anchor-0" 199 496 basechar 0
LayerCount: 2
Fore
SplineSet
70 0 m 1xd0
 70 496 l 1
 131 496 l 1xa8
 158 404 l 1
 195 469 257 504 335 504 c 1
 335 417 l 1
 320 417 l 2
 208 417 154 350 154 213 c 2
 154 0 l 1
 70 0 l 1xd0
EndSplineSet
EndChar

StartChar: s
Encoding: 115 115 59
Width: 471
GlyphClass: 2
Flags: W
HStem: -12 71<157.818 320.875> 434 71<151.232 305.42>
VStem: 41 85<325.379 410.034> 356 85<90.2241 182.856>
AnchorPoint: "Anchor-1" 230 0 basechar 0
AnchorPoint: "Anchor-0" 240 496 basechar 0
LayerCount: 2
Fore
SplineSet
441 136 m 0
 441 51 355 -12 239 -12 c 0
 142 -12 62 36 31 112 c 1
 112 142 l 1
 125 91 173 59 239 59 c 0
 305 59 356 91 356 133 c 0
 356 178 326 201 246 217 c 2
 177 231 l 1
 82 252 41 293 41 367 c 0
 41 447 122 505 232 505 c 0
 321 505 391 467 418 404 c 1
 339 375 l 1
 323 411 279 434 226 434 c 0
 168 434 126 406 126 368 c 0
 126 332 152 312 218 299 c 2
 283 286 l 2
 395 264 441 220 441 136 c 0
EndSplineSet
EndChar

StartChar: t
Encoding: 116 116 60
Width: 324
GlyphClass: 2
Flags: W
HStem: 0 74<192.381 284> 429 67<20 104 188 284>
VStem: 104 84<78.5552 429 496 621>
AnchorPoint: "Anchor-1" 183 0 basechar 0
AnchorPoint: "Anchor-0" 145 621 basechar 0
LayerCount: 2
Fore
SplineSet
188 138 m 2
 188 84 196 74 239 74 c 2
 284 74 l 1
 284 0 l 1
 221 0 l 2
 126 0 104 23 104 124 c 2
 104 429 l 1
 20 429 l 1
 20 496 l 1
 104 496 l 1
 104 621 l 1
 188 621 l 1
 188 496 l 1
 284 496 l 1
 284 429 l 1
 188 429 l 1
 188 138 l 2
EndSplineSet
EndChar

StartChar: u
Encoding: 117 117 61
Width: 536
GlyphClass: 2
Flags: W
HStem: -12 74<188.555 321.315> 0 21G<397.167 466> 477 20G<68 152 382 466>
VStem: 68 84<100.959 497> 382 84<120.83 497> 403 63<0 24>
AnchorPoint: "Anchor-2" 466 0 basechar 0
AnchorPoint: "Anchor-1" 268 0 basechar 0
AnchorPoint: "Anchor-0" 267 496 basechar 0
LayerCount: 2
Fore
SplineSet
256 62 m 0xb8
 337 62 382 120 382 224 c 2
 382 497 l 1
 466 497 l 1xb8
 466 0 l 1
 403 0 l 1x74
 382 72 l 1
 349 15 299 -12 227 -12 c 0
 122 -12 68 53 68 180 c 2
 68 497 l 1
 152 497 l 1
 152 200 l 2
 152 103 183 62 256 62 c 0xb8
EndSplineSet
EndChar

StartChar: v
Encoding: 118 118 62
Width: 441
GlyphClass: 1
Flags: W
HStem: 0 21G<169.863 271.137> 476 20G<0 97.7358 343.316 441>
LayerCount: 2
Fore
SplineSet
177 0 m 1
 0 496 l 1
 91 496 l 1
 221 110 l 1
 350 496 l 1
 441 496 l 1
 264 0 l 1
 177 0 l 1
EndSplineSet
EndChar

StartChar: w
Encoding: 119 119 63
Width: 654
GlyphClass: 1
Flags: W
HStem: 0 21G<137.234 224.414 429.586 517.726> 399 97<235.5 419.5>
VStem: 0 90<406 496> 564 90<406 496>
AnchorPoint: "Anchor-0" 327 496 basechar 0
LayerCount: 2
Fore
SplineSet
143 0 m 1
 0 496 l 1
 90 496 l 1
 185 129 l 1
 284 496 l 1
 371 496 l 1
 469 129 l 1
 564 496 l 1
 654 496 l 1
 512 0 l 1
 435 0 l 1
 327 399 l 1
 219 0 l 1
 143 0 l 1
EndSplineSet
EndChar

StartChar: x
Encoding: 120 120 64
AltUni2: 0003c7.ffffffff.0
Width: 461
GlyphClass: 1
Flags: W
HStem: 0 21G<0 113.162 347.73 461> 476 20G<9 122.186 338.698 452>
AnchorPoint: "Anchor-1" 230 0 basechar 0
AnchorPoint: "Anchor-0" 230 496 basechar 0
LayerCount: 2
Fore
SplineSet
0 0 m 1
 181 255 l 1
 9 496 l 1
 108 496 l 1
 230 324 l 1
 353 496 l 1
 452 496 l 1
 280 255 l 1
 461 0 l 1
 362 0 l 1
 230 185 l 1
 99 0 l 1
 0 0 l 1
EndSplineSet
EndChar

StartChar: y
Encoding: 121 121 65
Width: 429
GlyphClass: 2
Flags: W
HStem: -161 74<37 148.767> 475 20G<0 99.3874 330.613 429>
VStem: 0 93<402 495> 337 92<403 495>
AnchorPoint: "Anchor-1" 215 0 basechar 0
AnchorPoint: "Anchor-0" 220 496 basechar 0
LayerCount: 2
Fore
SplineSet
37 -161 m 1
 37 -87 l 1
 71 -87 l 2
 143 -87 158 -75 179 -1 c 1
 0 495 l 1
 93 495 l 1
 215 113 l 1
 337 495 l 1
 429 495 l 1
 253 -22 l 2
 214 -137 184 -161 80 -161 c 2
 37 -161 l 1
EndSplineSet
EndChar

StartChar: z
Encoding: 122 122 66
Width: 460
GlyphClass: 2
Flags: W
HStem: 0 74<135 430> 422 74<49 325>
AnchorPoint: "Anchor-1" 230 0 basechar 0
AnchorPoint: "Anchor-0" 237 496 basechar 0
LayerCount: 2
Fore
SplineSet
40 0 m 1
 40 74 l 1
 325 422 l 1
 49 422 l 1
 49 496 l 1
 420 496 l 1
 420 422 l 1
 135 74 l 1
 430 74 l 1
 430 0 l 1
 40 0 l 1
EndSplineSet
EndChar

StartChar: circumflex
Encoding: 258 710 67
Width: 429
GlyphClass: 1
Flags: W
HStem: 575 120
VStem: 53 323
LayerCount: 2
Fore
SplineSet
53 575 m 1
 165 676 l 2
 178 689 194 695 215 695 c 0
 235 695 251 689 264 676 c 2
 376 575 l 1
 282 575 l 1
 214 636 l 1
 147 575 l 1
 53 575 l 1
EndSplineSet
EndChar

StartChar: caron
Encoding: 259 711 68
Width: 429
GlyphClass: 1
Flags: W
HStem: 569 120
VStem: 53 323
LayerCount: 2
Fore
SplineSet
215 569 m 0
 194 569 178 575 165 588 c 2
 53 689 l 1
 147 689 l 1
 214 628 l 1
 282 689 l 1
 376 689 l 1
 264 588 l 2
 251 575 235 569 215 569 c 0
EndSplineSet
EndChar

StartChar: breve
Encoding: 260 728 69
Width: 399
GlyphClass: 1
Flags: W
HStem: 569 67<145.042 254.539>
VStem: 53 294
LayerCount: 2
Fore
SplineSet
347 689 m 1
 333 619 272 569 200 569 c 0
 128 569 68 618 53 689 c 1
 122 689 l 1
 135 657 165 636 200 636 c 0
 233 636 264 657 278 689 c 1
 347 689 l 1
EndSplineSet
EndChar

StartChar: dotaccent
Encoding: 261 729 70
Width: 214
GlyphClass: 1
Flags: W
HStem: 590 108<63.676 149.846>
VStem: 53 108<600.676 686.846>
LayerCount: 2
Fore
SplineSet
161 644 m 0
 161 614 137 590 107 590 c 0
 77 590 53 614 53 644 c 0
 53 674 77 698 107 698 c 0
 138 698 161 675 161 644 c 0
EndSplineSet
EndChar

StartChar: ring
Encoding: 262 730 71
Width: 253
GlyphClass: 1
Flags: W
HStem: 559 58<82.2186 166.046> 719 58<82.2186 166.046>
VStem: 15 57<627.146 708.854> 176 57<626.94 709.06>
LayerCount: 2
Fore
SplineSet
72 668 m 0
 72 639 95 617 124 617 c 0
 153 617 176 639 176 668 c 0
 176 697 153 719 124 719 c 0
 95 719 72 697 72 668 c 0
233 668 m 0
 233 607 186 559 126 559 c 0
 65 559 15 608 15 668 c 0
 15 728 65 777 126 777 c 0
 186 777 233 729 233 668 c 0
EndSplineSet
EndChar

StartChar: ogonek
Encoding: 263 731 72
Width: 263
GlyphClass: 1
Flags: W
HStem: -173 58<127.165 209.134> -20 20G<109 210>
VStem: 53 70<-109.095 -35.1248>
LayerCount: 2
Fore
SplineSet
172 -115 m 0
 183 -115 196 -112 210 -107 c 1
 210 -161 l 1
 187 -169 166 -173 147 -173 c 0
 92 -173 53 -139 53 -91 c 0
 53 -48 85 -12 133 0 c 1
 210 0 l 1
 151 -22 123 -46 123 -75 c 0
 123 -100 141 -115 172 -115 c 0
EndSplineSet
EndChar

StartChar: quoteleft
Encoding: 161 8216 73
Width: 235
GlyphClass: 1
Flags: W
HStem: 418 250<120 127.898>
VStem: 53 129<434.397 529.641>
LayerCount: 2
Fore
SplineSet
182 482 m 0
 182 446 154 418 118 418 c 0
 82 418 53 446 53 482 c 0
 53 490 55 498 58 507 c 2
 120 668 l 1
 175 668 l 1
 128 546 l 1
 159 541 182 514 182 482 c 0
EndSplineSet
EndChar

StartChar: quoteright
Encoding: 162 8217 74
Width: 235
GlyphClass: 1
Flags: W
HStem: 429 251<107.333 115>
VStem: 53 129<568.219 663.15>
LayerCount: 2
Fore
SplineSet
117 680 m 0
 153 680 182 652 182 616 c 0
 182 608 180 600 177 591 c 2
 115 429 l 1
 60 429 l 1
 107 552 l 1
 75 558 53 584 53 615 c 0
 53 651 82 680 117 680 c 0
EndSplineSet
EndChar

StartChar: quotedblleft
Encoding: 265 8220 76
Width: 398
GlyphClass: 1
Flags: W
HStem: 418 250<120 127.898 283 290.898>
VStem: 54 128<434.119 529.344> 217 128<434.119 529.344>
LayerCount: 2
Fore
SplineSet
345 482 m 0
 345 446 317 418 281 418 c 0
 243 418 217 443 217 480 c 0
 217 492 219 504 224 515 c 2
 283 668 l 1
 338 668 l 1
 291 546 l 1
 322 541 345 514 345 482 c 0
182 482 m 0
 182 446 154 418 118 418 c 0
 80 418 54 443 54 480 c 0
 54 492 56 504 61 515 c 2
 120 668 l 1
 175 668 l 1
 128 546 l 1
 159 541 182 514 182 482 c 0
EndSplineSet
EndChar

StartChar: quotedblright
Encoding: 266 8221 77
Width: 398
GlyphClass: 1
Flags: W
HStem: 429 251<107.333 115 271.078 279>
VStem: 53 129<568.219 663.15> 216 129<568.219 663.15>
LayerCount: 2
Fore
SplineSet
281 680 m 0
 317 680 345 652 345 616 c 0
 345 608 343 600 340 591 c 2
 279 429 l 1
 223 429 l 1
 270 552 l 1
 238 558 216 584 216 615 c 0
 216 651 245 680 281 680 c 0
EndSplineSet
Refer: 74 8217 S 1 0 0 1 0 0 2
EndChar

StartChar: dagger
Encoding: 268 8224 79
Width: 541
GlyphClass: 1
Flags: W
HStem: 0 21G<230 311> 416 80<40 230 311 501> 648 20G<230 311>
VStem: 230 81<0 416 496 668>
LayerCount: 2
Fore
SplineSet
230 0 m 1
 230 416 l 1
 40 416 l 1
 40 496 l 1
 230 496 l 1
 230 668 l 1
 311 668 l 1
 311 496 l 1
 501 496 l 1
 501 416 l 1
 311 416 l 1
 311 0 l 1
 230 0 l 1
EndSplineSet
EndChar

StartChar: daggerdbl
Encoding: 269 8225 80
Width: 541
GlyphClass: 1
Flags: W
HStem: 0 21G<230 311> 172 79<40 230 311 501> 416 80<40 230 311 501> 648 20G<230 311>
VStem: 230 81<0 172 251 416 496 668>
LayerCount: 2
Fore
SplineSet
230 0 m 1
 230 172 l 1
 40 172 l 1
 40 251 l 1
 230 251 l 1
 230 416 l 1
 40 416 l 1
 40 496 l 1
 230 496 l 1
 230 668 l 1
 311 668 l 1
 311 496 l 1
 501 496 l 1
 501 416 l 1
 311 416 l 1
 311 251 l 1
 501 251 l 1
 501 172 l 1
 311 172 l 1
 311 0 l 1
 230 0 l 1
EndSplineSet
EndChar

StartChar: bullet
Encoding: 270 8226 81
Width: 438
GlyphClass: 1
Flags: W
HStem: 88 332<136.23 301.77>
VStem: 53 332<171.23 336.77>
LayerCount: 2
Fore
SplineSet
385 254 m 0
 385 162 311 88 219 88 c 0
 127 88 53 162 53 254 c 0
 53 346 127 420 219 420 c 0
 311 420 385 346 385 254 c 0
EndSplineSet
EndChar

StartChar: ellipsis
Encoding: 271 8230 82
Width: 696
GlyphClass: 1
Flags: W
HStem: -12 129<69.7473 165.15 300.397 396.15 530.85 626.253>
VStem: 53 129<4.74728 100.15> 284 129<4.74728 100.15> 514 129<4.74728 100.15>
LayerCount: 2
Fore
SplineSet
413 52 m 0
 413 17 384 -12 348 -12 c 0
 312 -12 284 16 284 52 c 0
 284 89 312 117 348 117 c 0
 384 117 413 88 413 52 c 0
643 52 m 0
 643 17 614 -12 579 -12 c 0
 543 -12 514 17 514 52 c 0
 514 88 543 117 579 117 c 0
 614 117 643 88 643 52 c 0
EndSplineSet
Refer: 133 46 S 1 0 0 1 15 0 2
EndChar

StartChar: perthousand
Encoding: 272 8240 83
Width: 1328
GlyphClass: 1
Flags: W
HStem: -12 74<644.229 771.114 1045.23 1172.11> 0 21G<186 288.012> 277 74<644.014 771.529 1045.01 1172.53> 316 75<156.229 283.114> 605 75<156.229 283.114> 648 20G<639.988 742>
VStem: 38 74<434.625 561.375> 327 74<434.625 561.375> 526 74<105.671 232.986> 815 74<105.886 232.771> 927 74<105.671 232.986> 1216 74<105.886 232.771>
LayerCount: 2
Fore
SplineSet
1001 169 m 0xa3f0
 1001 109 1049 62 1109 62 c 0
 1168 62 1216 110 1216 169 c 0
 1216 229 1169 277 1109 277 c 0
 1048 277 1001 230 1001 169 c 0xa3f0
600 169 m 0
 600 109 648 62 708 62 c 0
 767 62 815 110 815 169 c 0
 815 229 768 277 708 277 c 0
 647 277 600 230 600 169 c 0
1290 169 m 0
 1290 69 1209 -12 1109 -12 c 0
 1008 -12 927 69 927 169 c 0
 927 270 1008 351 1109 351 c 0
 1210 351 1290 270 1290 169 c 0
889 169 m 0
 889 69 808 -12 708 -12 c 0
 607 -12 526 69 526 169 c 0
 526 270 607 351 708 351 c 0
 809 351 889 270 889 169 c 0
112 498 m 0
 112 439 160 391 220 391 c 0
 279 391 327 439 327 498 c 0
 327 557 279 605 220 605 c 0x1bf0
 160 605 112 557 112 498 c 0
401 498 m 0
 401 397 320 316 220 316 c 0
 119 316 38 397 38 498 c 0
 38 599 119 680 220 680 c 0
 320 680 401 599 401 498 c 0
EndSplineSet
Refer: 86 8260 S 1 0 0 1 171 0 2
EndChar

StartChar: guilsinglleft
Encoding: 273 8249 84
Width: 353
GlyphClass: 1
Flags: W
VStem: 53 247
LayerCount: 2
Fore
SplineSet
201 40 m 1
 53 250 l 1
 201 461 l 1
 300 461 l 1
 151 250 l 1
 300 40 l 1
 201 40 l 1
EndSplineSet
EndChar

StartChar: guilsinglright
Encoding: 274 8250 85
Width: 353
GlyphClass: 1
Flags: W
VStem: 53 247
LayerCount: 2
Fore
SplineSet
53 40 m 1
 202 250 l 1
 53 461 l 1
 153 461 l 1
 300 250 l 1
 153 40 l 1
 53 40 l 1
EndSplineSet
EndChar

StartChar: fraction
Encoding: 275 8260 86
Width: 586
GlyphClass: 1
Flags: W
HStem: 0 21G<15 117.012> 648 20G<468.988 571>
LayerCount: 2
Fore
SplineSet
15 0 m 1
 483 668 l 1
 571 668 l 1
 103 0 l 1
 15 0 l 1
EndSplineSet
EndChar

StartChar: ordfeminine
Encoding: 276 170 87
Width: 371
GlyphClass: 1
Flags: W
HStem: 397 51<126.758 223.121> 527 49<137.545 239> 643 49<134.932 232.013>
VStem: 53 70<453.382 510.362> 239 68<463.364 530 578 635.606> 260 58<403 425.75>
LayerCount: 2
Fore
SplineSet
123 483 m 0xf8
 123 461 141 448 172 448 c 0
 214 448 239 474 239 519 c 2
 239 530 l 1
 217 527 l 2
 145 517 123 507 123 483 c 0xf8
248 442 m 1
 233 414 197 397 152 397 c 0
 92 397 53 429 53 478 c 0
 53 536 103 565 222 576 c 1
 239 578 l 1
 239 627 226 643 186 643 c 0
 154 643 135 631 129 607 c 1
 68 625 l 1
 83 667 129 692 189 692 c 0
 267 692 307 652 307 573 c 2
 307 491 l 2xf8
 307 468 308 462 318 403 c 1
 260 403 l 1xf4
 248 442 l 1
EndSplineSet
EndChar

StartChar: guillemotleft
Encoding: 171 171 88
Width: 562
GlyphClass: 1
Flags: W
LayerCount: 2
Fore
SplineSet
201 40 m 1
 53 251 l 1
 201 461 l 1
 300 461 l 1
 151 251 l 1
 300 40 l 1
 201 40 l 1
409 40 m 1
 262 251 l 1
 409 461 l 1
 509 461 l 1
 359 251 l 1
 509 40 l 1
 409 40 l 1
EndSplineSet
EndChar

StartChar: logicalnot
Encoding: 172 172 89
Width: 602
GlyphClass: 1
Flags: W
HStem: 317 79<53 468>
VStem: 468 81<90 317>
LayerCount: 2
Fore
SplineSet
468 90 m 1
 468 317 l 1
 53 317 l 1
 53 396 l 1
 549 396 l 1
 549 90 l 1
 468 90 l 1
EndSplineSet
EndChar

StartChar: registered
Encoding: 277 174 90
Width: 798
GlyphClass: 1
Flags: W
HStem: -12 61<295.473 502.527> 301 58<340 382> 469 61<340 460.888> 619 61<295.473 502.527>
VStem: 53 62<229.705 437.104> 264 76<162 301 359 469> 474 76<372.045 456.368> 683 62<229.705 437.104>
LayerCount: 2
Fore
SplineSet
474 413 m 0
 474 452 448 469 388 469 c 2
 340 469 l 1
 340 359 l 1
 393 359 l 2
 448 359 474 377 474 413 c 0
550 414 m 0
 550 362 521 328 462 311 c 1
 570 162 l 1
 484 162 l 1
 382 301 l 1
 340 301 l 1
 340 162 l 1
 264 162 l 1
 264 530 l 1
 376 530 l 2
 503 530 550 499 550 414 c 0
115 333 m 0
 115 176 242 49 399 49 c 0
 556 49 683 176 683 333 c 0
 683 491 556 619 399 619 c 0
 242 619 115 491 115 333 c 0
745 333 m 0
 745 143 590 -12 399 -12 c 0
 208 -12 53 143 53 333 c 0
 53 525 208 680 399 680 c 0
 590 680 745 525 745 333 c 0
EndSplineSet
EndChar

StartChar: macron
Encoding: 278 175 91
Width: 382
GlyphClass: 1
Flags: W
HStem: 601 67<53 329>
VStem: 53 276<601 668>
LayerCount: 2
Fore
SplineSet
53 601 m 1
 53 668 l 1
 329 668 l 1
 329 601 l 1
 53 601 l 1
EndSplineSet
EndChar

StartChar: degree
Encoding: 176 176 92
Width: 352
GlyphClass: 1
Flags: W
HStem: 408 63<125.339 226.849> 617 63<125.151 229.172>
VStem: 40 63<493.339 594.849> 249 63<493.151 597.172>
LayerCount: 2
Fore
SplineSet
103 544 m 0
 103 504 136 471 176 471 c 0
 217 471 249 503 249 544 c 0
 249 586 218 617 176 617 c 0
 135 617 103 585 103 544 c 0
312 544 m 0
 312 469 251 408 176 408 c 0
 101 408 40 469 40 544 c 0
 40 619 101 680 176 680 c 0
 251 680 312 619 312 544 c 0
EndSplineSet
EndChar

StartChar: plusminus
Encoding: 177 177 93
Width: 579
GlyphClass: 1
Flags: W
HStem: 0 79<53 526> 270 79<53 250 329 526> 476 20G<250 329>
VStem: 250 79<124 270 349 496>
LayerCount: 2
Fore
SplineSet
53 0 m 1
 53 79 l 1
 526 79 l 1
 526 0 l 1
 53 0 l 1
250 124 m 1
 250 270 l 1
 53 270 l 1
 53 349 l 1
 250 349 l 1
 250 496 l 1
 329 496 l 1
 329 349 l 1
 526 349 l 1
 526 270 l 1
 329 270 l 1
 329 124 l 1
 250 124 l 1
EndSplineSet
EndChar

StartChar: uni00B2
Encoding: 178 178 94
Width: 382
GlyphClass: 1
Flags: W
HStem: 403 58<134 329> 677 21G<65 131.5> 736 50<143.665 241.351>
VStem: 65 64<693.031 720.326> 250 70<621.994 725.773>
LayerCount: 2
Fore
SplineSet
320 686 m 0
 320 618 262 548 134 461 c 1
 329 461 l 1
 329 403 l 1
 53 403 l 1
 53 458 l 1
 204 578 250 630 250 682 c 0
 250 716 229 736 193 736 c 0
 157 736 134 714 129 677 c 1
 65 695 l 1
 80 753 128 786 196 786 c 0
 271 786 320 747 320 686 c 0
EndSplineSet
EndChar

StartChar: uni00B3
Encoding: 179 179 95
Width: 383
GlyphClass: 1
Flags: W
HStem: 397 51<135.701 245.411> 484 20G<53 121.5> 572 54<151 238.53> 736 50<135.679 241.208>
VStem: 58 61<698.934 717.883> 252 69<639.791 724.644> 261 69<464.042 556.075>
LayerCount: 2
Fore
SplineSet
330 511 m 0xfa
 330 442 273 397 187 397 c 0
 122 397 72 430 53 486 c 1
 115 504 l 1
 128 467 152 448 188 448 c 0
 231 448 261 473 261 509 c 0xfa
 261 551 233 572 176 572 c 2
 151 572 l 1
 151 626 l 1
 172 626 l 2
 224 626 252 646 252 683 c 0
 252 716 228 736 190 736 c 0
 154 736 130 719 119 683 c 1
 58 701 l 1
 76 755 125 786 194 786 c 0
 270 786 321 746 321 685 c 0xfc
 321 651 301 619 268 602 c 1
 307 587 330 553 330 511 c 0xfa
EndSplineSet
EndChar

StartChar: acute
Encoding: 279 180 96
Width: 268
GlyphClass: 1
Flags: W
HStem: 571 136
VStem: 53 162
LayerCount: 2
Fore
SplineSet
177 707 m 0
 199 707 215 691 215 669 c 0
 215 651 201 636 142 588 c 0
 135 582 128 576 123 571 c 1
 53 571 l 1
 118 657 141 686 149 694 c 0
 156 703 165 707 177 707 c 0
EndSplineSet
EndChar

StartChar: uni03BC
Encoding: 236 956 97
Width: 538
GlyphClass: 1
Flags: W
HStem: -162 21G<70 154> -12 74<188.179 330.607> 0 21G<399.167 468> 477 20G<70 154 384 468>
VStem: 70 84<-162 41 96.8197 497> 384 84<120.83 497> 405 63<0 24>
LayerCount: 2
Fore
SplineSet
254 -12 m 0xdc
 215 -12 181 6 154 41 c 1
 154 -162 l 1
 70 -162 l 1
 70 497 l 1
 154 497 l 1
 154 191 l 2
 154 101 186 62 258 62 c 0
 339 62 384 120 384 224 c 2
 384 497 l 1
 468 497 l 1xdc
 468 0 l 1
 405 0 l 1xba
 384 72 l 1
 347 9 316 -12 254 -12 c 0xdc
EndSplineSet
EndChar

StartChar: paragraph
Encoding: 280 182 98
Width: 508
GlyphClass: 1
Flags: W
HStem: -161 21G<187 268 362 443> 601 67<268 362 443 483>
VStem: 38 230<393.341 565.315> 187 81<-161 299.493> 362 81<-161 601>
LayerCount: 2
Fore
SplineSet
38 479 m 0xe8
 38 584 122 668 227 668 c 2
 483 668 l 1
 483 601 l 1
 443 601 l 1
 443 -161 l 1
 362 -161 l 1
 362 601 l 1
 268 601 l 1
 268 -161 l 1
 187 -161 l 1
 187 294 l 1xd8
 100 313 38 390 38 479 c 0xe8
EndSplineSet
EndChar

StartChar: periodcentered
Encoding: 183 183 99
Width: 235
GlyphClass: 1
Flags: W
HStem: 183 129<69.7473 165.15>
VStem: 53 129<199.85 295.253>
LayerCount: 2
Fore
SplineSet
182 248 m 0
 182 212 153 183 117 183 c 0
 82 183 53 212 53 248 c 0
 53 283 82 312 117 312 c 0
 153 312 182 283 182 248 c 0
EndSplineSet
EndChar

StartChar: cedilla
Encoding: 281 184 100
Width: 291
GlyphClass: 1
Flags: W
HStem: -181 41<81.4011 191.498> -81 40<140.061 195.037>
VStem: 196 62<-134.133 -82.5443>
LayerCount: 2
Fore
SplineSet
258 -102 m 0
 258 -148 217 -181 161 -181 c 0
 136 -181 109 -175 73 -161 c 1
 87 -126 l 1
 111 -136 130 -140 145 -140 c 0
 175 -140 196 -126 196 -106 c 0
 196 -90 183 -81 160 -81 c 0
 146 -81 134 -87 120 -87 c 0
 109 -87 101 -78 101 -67 c 0
 101 -64 102 -60 104 -57 c 2
 155 25 l 1
 189 4 l 1
 159 -45 l 1
 169 -42 178 -41 189 -41 c 0
 230 -41 258 -65 258 -102 c 0
EndSplineSet
EndChar

StartChar: uni00B9
Encoding: 282 185 101
Width: 256
GlyphClass: 1
Flags: W
HStem: 683 47<53 129.015>
VStem: 136 67<403 683> 147 56<748.994 779>
LayerCount: 2
Fore
SplineSet
53 730 m 1xc0
 104 730 135 746 147 779 c 1
 203 779 l 1xa0
 203 403 l 1
 136 403 l 1
 136 683 l 1
 53 683 l 1
 53 730 l 1xc0
EndSplineSet
EndChar

StartChar: ordmasculine
Encoding: 283 186 102
Width: 381
GlyphClass: 1
Flags: W
HStem: 398 54<147.65 240.812> 638 54<147.65 240.812>
VStem: 57 69<473.928 616.072> 263 69<474.411 615.589>
LayerCount: 2
Fore
SplineSet
126 545 m 0
 126 488 152 452 194 452 c 0
 236 452 263 488 263 545 c 0
 263 602 236 638 194 638 c 0
 152 638 126 602 126 545 c 0
332 545 m 0
 332 456 277 398 194 398 c 0
 112 398 57 457 57 545 c 0
 57 633 112 692 194 692 c 0
 277 692 332 634 332 545 c 0
EndSplineSet
EndChar

StartChar: guillemotright
Encoding: 187 187 103
Width: 562
GlyphClass: 1
Flags: W
LayerCount: 2
Fore
SplineSet
53 40 m 1
 202 251 l 1
 53 461 l 1
 153 461 l 1
 300 251 l 1
 153 40 l 1
 53 40 l 1
262 40 m 1
 411 251 l 1
 262 461 l 1
 361 461 l 1
 509 251 l 1
 361 40 l 1
 262 40 l 1
EndSplineSet
EndChar

StartChar: onequarter
Encoding: 284 188 104
Width: 826
GlyphClass: 1
Flags: W
HStem: 0 21G<115 217.982> 86 57<528 640 708 773> 571 48<53 129.015> 648 20G<141 204 568.988 671>
VStem: 136 68<292 571> 147 57<637.994 668> 640 68<0 86 143 289>
LayerCount: 2
Fore
SplineSet
53 619 m 1xfa
 104 619 135 635 147 668 c 1
 204 668 l 1xf6
 204 292 l 1
 136 292 l 1
 136 571 l 1
 53 571 l 1
 53 619 l 1xfa
115 0 m 1
 583 668 l 1
 671 668 l 1
 204 0 l 1
 115 0 l 1
EndSplineSet
Refer: 348 8308 S 1 0 0 1 415 -403 2
LCarets2: 2 0 0
Ligature2: "'frac' Diagonal Fractions lookup 10 subtable" one slash four
EndChar

StartChar: onehalf
Encoding: 189 189 105
Width: 812
GlyphClass: 1
Flags: W
HStem: 0 21G<115 217.012> 0 58<565 759> 332 50<575.935 672.351> 571 48<53 129.015> 648 20G<141 203 568.988 671>
VStem: 136 67<292 571> 147 56<637.994 668> 495 64<289.922 316.375> 681 70<217.485 321.998>
LayerCount: 2
Fore
SplineSet
751 283 m 0x7980
 751 214 693 144 565 58 c 1
 759 58 l 1
 759 0 l 1
 484 0 l 1
 484 54 l 1
 638 178 681 227 681 278 c 0
 681 312 660 332 624 332 c 0
 589 332 565 310 559 273 c 1
 495 292 l 1
 510 348 559 382 627 382 c 0
 702 382 751 343 751 283 c 0x7980
53 619 m 1
 104 619 135 635 147 668 c 1
 203 668 l 1x3b80
 203 292 l 1
 136 292 l 1
 136 571 l 1x3d80
 53 571 l 1
 53 619 l 1
EndSplineSet
Refer: 86 8260 S 1 0 0 1 100 0 2
LCarets2: 2 0 0
Ligature2: "'frac' Diagonal Fractions lookup 10 subtable" one slash two
EndChar

StartChar: threequarters
Encoding: 285 190 106
Width: 868
GlyphClass: 1
Flags: W
HStem: 0 21G<157 259.042 682 751> 86 57<570 682 751 815> 291 51<135.195 245.411> 466 53<151 239.125> 629 51<135.9 240.672> 648 20G<611.958 714>
VStem: 58 61<591.934 610.916> 252 69<533.533 617.552> 261 69<358.042 450.421> 682 69<0 86 143 289>
LayerCount: 2
Fore
SplineSet
570 143 m 1xf240
 682 143 l 1
 682 289 l 1
 570 143 l 1xf240
682 0 m 1
 682 86 l 1
 497 86 l 1
 497 140 l 1
 683 376 l 1
 751 376 l 1
 751 143 l 1
 815 143 l 1
 815 86 l 1
 751 86 l 1
 751 0 l 1
 682 0 l 1
157 0 m 1
 626 668 l 1
 714 668 l 1xf640
 245 0 l 1
 157 0 l 1
330 405 m 0xfac0
 330 336 273 291 187 291 c 0
 122 291 72 324 53 380 c 1
 115 398 l 1
 128 360 152 342 188 342 c 0
 231 342 261 367 261 403 c 0xfac0
 261 447 233 466 170 466 c 2
 151 466 l 1
 151 519 l 1
 169 519 l 2
 224 519 252 538 252 576 c 0
 252 608 227 629 190 629 c 0
 154 629 130 611 119 576 c 1
 58 594 l 1
 76 648 126 680 194 680 c 0
 270 680 321 639 321 578 c 0xfb40
 321 543 301 512 268 495 c 1
 307 481 330 447 330 405 c 0xfac0
EndSplineSet
LCarets2: 2 0 0
Ligature2: "'frac' Diagonal Fractions lookup 10 subtable" three slash four
EndChar

StartChar: less
Encoding: 60 60 107
Width: 553
GlyphClass: 1
Flags: W
HStem: 0 21G<468.587 513> 476 20G<468.587 513>
VStem: 40 105<160.5 335.5>
LayerCount: 2
Fore
SplineSet
513 0 m 1
 40 213 l 1
 40 283 l 1
 513 496 l 1
 513 406 l 1
 145 248 l 1
 513 90 l 1
 513 0 l 1
EndSplineSet
EndChar

StartChar: greater
Encoding: 62 62 109
Width: 553
GlyphClass: 1
Flags: W
HStem: 0 21G<40 84.4131> 476 20G<40 84.4131>
VStem: 408 105<160.5 335.5>
LayerCount: 2
Fore
SplineSet
40 0 m 1
 40 90 l 1
 408 248 l 1
 40 406 l 1
 40 496 l 1
 513 283 l 1
 513 213 l 1
 40 0 l 1
EndSplineSet
EndChar

StartChar: question
Encoding: 63 63 110
Width: 520
GlyphClass: 1
Flags: W
HStem: -12 129<178.85 274.253> 501 21G<50.6957 128.5> 610 70<176.082 338.05>
VStem: 40 82<522.037 553.916> 162 129<4.74728 100.15> 182 86<190 285.439> 382 88<444.049 568.519>
LayerCount: 2
Fore
SplineSet
291 52 m 0xfa
 291 17 262 -12 227 -12 c 0
 191 -12 162 17 162 52 c 0
 162 88 191 117 227 117 c 0
 262 117 291 88 291 52 c 0xfa
261 680 m 0
 386 680 470 614 470 516 c 0
 470 444 429 383 345 328 c 0
 281 287 268 269 268 224 c 2
 268 190 l 1
 182 190 l 1
 182 227 l 2xf6
 182 295 208 331 296 387 c 0
 356 425 382 462 382 508 c 0
 382 570 333 610 257 610 c 0
 184 610 135 571 122 501 c 1
 40 524 l 1
 60 619 146 680 261 680 c 0
EndSplineSet
EndChar

StartChar: at
Encoding: 64 64 111
Width: 780
GlyphClass: 1
Flags: W
HStem: -12 61<288.526 503.438> 155 74<321.04 419.149 536.8 628.472> 445 74<338.699 450.504> 618 62<292.473 502.152>
VStem: 50 62<226.235 438.226> 218 84<248.356 404.879> 451 81<263.599 444.238> 668 62<273.991 461.406>
LayerCount: 2
Fore
SplineSet
451 441 m 1
 439 444 424 445 406 445 c 0
 336 445 302 402 302 313 c 0
 302 262 328 229 369 229 c 0
 416 229 451 275 451 338 c 2
 451 441 l 1
532 16 m 1
 489 -2 443 -12 398 -12 c 0
 205 -12 50 142 50 335 c 0
 50 525 205 680 396 680 c 0
 580 680 730 539 730 366 c 0
 730 237 670 155 575 155 c 0
 528 155 486 179 473 213 c 1
 442 176 400 155 357 155 c 0
 276 155 218 223 218 318 c 0
 218 447 288 519 413 519 c 0
 450 519 491 512 532 499 c 1
 532 273 l 2
 532 246 548 229 575 229 c 0
 630 229 668 285 668 366 c 0
 668 504 545 618 396 618 c 0
 239 618 112 492 112 335 c 0
 112 175 237 49 396 49 c 0
 444 49 489 61 532 85 c 1
 532 16 l 1
EndSplineSet
EndChar

StartChar: colon
Encoding: 58 58 112
Width: 205
GlyphClass: 1
Flags: W
HStem: -12 129<54.7473 150.15> 375 129<54.7473 150.15>
VStem: 38 129<4.74728 100.15 391.85 487.253>
LayerCount: 2
Fore
SplineSet
167 440 m 0
 167 404 138 375 102 375 c 0
 67 375 38 404 38 440 c 0
 38 475 67 504 102 504 c 0
 138 504 167 475 167 440 c 0
EndSplineSet
Refer: 133 46 N 1 0 0 1 0 0 2
EndChar

StartChar: semicolon
Encoding: 59 59 113
Width: 205
GlyphClass: 1
Flags: W
HStem: -133 250<92.3334 100> 375 129<54.7473 150.15>
VStem: 38 129<5.35938 100.253 391.85 487.253>
LayerCount: 2
Fore
SplineSet
167 440 m 0
 167 404 138 375 102 375 c 0
 67 375 38 404 38 440 c 0
 38 475 67 504 102 504 c 0
 138 504 167 475 167 440 c 0
EndSplineSet
Refer: 131 44 N 1 0 0 1 0 0 2
EndChar

StartChar: bracketleft
Encoding: 91 91 114
Width: 315
GlyphClass: 1
Flags: W
HStem: -161 74<157 282> 594 74<157 282>
VStem: 76 206<-161 -87 594 668> 76 81<-87 594>
LayerCount: 2
Fore
SplineSet
76 -161 m 1xe0
 76 668 l 1
 282 668 l 1
 282 594 l 1xe0
 157 594 l 1
 157 -87 l 1xd0
 282 -87 l 1
 282 -161 l 1
 76 -161 l 1xe0
EndSplineSet
EndChar

StartChar: backslash
Encoding: 92 92 115
Width: 377
GlyphClass: 1
Flags: W
HStem: 0 21G<267.216 362> 648 20G<15 109.784>
LayerCount: 2
Fore
SplineSet
275 0 m 1
 15 668 l 1
 102 668 l 1
 362 0 l 1
 275 0 l 1
EndSplineSet
EndChar

StartChar: bracketright
Encoding: 93 93 116
Width: 315
GlyphClass: 1
Flags: W
HStem: -161 74<33 158> 594 74<33 158>
VStem: 33 206<-161 -87 594 668> 158 81<-87 594>
LayerCount: 2
Fore
SplineSet
33 -161 m 1xe0
 33 -87 l 1xe0
 158 -87 l 1
 158 594 l 1xd0
 33 594 l 1
 33 668 l 1
 239 668 l 1
 239 -161 l 1
 33 -161 l 1xe0
EndSplineSet
EndChar

StartChar: asciicircum
Encoding: 94 94 117
Width: 552
GlyphClass: 1
Flags: W
HStem: 569 99<188.5 363.5>
LayerCount: 2
Fore
SplineSet
53 311 m 1
 238 668 l 1
 314 668 l 1
 499 311 l 1
 410 311 l 1
 276 569 l 1
 142 311 l 1
 53 311 l 1
EndSplineSet
EndChar

StartChar: underscore
Encoding: 95 95 118
Width: 396
GlyphClass: 1
Flags: W
HStem: -79 79<10 386>
LayerCount: 2
Fore
SplineSet
10 -79 m 1
 10 0 l 1
 386 0 l 1
 386 -79 l 1
 10 -79 l 1
EndSplineSet
EndChar

StartChar: grave
Encoding: 96 96 119
Width: 268
GlyphClass: 1
Flags: W
HStem: 571 136
VStem: 53 162
LayerCount: 2
Fore
SplineSet
53 669 m 0
 53 691 69 707 91 707 c 0
 104 707 114 702 122 692 c 2
 215 571 l 1
 145 571 l 1
 56 646 53 649 53 669 c 0
EndSplineSet
EndChar

StartChar: exclam
Encoding: 33 33 120
Width: 281
GlyphClass: 1
Flags: W
HStem: -12 129<92.7473 188.15> 648 20G<96 185>
VStem: 76 129<4.74728 100.15> 96 89<378.944 668>
LayerCount: 2
Fore
SplineSet
114 195 m 1xd0
 96 496 l 1
 96 668 l 1
 185 668 l 1
 185 496 l 1
 167 195 l 1
 114 195 l 1xd0
EndSplineSet
Refer: 133 46 S 1 0 0 1 38 0 2
EndChar

StartChar: numbersign
Encoding: 35 35 122
Width: 655
GlyphClass: 1
Flags: W
HStem: 0 21G<137 221.791 342 426.791> 172 81<49 162 255 366 460 572> 415 81<83 196 289 400 494 606> 648 20G<228.209 313 433.209 518>
VStem: 137 82<0 82> 231 82<586 668> 342 82<0 82> 436 82<586 668>
LayerCount: 2
Fore
SplineSet
255 253 m 1
 378 253 l 1
 400 415 l 1
 277 415 l 1
 255 253 l 1
137 0 m 1
 162 172 l 1
 38 172 l 1
 49 253 l 1
 173 253 l 1
 196 415 l 1
 72 415 l 1
 83 496 l 1
 207 496 l 1
 231 668 l 1
 313 668 l 1
 289 496 l 1
 412 496 l 1
 436 668 l 1
 518 668 l 1
 494 496 l 1
 617 496 l 1
 606 415 l 1
 482 415 l 1
 460 253 l 1
 583 253 l 1
 572 172 l 1
 448 172 l 1
 424 0 l 1
 342 0 l 1
 366 172 l 1
 243 172 l 1
 219 0 l 1
 137 0 l 1
EndSplineSet
EndChar

StartChar: dollar
Encoding: 36 36 123
Width: 594
GlyphClass: 1
Flags: W
HStem: -11 80<198.006 267 317 402.257> 600 79<192.382 267 317 382.157>
VStem: 47 96<444.375 555.961> 267 50<-87 -12 69 297 398 599 677.256 742> 457 97<118.378 240.784>
LayerCount: 2
Fore
SplineSet
317 68 m 1
 404 73 457 116 457 180 c 0
 457 240 415 275 317 297 c 1
 317 68 l 1
267 600 m 1
 192 594 143 556 143 503 c 0
 143 451 181 415 252 401 c 2
 267 398 l 1
 267 600 l 1
554 188 m 0
 554 75 460 -5 317 -12 c 1
 317 -87 l 1
 267 -87 l 1
 267 -11 l 1
 154 0 74 55 40 146 c 1
 127 172 l 1
 150 112 197 78 267 69 c 1
 267 308 l 1
 231 315 l 2
 113 338 47 404 47 498 c 0
 47 597 135 669 267 679 c 1
 267 742 l 1
 317 742 l 1
 317 679 l 1
 416 672 489 628 523 555 c 1
 437 530 l 1
 414 568 371 593 317 599 c 1
 317 386 l 1
 329 383 l 1
 498 338 554 290 554 188 c 0
EndSplineSet
EndChar

StartChar: percent
Encoding: 37 37 124
Width: 927
GlyphClass: 1
Flags: W
HStem: -12 74<644.229 771.114> 0 21G<186 288.012> 277 75<644.229 771.114> 317 74<156.229 283.114> 606 74<156.014 283.529> 648 20G<639.988 742>
VStem: 38 74<434.886 561.986> 327 74<434.886 561.771> 526 74<106.229 233.59> 815 74<106.229 233.375>
LayerCount: 2
Fore
SplineSet
600 170 m 0xa3c0
 600 110 648 62 708 62 c 0
 767 62 815 110 815 170 c 0
 815 229 767 277 708 277 c 0
 648 277 600 230 600 170 c 0xa3c0
889 170 m 0
 889 69 808 -12 708 -12 c 0
 607 -12 526 69 526 170 c 0
 526 271 607 352 708 352 c 0
 808 352 889 271 889 170 c 0
112 498 m 0
 112 439 160 391 220 391 c 0
 279 391 327 439 327 498 c 0
 327 558 280 606 220 606 c 0x1bc0
 159 606 112 559 112 498 c 0
401 498 m 0
 401 398 320 317 220 317 c 0
 119 317 38 398 38 498 c 0
 38 599 119 680 220 680 c 0
 321 680 401 599 401 498 c 0
EndSplineSet
Refer: 86 8260 S 1 0 0 1 171 0 2
EndChar

StartChar: ampersand
Encoding: 38 38 125
Width: 705
GlyphClass: 1
Flags: W
HStem: -12 74<186.951 361.638> 0 21G<557.149 695> 606 74<246.489 387.116>
VStem: 38 90<117.973 258.935> 135 90<477.505 583.652> 409 82<472.275 583.813> 521 87<252.578 361>
LayerCount: 2
Fore
SplineSet
128 187 m 0xbe
 128 115 186 62 263 62 c 0
 333 62 394 90 440 143 c 1
 259 334 l 1
 171 303 128 255 128 187 c 0xbe
319 606 m 0
 262 606 225 580 225 540 c 0
 225 480 293 427 300 415 c 1
 371 441 409 481 409 531 c 0
 409 579 377 606 319 606 c 0
494 87 m 1
 433 22 354 -12 263 -12 c 0xbe
 130 -12 38 68 38 183 c 0
 38 279 97 349 209 387 c 1
 158 444 135 491 135 538 c 0
 135 623 208 680 317 680 c 0
 425 680 491 625 491 536 c 0
 491 460 444 402 351 363 c 1
 487 219 l 1
 505 263 517 310 521 361 c 1
 608 361 l 1
 602 285 580 214 546 157 c 1
 695 0 l 1
 576 0 l 1x7e
 494 87 l 1
EndSplineSet
EndChar

StartChar: quotesingle
Encoding: 39 39 126
Width: 160
GlyphClass: 1
Flags: W
HStem: 447 221<54 106>
VStem: 54 52<447 557.5>
LayerCount: 2
Fore
SplineSet
54 447 m 1
 40 668 l 1
 120 668 l 1
 106 447 l 1
 54 447 l 1
EndSplineSet
EndChar

StartChar: parenleft
Encoding: 40 40 127
Width: 300
GlyphClass: 1
Flags: W
HStem: -161 21G<144 265> 648 20G<124 235>
VStem: 50 74<105.084 456.651>
LayerCount: 2
Fore
SplineSet
265 -161 m 1
 189 -161 l 1
 99 -33 50 122 50 279 c 0
 50 418 88 553 160 668 c 1
 235 668 l 1
 163 565 124 430 124 286 c 0
 124 123 175 -37 265 -161 c 1
EndSplineSet
EndChar

StartChar: parenright
Encoding: 41 41 128
Width: 300
GlyphClass: 1
Flags: W
HStem: -161 21G<35 156.5> 648 20G<66 176.5>
VStem: 177 73<106.124 459.486>
LayerCount: 2
Fore
SplineSet
112 -161 m 1
 35 -161 l 1
 126 -38 177 124 177 289 c 0
 177 433 138 567 66 668 c 1
 141 668 l 1
 212 556 250 422 250 282 c 0
 250 123 201 -33 112 -161 c 1
EndSplineSet
EndChar

StartChar: asterisk
Encoding: 42 42 129
Width: 433
GlyphClass: 1
Flags: W
HStem: 388 280
VStem: 187 57<562 668>
LayerCount: 2
Fore
SplineSet
153 388 m 1
 107 422 l 1
 169 508 l 1
 68 540 l 1
 86 595 l 1
 187 562 l 1
 187 668 l 1
 244 668 l 1
 244 562 l 1
 345 595 l 1
 363 540 l 1
 261 508 l 1
 324 422 l 1
 278 388 l 1
 215 474 l 1
 153 388 l 1
EndSplineSet
EndChar

StartChar: plus
Encoding: 43 43 130
Width: 602
GlyphClass: 1
Flags: W
HStem: 0 21G<261 341> 208 80<53 261 341 549> 476 20G<261 341>
VStem: 261 80<0 208 288 496>
LayerCount: 2
Fore
SplineSet
261 0 m 1
 261 208 l 1
 53 208 l 1
 53 288 l 1
 261 288 l 1
 261 496 l 1
 341 496 l 1
 341 288 l 1
 549 288 l 1
 549 208 l 1
 341 208 l 1
 341 0 l 1
 261 0 l 1
EndSplineSet
EndChar

StartChar: comma
Encoding: 44 44 131
Width: 205
GlyphClass: 1
Flags: W
HStem: -133 250<92.3334 100>
VStem: 38 129<5.35938 100.253>
LayerCount: 2
Fore
SplineSet
102 117 m 0
 138 117 167 89 167 53 c 0
 167 45 165 37 162 28 c 2
 100 -133 l 1
 45 -133 l 1
 92 -11 l 1
 61 -6 38 21 38 53 c 0
 38 88 67 117 102 117 c 0
EndSplineSet
EndChar

StartChar: hyphen
Encoding: 45 45 132
Width: 368
GlyphClass: 1
Flags: W
HStem: 208 81<38 330>
VStem: 38 292<208 289>
LayerCount: 2
Fore
SplineSet
38 208 m 1
 38 289 l 1
 330 289 l 1
 330 208 l 1
 38 208 l 1
EndSplineSet
EndChar

StartChar: period
Encoding: 46 46 133
Width: 205
GlyphClass: 1
Flags: W
HStem: -12 129<54.7473 150.15>
VStem: 38 129<4.74728 100.15>
LayerCount: 2
Fore
SplineSet
167 52 m 0
 167 17 138 -12 102 -12 c 0
 67 -12 38 17 38 52 c 0
 38 88 67 117 102 117 c 0
 138 117 167 88 167 52 c 0
EndSplineSet
EndChar

StartChar: slash
Encoding: 47 47 134
Width: 377
GlyphClass: 1
Flags: W
HStem: 0 21G<15 109.784> 648 20G<267.216 362>
LayerCount: 2
Fore
SplineSet
15 0 m 1
 275 668 l 1
 362 668 l 1
 102 0 l 1
 15 0 l 1
EndSplineSet
EndChar

StartChar: braceleft
Encoding: 123 123 135
Width: 319
GlyphClass: 1
Flags: W
HStem: -161 71<197.835 285> 220 67<38 93.8752> 597 71<197.501 285>
VStem: 108 84<-84.9349 206.605 301.138 591.935>
CounterMasks: 1 e0
LayerCount: 2
Fore
SplineSet
192 -26 m 2
 192 -79 201 -90 243 -90 c 2
 285 -90 l 1
 285 -161 l 1
 242 -161 l 2
 136 -161 108 -133 108 -25 c 2
 108 125 l 2
 108 197 91 220 38 220 c 1
 38 287 l 1
 91 287 108 310 108 382 c 2
 108 532 l 2
 108 640 135 668 242 668 c 2
 285 668 l 1
 285 597 l 1
 243 597 l 2
 201 597 192 585 192 533 c 2
 192 380 l 2
 192 306 169 270 113 254 c 1
 113 253 l 1
 169 238 192 202 192 127 c 2
 192 -26 l 2
EndSplineSet
EndChar

StartChar: bar
Encoding: 124 124 136
Width: 233
GlyphClass: 1
Flags: W
HStem: -161 21G<76 157> 648 20G<76 157>
VStem: 76 81<-161 668>
LayerCount: 2
Fore
SplineSet
76 -161 m 1
 76 668 l 1
 157 668 l 1
 157 -161 l 1
 76 -161 l 1
EndSplineSet
EndChar

StartChar: braceright
Encoding: 125 125 137
Width: 319
GlyphClass: 1
Flags: W
HStem: -161 71<34 121.165> 220 67<226.5 281> 597 71<34 121.499>
VStem: 127 84<-84.9349 205.459 301.541 591.935>
CounterMasks: 1 e0
LayerCount: 2
Fore
SplineSet
211 -25 m 2
 211 -133 183 -161 77 -161 c 2
 34 -161 l 1
 34 -90 l 1
 76 -90 l 2
 118 -90 127 -79 127 -26 c 2
 127 127 l 2
 127 201 150 238 206 253 c 1
 206 254 l 1
 150 270 127 306 127 380 c 2
 127 533 l 2
 127 585 118 597 76 597 c 2
 34 597 l 1
 34 668 l 1
 77 668 l 2
 184 668 211 640 211 532 c 2
 211 382 l 2
 211 311 229 287 281 287 c 1
 281 220 l 1
 229 220 211 196 211 125 c 2
 211 -25 l 2
EndSplineSet
EndChar

StartChar: asciitilde
Encoding: 126 126 138
Width: 555
GlyphClass: 1
Flags: W
HStem: 195 73<291.395 427.612> 249 74<127.998 263.634>
LayerCount: 2
Fore
SplineSet
515 297 m 1x80
 500 234 448 195 379 195 c 0x80
 304 195 254 249 179 249 c 0
 144 249 121 231 115 199 c 1
 40 221 l 1
 55 285 107 323 177 323 c 0x40
 254 323 301 268 378 268 c 0
 411 268 435 287 441 319 c 1
 515 297 l 1x80
EndSplineSet
EndChar

StartChar: exclamdown
Encoding: 286 161 139
Width: 281
GlyphClass: 1
Flags: W
HStem: -161 21G<96 185> 390 129<92.7473 188.15>
VStem: 76 129<406.747 502.15> 96 89<-161 127.667>
LayerCount: 2
Fore
SplineSet
96 -161 m 1xd0
 96 11 l 1
 114 311 l 1
 167 311 l 1
 185 11 l 1
 185 -161 l 1
 96 -161 l 1xd0
EndSplineSet
Refer: 133 46 S 1 0 0 1 38 402 2
EndChar

StartChar: cent
Encoding: 287 162 140
Width: 500
GlyphClass: 1
Flags: W
HStem: -10 77<193.095 236 286 354.673> 425 76<193.507 236 286 355.03>
VStem: 38 91<142.757 352.699> 236 50<-87 -10 67 425 504 571>
LayerCount: 2
Fore
SplineSet
236 425 m 1
 169 407 129 342 129 248 c 0
 129 153 168 87 236 67 c 1
 236 425 l 1
467 99 m 1
 432 36 364 -6 286 -12 c 1
 286 -87 l 1
 236 -87 l 1
 236 -10 l 1
 115 6 38 106 38 247 c 0
 38 383 116 483 236 501 c 1
 236 571 l 1
 286 571 l 1
 286 504 l 1
 364 502 430 461 465 393 c 1
 388 365 l 1
 367 403 333 425 286 430 c 1
 286 62 l 1
 331 67 368 91 390 127 c 1
 467 99 l 1
EndSplineSet
EndChar

StartChar: sterling
Encoding: 163 163 141
Width: 586
GlyphClass: 1
Flags: W
HStem: -12 78<328.408 522.912> 26 76<195.302 340.557> 318 51<70 156 272 453> 609 71<244.966 413.175>
VStem: 112 89<424.853 569.469> 202 88<160.678 315.281>
LayerCount: 2
Fore
SplineSet
235 26 m 0x7c
 194 26 150 13 101 -12 c 1xbc
 73 55 l 1
 153 89 202 154 202 226 c 0
 202 255 194 287 179 318 c 1
 70 318 l 1
 70 369 l 1
 156 369 l 1
 121 444 112 471 112 511 c 0
 112 615 197 680 333 680 c 0
 442 680 520 629 546 541 c 1
 463 516 l 1
 448 577 402 609 329 609 c 0
 249 609 201 571 201 508 c 0
 201 472 206 456 249 369 c 1
 453 369 l 1
 453 318 l 1
 272 318 l 1
 284 291 290 265 290 238 c 0
 290 178 257 127 194 90 c 1
 215 98 233 102 254 102 c 0x7c
 327 102 349 66 422 66 c 0
 456 66 491 74 531 91 c 1
 556 18 l 1
 510 -2 468 -12 431 -12 c 0xbc
 347 -12 319 26 235 26 c 0x7c
EndSplineSet
EndChar

StartChar: currency
Encoding: 288 164 142
Width: 580
GlyphClass: 1
Flags: W
HStem: 103 75<215.528 364.383> 463 76<216.407 364.564>
VStem: 72 76<246.491 394.605> 432 76<246.219 395.564>
LayerCount: 2
Fore
SplineSet
148 321 m 0
 148 242 212 178 290 178 c 0
 369 178 432 242 432 321 c 0
 432 400 369 463 290 463 c 0
 212 463 148 399 148 321 c 0
290 103 m 0
 241 103 194 119 155 149 c 1
 89 84 l 1
 53 119 l 1
 119 185 l 1
 88 227 72 272 72 321 c 0
 72 370 89 418 119 456 c 1
 53 522 l 1
 89 558 l 1
 155 492 l 1
 194 523 240 539 290 539 c 0
 342 539 388 523 425 492 c 1
 491 558 l 1
 527 522 l 1
 461 456 l 1
 492 419 508 373 508 321 c 0
 508 270 491 222 461 185 c 1
 527 119 l 1
 491 84 l 1
 425 149 l 1
 388 119 341 103 290 103 c 0
EndSplineSet
EndChar

StartChar: yen
Encoding: 289 165 143
Width: 595
GlyphClass: 1
Flags: W
HStem: 0 21G<251 345> 86 51<101 251 345 494> 223 51<101 242 353 494> 648 20G<10 124.455 470.607 585>
VStem: 251 94<0 86 137 223>
LayerCount: 2
Fore
SplineSet
251 0 m 1
 251 86 l 1
 101 86 l 1
 101 137 l 1
 251 137 l 1
 251 223 l 1
 101 223 l 1
 101 274 l 1
 242 274 l 1
 10 668 l 1
 113 668 l 1
 298 345 l 1
 482 668 l 1
 585 668 l 1
 353 274 l 1
 494 274 l 1
 494 223 l 1
 345 223 l 1
 345 137 l 1
 494 137 l 1
 494 86 l 1
 345 86 l 1
 345 0 l 1
 251 0 l 1
EndSplineSet
EndChar

StartChar: brokenbar
Encoding: 166 166 144
Width: 233
GlyphClass: 1
Flags: W
HStem: -161 21G<76 157> 648 20G<76 157>
VStem: 76 81<-161 149 358 668>
LayerCount: 2
Fore
SplineSet
76 -161 m 1
 76 149 l 1
 157 149 l 1
 157 -161 l 1
 76 -161 l 1
76 358 m 1
 76 668 l 1
 157 668 l 1
 157 358 l 1
 76 358 l 1
EndSplineSet
EndChar

StartChar: section
Encoding: 167 167 145
Width: 530
GlyphClass: 1
Flags: W
HStem: -173 70<188.446 339.682> 610 70<179.007 329.331>
VStem: 31 84<239.655 341.828> 76 86<506.998 591.396> 363 86<-81.0283 16.6925> 416 84<176.426 280.432>
LayerCount: 2
Fore
SplineSet
218 387 m 1xe4
 156 369 115 332 115 294 c 0
 115 254 135 231 201 195 c 2
 323 129 l 1
 383 154 416 188 416 226 c 0
 416 263 393 293 346 318 c 2
 218 387 l 1xe4
449 -23 m 0xc8
 449 -114 375 -173 261 -173 c 0
 162 -173 91 -126 67 -44 c 1
 150 -20 l 1
 164 -75 201 -103 263 -103 c 0
 325 -103 363 -78 363 -36 c 0
 363 6 331 39 254 77 c 2
 160 124 l 1
 74 168 31 224 31 289 c 0xe8
 31 349 76 399 151 424 c 1
 100 459 76 500 76 550 c 0
 76 626 151 680 257 680 c 0
 345 680 411 642 439 574 c 1
 358 550 l 1
 343 589 307 610 253 610 c 0
 196 610 162 588 162 552 c 0
 162 520 192 490 257 456 c 2
 371 398 l 2
 458 353 500 302 500 242 c 0xd4
 500 178 458 123 385 91 c 1
 429 57 449 22 449 -23 c 0xc8
EndSplineSet
EndChar

StartChar: dieresis
Encoding: 168 168 146
Width: 425
GlyphClass: 1
Flags: W
HStem: 590 107<63.676 149.846 276.079 360.846>
VStem: 53 108<600.676 685.921> 265 107<600.676 686.685>
LayerCount: 2
Fore
SplineSet
372 644 m 0
 372 614 348 590 318 590 c 0
 289 590 265 614 265 644 c 0
 265 674 288 697 318 697 c 0
 349 697 372 674 372 644 c 0
161 644 m 0
 161 614 137 590 107 590 c 0
 77 590 53 614 53 644 c 0
 53 673 77 697 107 697 c 0
 138 697 161 674 161 644 c 0
EndSplineSet
EndChar

StartChar: copyright
Encoding: 169 169 147
Width: 798
GlyphClass: 1
Flags: W
HStem: -12 62<295.267 502.733> 150 59<342.468 465.341> 473 58<341.221 460.654> 618 62<295.267 502.733>
VStem: 53 62<230.267 437.733> 227 76<251.238 430.968> 683 62<230.267 437.733>
LayerCount: 2
Fore
SplineSet
550 230 m 1
 521 178 468 150 401 150 c 0
 291 150 227 220 227 342 c 0
 227 460 293 531 403 531 c 0
 469 531 520 502 548 449 c 1
 481 424 l 1
 464 457 437 473 401 473 c 0
 339 473 303 425 303 342 c 0
 303 258 339 209 401 209 c 0
 440 209 469 225 484 254 c 1
 550 230 l 1
115 334 m 0
 115 176 241 50 399 50 c 0
 557 50 683 176 683 334 c 0
 683 492 557 618 399 618 c 0
 241 618 115 492 115 334 c 0
745 334 m 0
 745 143 590 -12 399 -12 c 0
 208 -12 53 143 53 334 c 0
 53 525 208 680 399 680 c 0
 590 680 745 525 745 334 c 0
EndSplineSet
EndChar

StartChar: questiondown
Encoding: 290 191 148
Width: 520
GlyphClass: 1
Flags: W
HStem: -174 70<180.95 342.631> 390 129<244.85 340.253>
VStem: 49 88<-62.5192 63.0129> 228 129<406.85 502.253> 251 86<221.429 316> 397 82<-48.1766 -16.0366>
LayerCount: 2
Fore
SplineSet
479 -18 m 1xec
 459 -114 374 -174 258 -174 c 0
 133 -174 49 -108 49 -10 c 0
 49 61 91 124 174 178 c 0
 239 221 251 237 251 282 c 2
 251 316 l 1
 337 316 l 1
 337 279 l 2
 337 211 314 179 223 119 c 0
 164 83 137 45 137 -2 c 0
 137 -64 186 -104 262 -104 c 0
 336 -104 387 -63 397 5 c 1
 479 -18 l 1xec
357 455 m 0xf4
 357 419 328 390 293 390 c 0
 257 390 228 419 228 455 c 0
 228 490 257 519 293 519 c 0
 328 519 357 490 357 455 c 0xf4
EndSplineSet
EndChar

StartChar: germandbls
Encoding: 291 223 149
Width: 597
GlyphClass: 1
Flags: W
HStem: -12 74<302 407.08> 0 21G<76 160> 330 76<279 384.572> 611 69<217.388 392.098>
VStem: 76 84<0 553.859> 435 85<451.743 570.958> 469 90<118.353 271.966>
LayerCount: 2
Fore
SplineSet
520 521 m 0x7c
 520 452 487 404 420 376 c 1
 512 353 559 292 559 197 c 0
 559 65 469 -12 316 -12 c 2
 302 -12 l 1
 279 65 l 1
 293 63 306 62 318 62 c 0
 414 62 469 110 469 195 c 0xba
 469 284 409 330 291 330 c 2
 279 330 l 1
 279 406 l 1
 285 406 l 2
 378 406 435 446 435 511 c 0
 435 571 385 611 311 611 c 0
 204 611 160 565 160 453 c 2
 160 0 l 1
 76 0 l 1
 76 453 l 2
 76 608 151 680 312 680 c 0
 436 680 520 616 520 521 c 0x7c
EndSplineSet
EndChar

StartChar: AE
Encoding: 292 198 150
Width: 998
GlyphClass: 1
Flags: W
HStem: 0 81<600 960> 145 81<279 506> 303 81<600 866> 587 81<600 960>
VStem: 506 94<81 145 226 303 384 546>
AnchorPoint: "Anchor-0" 659 668 basechar 0
LayerCount: 2
Fore
SplineSet
279 226 m 1
 506 226 l 1
 506 546 l 1
 279 226 l 1
10 0 m 1
 496 668 l 1
 960 668 l 1
 960 587 l 1
 600 587 l 1
 600 384 l 1
 866 384 l 1
 866 303 l 1
 600 303 l 1
 600 81 l 1
 960 81 l 1
 960 0 l 1
 506 0 l 1
 506 145 l 1
 223 145 l 1
 119 0 l 1
 10 0 l 1
EndSplineSet
EndChar

StartChar: florin
Encoding: 293 402 151
Width: 321
GlyphClass: 1
Flags: W
HStem: -173 80<25.7247 97.3535> 429 67<25 109 193 296> 635 71<198.326 296>
VStem: 109 84<-79.7726 429 496 629.935>
LayerCount: 2
Fore
SplineSet
193 -27 m 2
 193 -123 154 -173 80 -173 c 0
 63 -173 46 -170 25 -165 c 1
 25 -90 l 1
 35 -92 44 -93 51 -93 c 0
 90 -93 109 -70 109 -24 c 2
 109 429 l 1
 25 429 l 1
 25 496 l 1
 109 496 l 1
 109 570 l 2
 109 678 137 706 242 706 c 2
 296 706 l 1
 296 635 l 1
 244 635 l 2
 203 635 193 622 193 571 c 2
 193 496 l 1
 296 496 l 1
 296 429 l 1
 193 429 l 1
 193 -27 l 2
EndSplineSet
EndChar

StartChar: integral
Encoding: 294 8747 152
Width: 458
GlyphClass: 1
Flags: W
HStem: -173 112<68.6426 142.186> 569 112<315.814 389.357>
VStem: 53 99<-126.451 -69.4902> 189 84<-92.5647 611.515> 305 100<577.438 634.766>
LayerCount: 2
Fore
SplineSet
273 44 m 0
 273 -101 228 -173 138 -173 c 0
 83 -173 53 -151 53 -111 c 0
 53 -83 75 -61 103 -61 c 0
 131 -61 152 -83 152 -112 c 2
 152 -120 l 2
 152 -122 154 -115 150 -127 c 1
 177 -123 189 -93 189 -31 c 0
 189 185 185 248 185 464 c 0
 185 608 230 681 320 681 c 0
 375 681 405 659 405 619 c 0
 405 591 383 569 355 569 c 0
 327 569 305 591 305 619 c 0
 305 625 306 630 308 635 c 1
 281 631 269 601 269 538 c 0
 269 322 273 260 273 44 c 0
EndSplineSet
EndChar

StartChar: approxequal
Encoding: 295 8776 153
Width: 581
GlyphClass: 1
Flags: W
HStem: 97 73<304.395 440.612> 151 74<140.998 276.634> 283 73<306.558 440.636> 337 74<141.771 277.442>
LayerCount: 2
Fore
SplineSet
192 337 m 0x10
 157 337 134 319 128 287 c 1
 53 309 l 1
 70 373 121 411 192 411 c 0x10
 269 411 315 356 392 356 c 0
 424 356 448 375 454 407 c 1
 528 385 l 1
 513 322 461 283 392 283 c 0x20
 317 283 267 337 192 337 c 0x10
EndSplineSet
Refer: 138 126 N 1 0 0 1 13 -98 2
EndChar

StartChar: notequal
Encoding: 296 8800 154
Width: 602
GlyphClass: 1
Flags: W
HStem: 0 21G<77 191.05> 121 79<53 162 317 549> 307 80<53 292 448 549> 476 20G<410.872 524>
LayerCount: 2
Fore
SplineSet
77 0 m 1
 162 121 l 1
 53 121 l 1
 53 200 l 1
 218 200 l 1
 292 307 l 1
 53 307 l 1
 53 387 l 1
 348 387 l 1
 425 496 l 1
 524 496 l 1
 448 387 l 1
 549 387 l 1
 549 307 l 1
 392 307 l 1
 317 200 l 1
 549 200 l 1
 549 121 l 1
 262 121 l 1
 177 0 l 1
 77 0 l 1
EndSplineSet
EndChar

StartChar: lessequal
Encoding: 297 8804 155
Width: 579
GlyphClass: 1
Flags: W
HStem: 0 80<53 526> 100 90<436 526> 414 91<435 526>
VStem: 53 105<214.5 389.5>
LayerCount: 2
Fore
SplineSet
53 0 m 1
 53 80 l 1
 526 80 l 1
 526 0 l 1
 53 0 l 1
526 100 m 1
 53 267 l 1
 53 337 l 1
 526 505 l 1
 526 414 l 1
 158 302 l 1
 526 190 l 1
 526 100 l 1
EndSplineSet
EndChar

StartChar: greaterequal
Encoding: 298 8805 156
Width: 579
GlyphClass: 1
Flags: W
HStem: 0 80<53 526> 100 90<53 143> 414 91<53 144>
VStem: 421 105<214.5 389.5>
LayerCount: 2
Fore
SplineSet
53 0 m 1
 53 80 l 1
 526 80 l 1
 526 0 l 1
 53 0 l 1
53 100 m 1
 53 190 l 1
 421 302 l 1
 53 414 l 1
 53 505 l 1
 526 337 l 1
 526 267 l 1
 53 100 l 1
EndSplineSet
EndChar

StartChar: lozenge
Encoding: 299 9674 157
Width: 561
GlyphClass: 1
Flags: W
VStem: 53 87<271.5 358.5> 421 87<271.5 358.5>
LayerCount: 2
Fore
SplineSet
281 76 m 1
 421 315 l 1
 281 554 l 1
 140 315 l 1
 281 76 l 1
281 -73 m 1
 53 315 l 1
 281 703 l 1
 508 315 l 1
 281 -73 l 1
EndSplineSet
EndChar

StartChar: summation
Encoding: 300 8721 158
Width: 587
GlyphClass: 1
Flags: W
HStem: -161 81<154 534> 587 81<154 534>
LayerCount: 2
Fore
SplineSet
53 -161 m 1
 53 -80 l 1
 299 254 l 1
 53 587 l 1
 53 668 l 1
 534 668 l 1
 534 587 l 1
 154 587 l 1
 399 254 l 1
 154 -80 l 1
 534 -80 l 1
 534 -161 l 1
 53 -161 l 1
EndSplineSet
EndChar

StartChar: minus
Encoding: 301 8722 159
Width: 602
GlyphClass: 1
Flags: W
HStem: 209 79<53 549>
LayerCount: 2
Fore
SplineSet
53 209 m 1
 53 288 l 1
 549 288 l 1
 549 209 l 1
 53 209 l 1
EndSplineSet
EndChar

StartChar: uni2215
Encoding: 302 8725 160
Width: 598
GlyphClass: 1
Flags: W
HStem: 0 21G<15 128.991> 649 20G<469.009 583>
LayerCount: 2
Fore
SplineSet
15 0 m 1
 483 669 l 1
 583 669 l 1
 115 0 l 1
 15 0 l 1
EndSplineSet
EndChar

StartChar: uni2219
Encoding: 303 8729 161
Width: 235
GlyphClass: 1
Flags: W
HStem: 191 129<69.8503 165.253>
VStem: 53 129<208.2 303.15>
LayerCount: 2
Fore
SplineSet
182 256 m 0
 182 221 153 191 118 191 c 0
 81 191 53 219 53 255 c 0
 53 291 82 320 118 320 c 0
 153 320 182 291 182 256 c 0
EndSplineSet
EndChar

StartChar: radical
Encoding: 304 8730 162
Width: 582
GlyphClass: 1
Flags: W
HStem: -161 21G<271.157 381.639> 145 80<53 159> 649 20G<437.516 529>
VStem: 441 88<581 669>
LayerCount: 2
Fore
SplineSet
279 -161 m 1
 159 145 l 1
 53 145 l 1
 53 225 l 1
 215 225 l 1
 318 -37 l 1
 441 669 l 1
 529 669 l 1
 378 -161 l 1
 279 -161 l 1
EndSplineSet
EndChar

StartChar: infinity
Encoding: 305 8734 163
Width: 773
GlyphClass: 1
Flags: W
HStem: 104 76<158.496 283.162 491.085 614.504> 330 76<157.934 284.248 488.66 615.066>
VStem: 53 81<204.699 306.745> 639 81<204.699 306.745>
LayerCount: 2
Fore
SplineSet
435 256 m 1
 480 201 513 180 556 180 c 0
 603 180 639 213 639 256 c 0
 639 300 604 330 553 330 c 0
 512 330 479 309 435 256 c 1
134 256 m 0
 134 213 170 180 217 180 c 0
 261 180 296 202 339 256 c 1
 293 310 261 330 220 330 c 0
 169 330 134 300 134 256 c 0
560 104 m 0
 499 104 446 133 387 198 c 1
 328 133 275 104 213 104 c 0
 118 104 53 166 53 256 c 0
 53 345 121 406 219 406 c 0
 279 406 331 378 387 317 c 1
 442 378 494 406 554 406 c 0
 652 406 720 345 720 256 c 0
 720 166 655 104 560 104 c 0
EndSplineSet
EndChar

StartChar: uni03A9
Encoding: 217 937 164
Width: 693
GlyphClass: 1
Flags: W
HStem: 0 173<237.938 289 404 455.062> 0 81<53 204 489 640> 606 74<251.205 441.163>
VStem: 53 73<289.472 480.41> 204 85<81 143.21> 404 85<81 143.193> 567 73<289.25 480.217>
LayerCount: 2
Fore
SplineSet
126 385 m 0xbe
 126 285 192 200 289 173 c 1
 289 0 l 1xbe
 53 0 l 1
 53 81 l 1
 204 81 l 1
 204 130 l 1
 110 183 53 280 53 385 c 0
 53 549 183 680 346 680 c 0
 509 680 640 548 640 385 c 0
 640 279 583 183 489 130 c 1
 489 81 l 1
 640 81 l 1
 640 0 l 1x7e
 404 0 l 1
 404 173 l 1
 501 200 567 285 567 385 c 0
 567 507 468 606 346 606 c 0
 225 606 126 507 126 385 c 0xbe
EndSplineSet
EndChar

StartChar: estimated
Encoding: 306 8494 165
Width: 622
GlyphClass: 1
Flags: W
HStem: -12 32<226.742 393.485> 248 31<159 463> 472 32<229.301 393.473>
VStem: 53 106<149.578 248 279 351.281> 463 106<279 347.906>
LayerCount: 2
Fore
SplineSet
311 472 m 0
 254 472 200 451 159 413 c 1
 159 279 l 1
 463 279 l 1
 463 413 l 1
 422 451 368 472 311 472 c 0
514 87 m 1
 465 24 391 -12 311 -12 c 0
 164 -12 53 103 53 256 c 0
 53 390 172 504 311 504 c 0
 454 504 569 390 569 248 c 1
 159 248 l 1
 159 78 l 1
 201 40 254 20 311 20 c 0
 376 20 437 48 481 97 c 1
 514 87 l 1
EndSplineSet
EndChar

StartChar: partialdiff
Encoding: 307 8706 166
Width: 582
GlyphClass: 1
Flags: W
HStem: -12 73<216.877 364.088> 430 74<216.877 364.645> 598 82<142 308.207>
VStem: 53 89<146.846 345.017> 439 91<144.989 344.822>
LayerCount: 2
Fore
SplineSet
142 246 m 0
 142 137 203 61 291 61 c 0
 379 61 439 136 439 246 c 0
 439 356 379 430 291 430 c 0
 203 430 142 355 142 246 c 0
530 277 m 0
 530 92 444 -12 291 -12 c 0
 149 -12 53 92 53 246 c 0
 53 400 149 504 291 504 c 0
 345 504 396 483 423 450 c 1
 390 554 314 598 166 598 c 2
 142 598 l 1
 142 680 l 1
 416 680 530 562 530 277 c 0
EndSplineSet
EndChar

StartChar: uni0394
Encoding: 196 916 167
Width: 673
GlyphClass: 1
Flags: W
HStem: 0 78<135 537> 660 20G<326.412 345.618>
LayerCount: 2
Fore
SplineSet
135 78 m 1
 537 78 l 1
 336 498 l 1
 135 78 l 1
10 0 m 1
 336 680 l 1
 663 0 l 1
 10 0 l 1
EndSplineSet
EndChar

StartChar: product
Encoding: 308 8719 168
Width: 585
GlyphClass: 1
Flags: W
HStem: -161 21G<53 134 450 532> 587 81<134 450>
VStem: 53 81<-161 587> 450 82<-161 587>
LayerCount: 2
Fore
SplineSet
53 -161 m 1
 53 668 l 1
 532 668 l 1
 532 -161 l 1
 450 -161 l 1
 450 587 l 1
 134 587 l 1
 134 -161 l 1
 53 -161 l 1
EndSplineSet
EndChar

StartChar: pi
Encoding: 240 960 169
Width: 591
GlyphClass: 1
Flags: W
HStem: 0 74<471.381 551> 414 82<20 104 185 383 467 551>
VStem: 104 81<0 414> 383 84<78.5552 414>
LayerCount: 2
Fore
SplineSet
500 0 m 2
 405 0 383 23 383 124 c 2
 383 414 l 1
 185 414 l 1
 185 0 l 1
 104 0 l 1
 104 414 l 1
 20 414 l 1
 20 496 l 1
 551 496 l 1
 551 414 l 1
 467 414 l 1
 467 139 l 2
 467 83 474 74 518 74 c 2
 551 74 l 1
 551 0 l 1
 500 0 l 2
EndSplineSet
EndChar

StartChar: hungarumlaut
Encoding: 309 733 170
Width: 414
GlyphClass: 1
Flags: W
HStem: 572 136<199 199>
VStem: 53 308
LayerCount: 2
Fore
SplineSet
323 708 m 0
 343 708 361 690 361 670 c 0
 361 658 358 650 350 643 c 2
 269 572 l 1
 199 572 l 1
 295 695 l 2
 302 704 311 708 323 708 c 0
177 708 m 0
 199 708 215 692 215 670 c 0
 215 658 212 650 204 643 c 2
 123 572 l 1
 53 572 l 1
 149 695 l 2
 156 704 165 708 177 708 c 0
EndSplineSet
EndChar

StartChar: tilde
Encoding: 310 732 171
Width: 435
GlyphClass: 1
Flags: W
HStem: 575 63<222.547 316.7> 618 63<123.773 220.801>
VStem: 53 65<577 611.477>
LayerCount: 2
Fore
SplineSet
382 649 m 0xa0
 382 613 332 575 285 575 c 0xa0
 241 575 204 618 160 618 c 0
 135 618 121 604 118 577 c 1
 53 577 l 1
 64 644 102 681 159 681 c 0x60
 215 681 227 638 283 638 c 0
 322 638 312 680 351 680 c 0
 369 680 382 667 382 649 c 0xa0
EndSplineSet
EndChar

StartChar: endash
Encoding: 311 8211 172
Width: 480
GlyphClass: 1
InSpiro: 1
Flags: W
HStem: 208 79<41 439>
LayerCount: 2
Fore
SplineSet
41 208 m 1
 41 287 l 1
 439 287 l 1
 439 208 l 1
 41 208 l 1
EndSplineSet
EndChar

StartChar: emdash
Encoding: 312 8212 173
Width: 800
GlyphClass: 1
Flags: W
HStem: 208 79<41 759>
LayerCount: 2
Fore
SplineSet
41 208 m 1
 41 287 l 1
 759 287 l 1
 759 208 l 1
 41 208 l 1
EndSplineSet
EndChar

StartChar: trademark
Encoding: 313 8482 174
Width: 848
GlyphClass: 1
Flags: W
HStem: 292 92<512 676> 608 60<53 171 238 356>
VStem: 171 67<292 608> 393 67<292 571> 728 67<292 571>
LayerCount: 2
Fore
SplineSet
171 292 m 1
 171 608 l 1
 53 608 l 1
 53 668 l 1
 356 668 l 1
 356 608 l 1
 238 608 l 1
 238 292 l 1
 171 292 l 1
393 292 m 1
 393 668 l 1
 501 668 l 1
 594 384 l 1
 687 668 l 1
 795 668 l 1
 795 292 l 1
 728 292 l 1
 728 571 l 1
 630 292 l 1
 558 292 l 1
 460 571 l 1
 460 292 l 1
 393 292 l 1
EndSplineSet
EndChar

StartChar: uni2113
Encoding: 314 8467 175
Width: 450
GlyphClass: 1
Flags: W
HStem: -12 73<221.229 336.174> 610 70<217.234 299.732>
VStem: 53 151<138 227> 119 85<79.9688 188 344 598.969> 312 82<441.157 598.689>
LayerCount: 2
Fore
SplineSet
259 610 m 0xd8
 219 610 204 585 204 518 c 2
 204 344 l 1
 276 394 312 458 312 535 c 0
 312 584 294 610 259 610 c 0xd8
397 42 m 1
 360 8 310 -12 261 -12 c 0
 161 -12 119 38 119 156 c 2
 119 188 l 1xd8
 53 138 l 1
 53 227 l 1xe8
 119 278 l 1
 119 507 l 2
 119 624 166 680 264 680 c 0
 344 680 394 626 394 538 c 0
 394 432 342 354 204 251 c 1xd8
 204 151 l 2xe8
 204 89 225 61 271 61 c 0
 300 61 328 73 360 100 c 1
 397 42 l 1
EndSplineSet
EndChar

StartChar: Lslash
Encoding: 315 321 176
Width: 573
GlyphClass: 1
Flags: W
HStem: 0 81<204 563> 485 20G<350.667 384> 649 20G<110 204>
VStem: 110 94<81 270 397 669>
LayerCount: 2
Fore
SplineSet
110 0 m 1
 110 270 l 1
 20 216 l 1
 20 287 l 1
 110 340 l 1
 110 669 l 1
 204 669 l 1
 204 397 l 1
 384 505 l 1
 384 434 l 1
 204 326 l 1
 204 81 l 1
 563 81 l 1
 563 0 l 1
 110 0 l 1
EndSplineSet
EndChar

StartChar: lslash
Encoding: 316 322 177
Width: 237
GlyphClass: 1
Flags: W
HStem: 0 74<156.399 222> 648 20G<68 152>
VStem: 68 154<25.8849 74 365 394> 68 84<78.5552 273 394 668>
AnchorPoint: "Anchor-1" 145 0 basechar 0
AnchorPoint: "Anchor-0" 117 668 basechar 0
LayerCount: 2
Fore
SplineSet
152 139 m 2xd0
 152 84 160 74 204 74 c 2
 222 74 l 1
 222 0 l 1xe0
 185 0 l 2
 90 0 68 23 68 124 c 2
 68 273 l 1
 15 242 l 1
 15 312 l 1
 68 344 l 1
 68 668 l 1
 152 668 l 1
 152 394 l 1xd0
 222 436 l 1
 222 365 l 1xe0
 152 323 l 1
 152 139 l 2xd0
EndSplineSet
EndChar

StartChar: oslash
Encoding: 317 248 178
Width: 552
GlyphClass: 1
Flags: W
HStem: -12 74<202.885 350.007> 430 74<201.877 350.751>
VStem: 38 89<147.453 345.017> 424 90<144.886 348.888>
AnchorPoint: "Anchor-0" 276 496 basechar 0
LayerCount: 2
Fore
SplineSet
178 103 m 1
 205 76 239 62 276 62 c 0
 364 62 424 136 424 246 c 0
 424 291 415 328 397 359 c 1
 178 103 l 1
276 430 m 0
 188 430 127 355 127 246 c 0
 127 208 134 174 148 146 c 1
 364 398 l 1
 341 419 310 430 276 430 c 0
514 246 m 0
 514 92 418 -12 276 -12 c 0
 218 -12 165 6 125 40 c 1
 83 -9 l 1
 45 24 l 1
 89 77 l 1
 55 121 38 179 38 246 c 0
 38 400 134 504 276 504 c 0
 329 504 377 489 416 460 c 1
 457 507 l 1
 495 474 l 1
 454 425 l 1
 494 380 514 320 514 246 c 0
EndSplineSet
EndChar

StartChar: Oslash
Encoding: 318 216 179
Width: 727
GlyphClass: 1
Flags: W
HStem: -12 79<268.734 455.695> 599 81<270.394 457.376> 653 20G<599.175 640.375>
VStem: 50 96<205.97 459.582> 581 96<206.961 459.005>
AnchorPoint: "Anchor-0" 364 668 basechar 0
LayerCount: 2
Fore
SplineSet
363 67 m 0x98
 494 67 581 173 581 333 c 0
 581 399 566 458 538 503 c 1
 217 127 l 1
 256 87 304 67 363 67 c 0x98
363 599 m 0xd8
 231 599 146 494 146 333 c 0
 146 266 159 211 186 169 c 1
 506 543 l 1
 466 581 419 599 363 599 c 0xd8
677 333 m 0
 677 126 551 -12 363 -12 c 0
 284 -12 214 13 160 60 c 1
 103 -6 l 1
 65 27 l 1
 125 97 l 1
 76 158 50 240 50 333 c 0
 50 541 176 680 363 680 c 0xd8
 442 680 510 656 563 610 c 1
 616 673 l 1xb8
 655 641 l 1
 599 574 l 1
 650 512 677 429 677 333 c 0
EndSplineSet
EndChar

StartChar: Thorn
Encoding: 319 222 180
Width: 576
GlyphClass: 1
Flags: W
HStem: 0 21G<76 160> 163 81<160 407.218> 447 81<160 401.312> 648 20G<76 160>
VStem: 76 84<0 163 244 447 528 668> 441 97<275.639 411.786>
LayerCount: 2
Fore
SplineSet
441 344 m 0
 441 419 402 447 296 447 c 2
 160 447 l 1
 160 244 l 1
 296 244 l 2
 404 244 441 269 441 344 c 0
538 345 m 0
 538 216 465 163 287 163 c 2
 160 163 l 1
 160 0 l 1
 76 0 l 1
 76 668 l 1
 160 668 l 1
 160 528 l 1
 287 528 l 2
 465 528 538 475 538 345 c 0
EndSplineSet
EndChar

StartChar: ae
Encoding: 320 230 181
Width: 874
GlyphClass: 1
Flags: W
HStem: -12 74<536.327 699.877> -12 66<158.371 318.903> 225 67<198.26 373 465 757> 436 68<187.633 335.431 536.393 680.679>
VStem: 38 93<79.4716 178.207> 373 92<292 366.876> 380 83<141.328 225> 757 89<292 362.433>
AnchorPoint: "Anchor-0" 433 496 basechar 0
LayerCount: 2
Fore
SplineSet
131 133 m 0x7b
 131 85 168 54 227 54 c 0
 328 54 380 106 380 209 c 2
 380 225 l 1
 212 225 131 195 131 133 c 0x7b
757 292 m 1
 755 371 693 432 614 432 c 0
 526 432 472 381 465 292 c 1x3d
 757 292 l 1
417 88 m 1
 380 24 305 -12 209 -12 c 0
 108 -12 38 46 38 131 c 0
 38 236 154 292 373 292 c 1
 373 319 l 2x7d
 373 396 335 436 261 436 c 0
 202 436 162 408 151 359 c 1
 70 383 l 1
 96 456 171 504 260 504 c 0
 346 504 404 477 433 424 c 1
 478 476 542 504 614 504 c 0
 748 504 846 398 846 251 c 0
 846 238 846 232 845 225 c 1
 463 225 l 1
 468 125 527 62 617 62 c 0
 666 62 706 79 733 111 c 1
 814 87 l 1
 773 24 702 -12 617 -12 c 0xbb
 529 -12 459 23 417 88 c 1
EndSplineSet
EndChar

StartChar: eth
Encoding: 321 240 182
Width: 567
GlyphClass: 1
Flags: W
HStem: -12 71<195.175 350.351> 371 74<196.26 352.418> 602 77<175 302.433>
VStem: 38 90<126.7 300.83> 419 98<149.951 382.464>
LayerCount: 2
Fore
SplineSet
128 215 m 0
 128 121 186 59 273 59 c 0
 361 59 419 121 419 215 c 0
 419 309 361 371 273 371 c 0
 186 371 128 309 128 215 c 0
517 303 m 0
 517 97 433 -12 273 -12 c 0
 138 -12 38 85 38 218 c 0
 38 351 128 445 254 445 c 0
 333 445 395 413 430 352 c 1
 425 440 401 504 356 547 c 1
 283 474 l 1
 247 510 l 1
 313 576 l 1
 279 594 236 602 175 602 c 1
 175 679 l 1
 257 679 320 664 371 634 c 1
 417 680 l 1
 453 644 l 1
 413 604 l 1
 479 546 517 436 517 303 c 0
EndSplineSet
EndChar

StartChar: thorn
Encoding: 322 254 183
Width: 566
GlyphClass: 1
Flags: W
HStem: -161 21G<70 154> -12 72<222.049 366.541> 433 72<222.049 365.047> 649 20G<70 154>
VStem: 70 84<-161 75 132.55 359.788 418 669> 434 94<136.169 356.291>
LayerCount: 2
Fore
SplineSet
293 433 m 0
 205 433 152 362 152 246 c 0
 152 130 205 60 293 60 c 0
 381 60 434 130 434 246 c 0
 434 362 381 433 293 433 c 0
315 -12 m 0
 243 -12 188 18 154 75 c 1
 154 -161 l 1
 70 -161 l 1
 70 669 l 1
 154 669 l 1
 154 418 l 1
 188 475 243 505 315 505 c 0
 440 505 528 398 528 246 c 0
 528 95 440 -12 315 -12 c 0
EndSplineSet
EndChar

StartChar: multiply
Encoding: 323 215 184
Width: 528
GlyphClass: 1
Flags: W
HStem: 193 115<206.5 321.5>
LayerCount: 2
Fore
SplineSet
110 39 m 1
 53 97 l 1
 207 250 l 1
 53 404 l 1
 110 462 l 1
 264 308 l 1
 418 462 l 1
 475 404 l 1
 322 250 l 1
 475 97 l 1
 418 39 l 1
 264 193 l 1
 110 39 l 1
EndSplineSet
EndChar

StartChar: divide
Encoding: 324 247 185
Width: 602
GlyphClass: 1
Flags: W
HStem: 14 129<252.85 348.603> 208 81<53 549> 354 129<252.85 348.603>
VStem: 236 129<30.8503 126.253 370.397 466.15>
CounterMasks: 1 e0
LayerCount: 2
Fore
SplineSet
365 79 m 0
 365 42 337 14 301 14 c 0
 265 14 236 43 236 79 c 0
 236 114 265 143 301 143 c 0
 337 143 365 115 365 79 c 0
53 208 m 1
 53 289 l 1
 549 289 l 1
 549 208 l 1
 53 208 l 1
365 418 m 0
 365 382 337 354 301 354 c 0
 264 354 236 382 236 418 c 0
 236 454 265 483 301 483 c 0
 337 483 365 455 365 418 c 0
EndSplineSet
EndChar

StartChar: OE
Encoding: 325 338 186
Width: 1052
GlyphClass: 1
Flags: W
HStem: -12 81<270.609 458.372> 0 81<655 1014> 304 81<655 920> 588 81<655 1014> 602 78<270.217 458.369>
VStem: 50 96<208.418 461.585> 581 74<206.91 304 385 462.607>
LayerCount: 2
Fore
SplineSet
146 335 m 0xae
 146 174 232 69 363 69 c 0
 495 69 581 173 581 334 c 0
 581 497 496 602 363 602 c 0
 231 602 146 497 146 335 c 0xae
581 75 m 1
 525 18 450 -12 363 -12 c 0
 176 -12 50 127 50 335 c 0
 50 542 175 680 363 680 c 0xae
 449 680 525 651 581 597 c 1
 581 669 l 1
 1014 669 l 1
 1014 588 l 1
 655 588 l 1
 655 385 l 1
 920 385 l 1
 920 304 l 1
 655 304 l 1
 655 81 l 1
 1014 81 l 1
 1014 0 l 1
 581 0 l 1x76
 581 75 l 1
EndSplineSet
EndChar

StartChar: oe
Encoding: 326 339 187
Width: 927
GlyphClass: 1
Flags: W
HStem: -12 74<201.877 350.355 588.801 754.512> 225 67<517 809> 431 74<201.877 348.99 580.064 744.745>
VStem: 38 89<146.983 345.651> 424 92<143.77 225 292 347.875> 809 90<292 363.574>
LayerCount: 2
Fore
SplineSet
127 246 m 0
 127 137 188 62 276 62 c 0
 364 62 424 136 424 246 c 0
 424 357 364 431 276 431 c 0
 188 431 127 356 127 246 c 0
809 292 m 1
 807 373 747 433 666 433 c 0
 580 433 524 380 517 292 c 1
 809 292 l 1
470 88 m 1
 428 25 356 -12 276 -12 c 0
 134 -12 38 92 38 246 c 0
 38 401 134 505 276 505 c 0
 357 505 429 468 471 404 c 1
 514 468 585 505 666 505 c 0
 801 505 899 398 899 251 c 0
 899 238 899 232 898 225 c 1
 516 225 l 1
 519 127 580 62 669 62 c 0
 720 62 758 78 785 111 c 1
 866 87 l 1
 824 23 754 -12 669 -12 c 0
 582 -12 512 23 470 88 c 1
EndSplineSet
EndChar

StartChar: Aring
Encoding: 330 197 191
Width: 626
GlyphClass: 2
Flags: W
HStem: 0 21G<10 116.986 509.014 616> 146 81<190 436> 574 104<261 365> 780 58<271.219 355.046>
VStem: 204 57<687.253 769.854> 365 57<687.376 770.06>
AnchorPoint: "Anchor-2" 615 0 basechar 0
AnchorPoint: "Anchor-1" 313 0 basechar 0
AnchorPoint: "Anchor-0" 313 788 basechar 0
LayerCount: 2
Fore
SplineSet
422 729 m 0
 422 693 406 661 377 640 c 1
 616 0 l 1
 516 0 l 1
 465 146 l 1
 161 146 l 1
 110 0 l 1
 10 0 l 1
 250 641 l 1
 221 662 204 695 204 729 c 0
 204 789 254 838 315 838 c 0
 375 838 422 790 422 729 c 0
190 227 m 1
 436 227 l 1
 313 574 l 1
 190 227 l 1
261 729 m 0
 261 700 284 678 313 678 c 0
 342 678 365 700 365 729 c 0
 365 758 342 780 313 780 c 0
 284 780 261 758 261 729 c 0
EndSplineSet
EndChar

StartChar: Ccedilla
Encoding: 341 199 202
Width: 656
GlyphClass: 2
Flags: W
HStem: -181 41<267.401 377.498> -81 40<326.061 381.037> -12 79<365 456.906> 499 21G<516 586.667> 601 79<263.45 453.108>
VStem: 50 96<207.123 462.1> 382 62<-134.133 -82.5443>
AnchorPoint: "Anchor-1" 352 -181 basechar 0
AnchorPoint: "Anchor-0" 353 668 basechar 0
LayerCount: 2
Fore
SplineSet
444 -102 m 0
 444 -148 403 -181 347 -181 c 0
 322 -181 295 -175 259 -161 c 1
 273 -126 l 1
 297 -136 316 -140 331 -140 c 0
 361 -140 382 -126 382 -106 c 0
 382 -90 369 -81 346 -81 c 0
 332 -81 320 -87 306 -87 c 0
 295 -87 287 -78 287 -67 c 0
 287 -64 288 -60 290 -57 c 2
 319 -10 l 1
 153 6 50 138 50 335 c 0
 50 544 173 680 361 680 c 0
 476 680 570 624 614 529 c 1
 532 499 l 1
 500 564 437 601 356 601 c 0
 228 601 146 498 146 335 c 0
 146 172 229 67 359 67 c 0
 440 67 503 103 536 169 c 1
 618 139 l 1
 573 46 482 -8 365 -12 c 1
 345 -45 l 1
 355 -42 364 -41 375 -41 c 0
 416 -41 444 -65 444 -102 c 0
EndSplineSet
EndChar

StartChar: ccedilla
Encoding: 342 231 203
Width: 500
GlyphClass: 2
Flags: W
HStem: -181 41<189.401 299.498> -87 149<223 297.5> -81 40<248.061 303.037> 430 74<200.003 346.018>
VStem: 38 91<142.59 350.666> 304 62<-134.133 -82.5443>
AnchorPoint: "Anchor-1" 274 -181 basechar 0
AnchorPoint: "Anchor-0" 275 496 basechar 0
LayerCount: 2
Fore
SplineSet
366 -102 m 0xbc
 366 -148 325 -181 269 -181 c 0
 244 -181 217 -175 181 -161 c 1
 195 -126 l 1
 219 -136 238 -140 253 -140 c 0
 283 -140 304 -126 304 -106 c 0
 304 -90 291 -81 268 -81 c 0xbc
 254 -81 242 -87 228 -87 c 0
 218 -87 209 -78 209 -67 c 0
 209 -63 210 -60 212 -57 c 2
 241 -11 l 1
 117 2 38 103 38 246 c 0
 38 399 135 504 278 504 c 0
 358 504 428 462 465 392 c 1
 388 364 l 1
 366 405 322 430 272 430 c 0
 185 430 129 359 129 247 c 0
 129 136 186 62 272 62 c 0xdc
 323 62 367 86 390 127 c 1
 467 99 l 1
 430 35 365 -5 288 -11 c 1
 267 -45 l 1
 277 -42 286 -41 297 -41 c 0
 338 -41 366 -65 366 -102 c 0xbc
EndSplineSet
EndChar

StartChar: Eth
Encoding: 387 208 248
AltUni2: 000110.ffffffff.0 000189.ffffffff.0
Width: 712
GlyphClass: 2
Flags: W
HStem: 0 79<209 437.893> 303 80<20 115 209 349> 589 79<209 437.452>
VStem: 115 94<79 303 383 589> 566 96<201.766 467.259>
AnchorPoint: "Anchor-1" 376 0 basechar 0
AnchorPoint: "Anchor-0" 366 668 basechar 0
LayerCount: 2
Fore
SplineSet
566 335 m 0
 566 516 488 589 295 589 c 2
 209 589 l 1
 209 383 l 1
 349 383 l 1
 349 303 l 1
 209 303 l 1
 209 79 l 1
 295 79 l 2
 489 79 566 152 566 335 c 0
662 335 m 0
 662 109 544 0 297 0 c 2
 115 0 l 1
 115 303 l 1
 20 303 l 1
 20 383 l 1
 115 383 l 1
 115 668 l 1
 297 668 l 2
 544 668 662 560 662 335 c 0
EndSplineSet
EndChar

StartChar: one.tf
Encoding: 389 -1 250
Width: 639
GlyphClass: 1
Flags: W
HStem: 0 77<109 287 370 530> 504 67<109 245.12> 648 20G<302 370>
VStem: 287 83<77 504> 314 56<628.468 668>
LayerCount: 2
Fore
SplineSet
109 571 m 1xf0
 231 571 290 599 314 668 c 1
 370 668 l 1xe8
 370 77 l 1
 530 77 l 1
 530 0 l 1
 109 0 l 1
 109 77 l 1
 287 77 l 1
 287 504 l 1
 109 504 l 1
 109 571 l 1xf0
EndSplineSet
Substitution2: "'pnum' Proportional Numbers lookup 13 subtable" one
Substitution2: "'aalt' Access All Alternates lookup 0 subtable" one
EndChar

StartChar: Aogonek
Encoding: 400 260 261
Width: 626
GlyphClass: 2
Flags: W
HStem: -173 58<532.165 614.134> 0 21G<10 116.986> 146 81<190 436> 574 95<261 366>
VStem: 458 70<-109.095 -35.1248>
AnchorPoint: "Anchor-2" 615 0 basechar 0
AnchorPoint: "Anchor-1" 313 0 basechar 0
AnchorPoint: "Anchor-0" 313 668 basechar 0
LayerCount: 2
Fore
SplineSet
190 227 m 1
 436 227 l 1
 313 574 l 1
 190 227 l 1
577 -115 m 0
 588 -115 601 -112 615 -107 c 1
 615 -161 l 1
 592 -169 571 -173 552 -173 c 0
 497 -173 458 -139 458 -91 c 0
 458 -48 490 -12 538 0 c 1
 516 0 l 1
 465 146 l 1
 161 146 l 1
 110 0 l 1
 10 0 l 1
 261 669 l 1
 366 669 l 1
 616 0 l 1
 615 0 l 1
 556 -22 528 -46 528 -75 c 0
 528 -100 546 -115 577 -115 c 0
EndSplineSet
EndChar

StartChar: aogonek
Encoding: 401 261 262
Width: 526
GlyphClass: 2
Flags: W
HStem: -173 58<392.165 474.134> -12 67<156.295 313.231> 239 67<242.344 373> 437 67<186.98 334.955>
VStem: 38 93<79.6865 179.183> 318 70<-109.095 -35.1248> 373 85<304.72 397.748> 380 78<119.971 239>
AnchorPoint: "Anchor-2" 475 0 basechar 0
AnchorPoint: "Anchor-1" 263 0 basechar 0
AnchorPoint: "Anchor-0" 263 496 basechar 0
LayerCount: 2
Fore
SplineSet
131 133 m 0xf9
 131 85 168 55 227 55 c 0
 325 55 380 110 380 208 c 2
 380 239 l 1
 197 220 131 192 131 133 c 0xf9
437 -115 m 0
 448 -115 461 -112 475 -107 c 1
 475 -161 l 1
 452 -169 431 -173 412 -173 c 0
 357 -173 318 -139 318 -91 c 0xfc
 318 -48 350 -12 398 0 c 1
 378 68 l 1
 346 15 289 -12 209 -12 c 0
 108 -12 38 46 38 131 c 0
 38 232 128 279 373 306 c 1
 373 315 l 2xfa
 373 396 336 437 261 437 c 0
 202 437 162 409 151 360 c 1
 70 384 l 1
 96 459 168 504 260 504 c 0
 397 504 458 442 458 303 c 2
 458 187 l 2xf9
 458 115 463 56 475 0 c 1
 416 -22 388 -46 388 -75 c 0xfc
 388 -100 406 -115 437 -115 c 0
EndSplineSet
EndChar

StartChar: Eogonek
Encoding: 406 280 267
Width: 567
GlyphClass: 2
Flags: W
HStem: -173 58<423.165 505.134> 0 81<170 429 459.678 529> 303 81<170 435> 587 81<170 529>
VStem: 76 94<81 303 384 587> 349 70<-109.095 -35.1248>
AnchorPoint: "Anchor-2" 506 0 basechar 0
AnchorPoint: "Anchor-1" 284 0 basechar 0
AnchorPoint: "Anchor-0" 304 668 basechar 0
LayerCount: 2
Fore
SplineSet
468 -115 m 0
 479 -115 492 -112 506 -107 c 1
 506 -161 l 1
 483 -169 462 -173 443 -173 c 0
 388 -173 349 -139 349 -91 c 0
 349 -48 381 -12 429 0 c 1
 76 0 l 1
 76 668 l 1
 529 668 l 1
 529 587 l 1
 170 587 l 1
 170 384 l 1
 435 384 l 1
 435 303 l 1
 170 303 l 1
 170 81 l 1
 529 81 l 1
 529 0 l 1
 506 0 l 1
 447 -22 419 -46 419 -75 c 0
 419 -100 437 -115 468 -115 c 0
EndSplineSet
EndChar

StartChar: eogonek
Encoding: 407 281 268
Width: 539
GlyphClass: 2
Flags: W
HStem: -173 58<281.165 363.134> 225 67<129 421> 432 72<196.487 355.736>
VStem: 38 90<140.869 225 292 357.09> 207 70<-109.095 -34.9028> 421 90<292 361.988>
AnchorPoint: "Anchor-2" 365 0 basechar 0
AnchorPoint: "Anchor-1" 270 0 basechar 0
AnchorPoint: "Anchor-0" 281 496 basechar 0
LayerCount: 2
Fore
SplineSet
421 292 m 1
 421 370 358 432 279 432 c 0
 191 432 136 381 129 292 c 1
 421 292 l 1
326 -115 m 0
 337 -115 350 -112 364 -107 c 1
 364 -161 l 1
 341 -169 320 -173 301 -173 c 0
 246 -173 207 -139 207 -91 c 0
 207 -59 226 -28 257 -11 c 1
 125 -1 38 101 38 247 c 0
 38 399 137 504 279 504 c 0
 413 504 511 397 511 250 c 0
 511 238 511 232 510 225 c 1
 128 225 l 1
 131 127 192 62 281 62 c 0
 332 62 372 79 397 111 c 1
 478 87 l 1
 423 -1 333 1 295 -38 c 0
 283 -50 277 -62 277 -75 c 0
 277 -100 295 -115 326 -115 c 0
EndSplineSet
EndChar

StartChar: Iogonek
Encoding: 414 302 275
Width: 414
GlyphClass: 2
Flags: W
HStem: -173 58<190.165 272.134> 0 74<66 160 254.749 348> 594 74<66 160 254 348>
VStem: 116 70<-109.095 -35.1248> 160 94<74 594>
AnchorPoint: "Anchor-2" 273 0 basechar 0
AnchorPoint: "Anchor-1" 207 0 basechar 0
AnchorPoint: "Anchor-0" 207 668 basechar 0
LayerCount: 2
Fore
SplineSet
235 -115 m 0xf0
 246 -115 259 -112 273 -107 c 1
 273 -161 l 1
 250 -169 229 -173 210 -173 c 0
 155 -173 116 -139 116 -91 c 0xf0
 116 -48 148 -12 196 0 c 1
 66 0 l 1
 66 74 l 1
 160 74 l 1
 160 594 l 1
 66 594 l 1
 66 668 l 1
 348 668 l 1
 348 594 l 1
 254 594 l 1
 254 74 l 1xe8
 348 74 l 1
 348 0 l 1
 273 0 l 1
 214 -22 186 -46 186 -75 c 0
 186 -100 204 -115 235 -115 c 0xf0
EndSplineSet
EndChar

StartChar: iogonek
Encoding: 415 303 276
Width: 278
GlyphClass: 1
Flags: W
HStem: -173 58<115.165 197.134> 429 67<45 114> 590 125<109.2 203.707>
VStem: 41 70<-109.095 -35.1248> 94 125<605.293 699.8> 114 84<0 429>
LayerCount: 2
Fore
SplineSet
219 653 m 0xe8
 219 618 191 590 156 590 c 0
 122 590 94 618 94 653 c 0
 94 687 122 715 156 715 c 0
 191 715 219 688 219 653 c 0xe8
160 -115 m 0
 171 -115 184 -112 198 -107 c 1
 198 -161 l 1
 175 -169 154 -173 135 -173 c 0
 80 -173 41 -139 41 -91 c 0
 41 -48 73 -12 121 0 c 1
 114 0 l 1
 114 429 l 1
 45 429 l 1
 45 496 l 1
 198 496 l 1
 198 0 l 1
 139 -22 111 -46 111 -75 c 0xf4
 111 -100 129 -115 160 -115 c 0
EndSplineSet
EndChar

StartChar: Uogonek
Encoding: 428 370 289
Width: 690
GlyphClass: 2
Flags: W
HStem: -173 58<344.165 426.134> -11 80<247.927 320> 648 20G<76 170 520 614>
VStem: 76 94<153.812 668> 270 70<-109.095 -34.4465> 520 94<154.879 668>
AnchorPoint: "Anchor-2" 427 0 basechar 0
AnchorPoint: "Anchor-1" 345 0 basechar 0
AnchorPoint: "Anchor-0" 345 668 basechar 0
LayerCount: 2
Fore
SplineSet
389 -115 m 0
 400 -115 413 -112 427 -107 c 1
 427 -161 l 1
 404 -169 383 -173 364 -173 c 0
 309 -173 270 -139 270 -91 c 0
 270 -59 289 -28 320 -11 c 1
 152 -3 76 87 76 279 c 2
 76 668 l 1
 170 668 l 1
 170 272 l 2
 170 132 224 69 345 69 c 0
 466 69 520 132 520 272 c 2
 520 668 l 1
 614 668 l 1
 614 279 l 2
 614 100 549 10 406 -8 c 1
 362 -27 340 -49 340 -75 c 0
 340 -100 358 -115 389 -115 c 0
EndSplineSet
EndChar

StartChar: uogonek
Encoding: 429 371 290
Width: 536
GlyphClass: 1
Flags: W
HStem: -173 58<383.165 465.134> -12 74<188.555 321.341> 477 20G<68 152 382 466>
VStem: 68 84<100.959 497> 309 70<-109.095 -35.1641> 382 84<120.83 497>
LayerCount: 2
Fore
SplineSet
428 -115 m 0
 439 -115 452 -112 466 -107 c 1
 466 -161 l 1
 443 -169 422 -173 403 -173 c 0
 348 -173 309 -139 309 -91 c 0
 309 -44 340 -13 402 2 c 1
 382 72 l 1
 368 48 349 28 325 12 c 0
 301 -4 268 -12 227 -12 c 0
 122 -12 68 53 68 180 c 2
 68 497 l 1
 152 497 l 1
 152 200 l 2
 152 103 183 62 256 62 c 0
 337 62 382 120 382 224 c 2
 382 497 l 1
 466 497 l 1
 466 0 l 1
 407 -22 379 -46 379 -75 c 0
 379 -100 397 -115 428 -115 c 0
EndSplineSet
EndChar

StartChar: Hbar
Encoding: 438 294 299
Width: 710
GlyphClass: 2
Flags: W
HStem: 0 21G<86 180 530 624> 303 81<180 530> 504 77<10 86 180 530 624 700> 648 20G<86 180 530 624>
VStem: 86 94<0 303 384 504 581 668> 530 94<0 303 384 504 581 668>
AnchorPoint: "Anchor-1" 355 0 basechar 0
AnchorPoint: "Anchor-0" 355 668 basechar 0
LayerCount: 2
Fore
SplineSet
180 384 m 1
 530 384 l 1
 530 504 l 1
 180 504 l 1
 180 384 l 1
86 0 m 1
 86 504 l 1
 10 504 l 1
 10 581 l 1
 86 581 l 1
 86 668 l 1
 180 668 l 1
 180 581 l 1
 530 581 l 1
 530 668 l 1
 624 668 l 1
 624 581 l 1
 700 581 l 1
 700 504 l 1
 624 504 l 1
 624 0 l 1
 530 0 l 1
 530 303 l 1
 180 303 l 1
 180 0 l 1
 86 0 l 1
EndSplineSet
EndChar

StartChar: hbar
Encoding: 439 295 300
Width: 581
GlyphClass: 1
Flags: W
HStem: 0 21G<105 189 429 513> 432 72<253.01 392.692> 548 67<20 105 189 349> 648 20G<105 189>
VStem: 105 84<0 369.441 421 548 615 668> 429 84<0 392.763>
LayerCount: 2
Fore
SplineSet
349 504 m 0
 459 504 513 441 513 314 c 2
 513 0 l 1
 429 0 l 1
 429 289 l 2
 429 392 399 432 320 432 c 0
 236 432 189 373 189 269 c 2
 189 0 l 1
 105 0 l 1
 105 548 l 1
 20 548 l 1
 20 615 l 1
 105 615 l 1
 105 668 l 1
 189 668 l 1
 189 615 l 1
 349 615 l 1
 349 548 l 1
 189 548 l 1
 189 421 l 1
 222 476 275 504 349 504 c 0
EndSplineSet
EndChar

StartChar: dcroat
Encoding: 458 273 319
Width: 603
GlyphClass: 1
Flags: W
HStem: -12 72<199.459 344.882> 0 21G<428.133 513> 432 72<199.459 344.507> 548 67<249 412 496 578> 648 20G<412 496>
VStem: 38 94<136.169 355.831> 412 84<133.003 359.45 418 548 615 668>
LayerCount: 2
Fore
SplineSet
273 432 m 0xbe
 185 432 132 362 132 246 c 0
 132 130 185 60 273 60 c 0
 361 60 414 130 414 246 c 0
 414 362 361 432 273 432 c 0xbe
412 75 m 1
 381 18 325 -12 251 -12 c 0xbe
 126 -12 38 95 38 246 c 0
 38 397 126 504 251 504 c 0
 324 504 380 474 412 418 c 1
 412 548 l 1
 249 548 l 1
 249 615 l 1
 412 615 l 1
 412 668 l 1
 496 668 l 1
 496 615 l 1
 578 615 l 1
 578 548 l 1
 496 548 l 1
 496 187 l 2
 496 114 501 64 513 0 c 1
 434 0 l 1x7e
 412 75 l 1
EndSplineSet
EndChar

StartChar: Scedilla
Encoding: 466 350 327
Width: 596
GlyphClass: 2
Flags: W
HStem: -181 41<217.401 327.498> -81 40<276.061 331.037> -12 79<315 394.058> 601 79<197.301 383.916>
VStem: 46 97<442.155 553.049> 332 62<-134.133 -82.5443> 457 99<121.431 242.958>
AnchorPoint: "Anchor-1" 302 -181 basechar 0
AnchorPoint: "Anchor-0" 298 668 basechar 0
LayerCount: 2
Fore
SplineSet
394 -102 m 0
 394 -148 353 -181 297 -181 c 0
 272 -181 245 -175 209 -161 c 1
 223 -126 l 1
 247 -136 266 -140 281 -140 c 0
 311 -140 332 -126 332 -106 c 0
 332 -90 319 -81 296 -81 c 0
 282 -81 270 -87 256 -87 c 0
 246 -87 237 -78 237 -67 c 0
 237 -63 238 -60 240 -57 c 2
 269 -11 l 1
 156 -3 70 56 40 146 c 1
 127 172 l 1
 149 107 215 67 300 67 c 0
 394 67 457 115 457 186 c 0
 457 240 421 269 323 294 c 1
 238 313 l 1
 101 349 46 403 46 501 c 0
 46 604 150 680 291 680 c 0
 397 680 485 633 523 555 c 1
 437 530 l 1
 414 573 355 601 287 601 c 0
 202 601 143 558 143 497 c 0
 143 443 179 417 286 392 c 1
 359 376 l 1
 498 343 556 285 556 182 c 0
 556 76 455 -5 315 -12 c 1
 295 -45 l 1
 305 -42 314 -41 325 -41 c 0
 366 -41 394 -65 394 -102 c 0
EndSplineSet
Substitution2: "'locl' Localized Forms in Latin lookup 8 subtable" uni0218
Substitution2: "'aalt' Access All Alternates lookup 0 subtable" uni0218
EndChar

StartChar: scedilla
Encoding: 467 351 328
Width: 471
GlyphClass: 2
Flags: W
HStem: -181 41<149.401 259.498> -81 40<208.061 263.037> -12 71<247 320.549> 434 71<151.232 305.42>
VStem: 41 85<325.379 410.034> 264 62<-134.133 -82.5443> 356 85<90.724 182.856>
AnchorPoint: "Anchor-1" 234 -181 basechar 0
AnchorPoint: "Anchor-0" 240 496 basechar 0
LayerCount: 2
Fore
SplineSet
326 -102 m 0
 326 -148 285 -181 229 -181 c 0
 204 -181 177 -175 141 -161 c 1
 155 -126 l 1
 179 -136 198 -140 213 -140 c 0
 243 -140 264 -126 264 -106 c 0
 264 -90 251 -81 228 -81 c 0
 214 -81 202 -87 188 -87 c 0
 178 -87 169 -78 169 -67 c 0
 169 -63 170 -60 172 -57 c 2
 202 -10 l 1
 121 1 58 46 31 112 c 1
 112 142 l 1
 125 91 173 59 239 59 c 0
 305 59 356 91 356 133 c 0
 356 178 326 201 246 217 c 2
 177 231 l 1
 82 252 41 293 41 367 c 0
 41 447 122 505 232 505 c 0
 321 505 391 467 418 404 c 1
 339 375 l 1
 323 411 279 434 226 434 c 0
 168 434 126 406 126 368 c 0
 126 332 152 312 218 299 c 2
 283 286 l 2
 395 264 441 220 441 136 c 0
 441 53 360 -9 247 -12 c 1
 227 -45 l 1
 237 -42 246 -41 257 -41 c 0
 298 -41 326 -65 326 -102 c 0
EndSplineSet
Substitution2: "'locl' Localized Forms in Latin lookup 8 subtable" uni0219
Substitution2: "'aalt' Access All Alternates lookup 0 subtable" uni0219
EndChar

StartChar: uni0162
Encoding: 469 354 330
Width: 558
GlyphClass: 2
Flags: W
HStem: -181 41<198.401 308.498> -81 40<257.061 312.037> 587 81<10 232 326 548>
VStem: 232 94<0 587> 313 62<-134.133 -82.5443>
AnchorPoint: "Anchor-1" 269 -250 basechar 0
AnchorPoint: "Anchor-0" 279 668 basechar 0
LayerCount: 2
Fore
SplineSet
375 -102 m 0xe8
 375 -148 334 -181 278 -181 c 0
 253 -181 226 -175 190 -161 c 1
 204 -126 l 1
 228 -136 247 -140 262 -140 c 0
 292 -140 313 -126 313 -106 c 0xe8
 313 -90 300 -81 277 -81 c 0
 263 -81 251 -87 237 -87 c 0
 227 -87 218 -78 218 -67 c 0
 218 -63 219 -60 221 -57 c 2
 256 -0 l 1
 232 0 l 1
 232 587 l 1
 10 587 l 1
 10 668 l 1
 548 668 l 1
 548 587 l 1
 326 587 l 1
 326 0 l 1xf0
 304 0 l 1
 276 -45 l 1
 286 -42 295 -41 306 -41 c 0
 347 -41 375 -65 375 -102 c 0xe8
EndSplineSet
Substitution2: "'locl' Localized Forms in Latin lookup 8 subtable" uni021A
Substitution2: "'aalt' Access All Alternates lookup 0 subtable" uni021A
EndChar

StartChar: acutecomb
Encoding: 471 769 332
Width: 162
GlyphClass: 4
Flags: W
HStem: 571 136<88.3141 95.3095>
VStem: 0 162
AnchorPoint: "Anchor-4" 81 707 basemark 0
AnchorPoint: "Anchor-4" 47 496 mark 0
AnchorPoint: "Anchor-0" 47 496 mark 0
LayerCount: 2
Fore
SplineSet
124 707 m 0
 146 707 162 691 162 669 c 0
 162 651 148 635 90 588 c 0
 80 580 72 573 70 571 c 1
 0 571 l 1
 65 657 88 686 96 694 c 0
 103 703 112 707 124 707 c 0
EndSplineSet
Substitution2: "'case' Case-Sensitive Forms lookup 15 subtable" acutecomb.case
Substitution2: "Single Substitution lookup 7 subtable" acutecomb.case
Substitution2: "Single Substitution lookup 6 subtable" acutecomb.case
Substitution2: "Single Substitution lookup 4 subtable" acutecomb.case
Substitution2: "Single Substitution lookup 3 subtable" acutecomb.case
Substitution2: "'aalt' Access All Alternates lookup 0 subtable" acutecomb.case
EndChar

StartChar: acutecomb.case
Encoding: 472 -1 333
Width: 0
GlyphClass: 4
Flags: W
HStem: 744 120
VStem: 0 172
AnchorPoint: "Anchor-4" 86 864 basemark 0
AnchorPoint: "Anchor-4" 58 668 mark 0
AnchorPoint: "Anchor-0" 58 668 mark 0
LayerCount: 2
Fore
SplineSet
136 864 m 0
 156 864 172 848 172 828 c 0
 172 806 159 794 95 756 c 0
 84 750 78 745 76 744 c 1
 0 744 l 1
 8 752 91 839 107 852 c 0
 116 860 126 864 136 864 c 0
EndSplineSet
EndChar

StartChar: uni030C.alt
Encoding: 476 -1 337
Width: 0
GlyphClass: 1
Flags: W
HStem: 495 183<48.6463 69>
VStem: 46 74<575.156 674.698>
LayerCount: 2
Fore
SplineSet
82 678 m 0
 104 678 120 662 120 640 c 0
 120 631 115 623 111 609 c 1
 69 495 l 1
 20 495 l 1
 22 506 38 626 46 649 c 0
 50 666 65 678 82 678 c 0
EndSplineSet
EndChar

StartChar: uni0327
Encoding: 478 807 339
Width: 0
GlyphClass: 4
Flags: W
HStem: -181 41<8.40114 118.498> -81 40<67.0614 122.037>
VStem: 123 62<-134.133 -82.5443>
AnchorPoint: "Anchor-3" 93 -181 basemark 0
AnchorPoint: "Anchor-3" 89 0 mark 0
AnchorPoint: "Anchor-1" 89 0 mark 0
LayerCount: 2
Fore
SplineSet
185 -102 m 0
 185 -148 144 -181 88 -181 c 0
 63 -181 36 -175 0 -161 c 1
 14 -126 l 1
 38 -136 57 -140 72 -140 c 0
 102 -140 123 -126 123 -106 c 0
 123 -90 110 -81 87 -81 c 0
 73 -81 61 -87 47 -87 c 0
 37 -87 28 -78 28 -67 c 0
 28 -63 29 -60 31 -57 c 2
 82 25 l 1
 116 4 l 1
 86 -45 l 1
 96 -42 105 -41 116 -41 c 0
 157 -41 185 -65 185 -102 c 0
EndSplineSet
EndChar

StartChar: uni0326
Encoding: 481 806 342
Width: 0
GlyphClass: 4
Flags: W
HStem: -250 34<40 68.3644>
VStem: 94 66<-195.931 -98.1323>
AnchorPoint: "Anchor-3" 80 -250 basemark 0
AnchorPoint: "Anchor-3" 90 0 mark 0
AnchorPoint: "Anchor-1" 90 0 mark 0
LayerCount: 2
Fore
SplineSet
104 -56 m 1
 140 -75 160 -106 160 -143 c 0
 160 -206 111 -250 40 -250 c 1
 0 -216 l 1
 61 -216 94 -192 94 -147 c 0
 94 -116 77 -94 44 -82 c 1
 104 -56 l 1
EndSplineSet
EndChar

StartChar: Euro
Encoding: 164 8364 347
Width: 664
GlyphClass: 1
Flags: W
HStem: -12 79<301.388 474.387> 240 51<43 100 197 343> 377 51<43 100 197 418> 500 21G<529.5 600.714> 601 79<296.801 471.662>
VStem: 106 91<183.521 240 428 490.776>
LayerCount: 2
Fore
SplineSet
626 139 m 1
 581 42 493 -12 380 -12 c 0
 236 -12 135 81 106 240 c 1
 15 240 l 1
 43 291 l 1
 100 291 l 1
 100 377 l 1
 15 377 l 1
 43 428 l 1
 106 428 l 1
 136 586 241 680 387 680 c 0
 493 680 579 624 623 528 c 1
 545 500 l 1
 514 566 457 601 382 601 c 0
 290 601 221 537 197 428 c 1
 446 428 l 1
 418 377 l 1
 189 377 l 1
 189 291 l 1
 371 291 l 1
 343 240 l 1
 197 240 l 1
 224 130 293 67 385 67 c 0
 460 67 517 102 549 167 c 1
 626 139 l 1
EndSplineSet
EndChar

StartChar: uni2074
Encoding: 486 8308 348
Width: 412
GlyphClass: 1
Flags: W
HStem: 489 57<113 225 293 358>
VStem: 225 68<403 489 546 692>
LayerCount: 2
Fore
SplineSet
113 546 m 1
 225 546 l 1
 225 692 l 1
 113 546 l 1
225 403 m 1
 225 489 l 1
 40 489 l 1
 40 543 l 1
 226 779 l 1
 293 779 l 1
 293 546 l 1
 358 546 l 1
 358 489 l 1
 293 489 l 1
 293 403 l 1
 225 403 l 1
EndSplineSet
EndChar

StartChar: gravecomb.case
Encoding: 488 -1 350
Width: 0
GlyphClass: 4
Flags: W
HStem: 744 120<62.7388 75.2812>
VStem: 0 173
AnchorPoint: "Anchor-4" 87 864 basemark 0
AnchorPoint: "Anchor-4" 122 668 mark 0
AnchorPoint: "Anchor-0" 122 668 mark 0
LayerCount: 2
Fore
SplineSet
0 828 m 0
 0 848 16 864 36 864 c 0
 50 864 59 860 67 851 c 2
 173 744 l 1
 97 744 l 1
 96 745 38 779 16 796 c 0
 5 805 0 815 0 828 c 0
EndSplineSet
EndChar

StartChar: dotlessi
Encoding: 491 305 353
Width: 274
GlyphClass: 2
Flags: W
HStem: 0 21G<112 196> 429 67<43 112>
VStem: 112 84<0 429>
AnchorPoint: "Anchor-2" 248 10 basechar 0
AnchorPoint: "Anchor-1" 137 0 basechar 0
AnchorPoint: "Anchor-0" 132 496 basechar 0
LayerCount: 2
Fore
SplineSet
112 0 m 1
 112 429 l 1
 43 429 l 1
 43 496 l 1
 196 496 l 1
 196 0 l 1
 112 0 l 1
EndSplineSet
EndChar

StartChar: mu
Encoding: 494 181 356
Width: 555
GlyphClass: 1
Flags: W
HStem: -162 21G<70 154> -11 72<190.682 328.809> 0 75<473.002 539.256> 476 20G<70 154 385 469>
VStem: 70 84<-162 20.9902 100.482 496> 385 84<125.129 496>
LayerCount: 2
Fore
SplineSet
139 24 m 1xdc
 152 -41 154 -55 154 -79 c 2
 154 -162 l 1
 70 -162 l 1
 70 496 l 1
 154 496 l 1
 154 198 l 2
 154 103 187 61 260 61 c 0xdc
 339 61 385 125 385 236 c 2
 385 496 l 1
 469 496 l 1
 469 122 l 2
 469 87 480 75 510 75 c 0
 516 75 523 76 528 77 c 2
 540 80 l 1
 540 7 l 1
 512 1 500 0 480 0 c 0xbc
 436 0 403 26 390 73 c 1
 359 18 307 -11 239 -11 c 0
 198 -11 164 1 139 24 c 1xdc
EndSplineSet
EndChar

StartChar: uni0328.case
Encoding: 496 -1 358
Width: 0
GlyphClass: 4
Flags: W
HStem: -173 58<74.1651 156.134> -20 20G<38.5 157>
VStem: 0 70<-109.075 -32.8116>
AnchorPoint: "Anchor-2" 157 0 mark 0
LayerCount: 2
Fore
SplineSet
0 -91 m 0
 0 -52 20 -20 57 0 c 1
 157 0 l 1
 94 -23 70 -43 70 -74 c 0
 70 -100 88 -115 119 -115 c 0
 130 -115 143 -112 157 -107 c 1
 157 -161 l 1
 134 -169 113 -173 94 -173 c 0
 39 -173 0 -139 0 -91 c 0
EndSplineSet
EndChar

StartChar: uni00AD
Encoding: 173 173 362
Width: 348
GlyphClass: 1
Flags: W
HStem: 208 81<38 310>
VStem: 38 272<208 289>
LayerCount: 2
Fore
SplineSet
38 208 m 1
 38 289 l 1
 310 289 l 1
 310 208 l 1
 38 208 l 1
EndSplineSet
EndChar

StartChar: uni0163
Encoding: 500 355 363
Width: 324
GlyphClass: 2
Flags: W
HStem: -181 41<102.401 212.498> -81 40<161.061 216.037> 0 74<208 284> 429 67<20 104 188 284>
VStem: 104 84<78.999 429 496 621> 217 62<-134.133 -82.5443>
AnchorPoint: "Anchor-1" 173 -250 basechar 0
AnchorPoint: "Anchor-0" 162 496 basechar 0
LayerCount: 2
Fore
SplineSet
279 -102 m 0
 279 -148 238 -181 182 -181 c 0
 157 -181 130 -175 94 -161 c 1
 108 -126 l 1
 132 -136 151 -140 166 -140 c 0
 196 -140 217 -126 217 -106 c 0
 217 -90 204 -81 181 -81 c 0
 167 -81 155 -87 141 -87 c 0
 131 -87 122 -78 122 -67 c 0
 122 -63 123 -60 125 -57 c 2
 164 5 l 1
 118 16 104 45 104 124 c 2
 104 429 l 1
 20 429 l 1
 20 496 l 1
 104 496 l 1
 104 621 l 1
 188 621 l 1
 188 496 l 1
 284 496 l 1
 284 429 l 1
 188 429 l 1
 188 138 l 2
 188 84 196 74 239 74 c 2
 284 74 l 1
 284 0 l 1
 208 0 l 1
 180 -45 l 1
 190 -42 199 -41 210 -41 c 0
 251 -41 279 -65 279 -102 c 0
EndSplineSet
Substitution2: "'locl' Localized Forms in Latin lookup 8 subtable" uni021B
Substitution2: "'aalt' Access All Alternates lookup 0 subtable" uni021B
EndChar

StartChar: zero.alt1
Encoding: 504 -1 367
Width: 648
Flags: W
HStem: -12 74<242.352 406.115> 606 74<241.885 406.176>
VStem: 60 91<192.972 489.955> 497 91<179.16 483.715>
LayerCount: 2
Fore
SplineSet
497 335 m 0
 497 393 490 444 477 486 c 1
 213 107 l 1
 241 77 278 62 324 62 c 0
 438 62 497 155 497 335 c 0
151 335 m 0
 151 280 157 231 168 190 c 1
 431 566 l 1
 403 593 368 606 324 606 c 0
 210 606 151 514 151 335 c 0
60 335 m 0
 60 559 153 680 324 680 c 0
 495 680 588 559 588 335 c 0
 588 110 495 -12 324 -12 c 0
 153 -12 60 110 60 335 c 0
EndSplineSet
Substitution2: "'aalt' Access All Alternates lookup 0 subtable" zero
Substitution2: "'tnum' Tabular Numbers lookup 14 subtable" zero
Substitution2: "'zero' Slashed Zero lookup 0-1" zero
EndChar

StartChar: copyleft
Encoding: 505 127279 368
Width: 798
Flags: W
HStem: -12 62<295.267 502.733> 150 59<332.659 455.532> 473 58<337.346 456.779> 618 62<295.267 502.733>
VStem: 53 62<230.267 437.733> 495 76<251.238 430.968> 683 62<230.267 437.733>
LayerCount: 2
Fore
SplineSet
571 342 m 0
 571 220 507 150 397 150 c 0
 330 150 277 178 248 230 c 1
 314 254 l 1
 329 225 358 209 397 209 c 0
 459 209 495 258 495 342 c 0
 495 425 459 473 397 473 c 0
 361 473 334 457 317 424 c 1
 250 449 l 1
 278 502 329 531 395 531 c 0
 505 531 571 460 571 342 c 0
115 334 m 0
 115 176 241 50 399 50 c 0
 557 50 683 176 683 334 c 0
 683 492 557 618 399 618 c 0
 241 618 115 492 115 334 c 0
745 334 m 0
 745 143 590 -12 399 -12 c 0
 208 -12 53 143 53 334 c 0
 53 525 208 680 399 680 c 0
 590 680 745 525 745 334 c 0
EndSplineSet
EndChar

StartChar: fi
Encoding: 506 64257 369
Width: 527
Flags: W
HStem: 0 21G<99 183 363 447> 429 67<15 99 183 363> 590 125<358.2 452.707> 635 71<188.326 286>
VStem: 99 84<0 429 496 629.935> 343 125<605.293 699.8> 363 84<0 429>
LayerCount: 2
Fore
SplineSet
468 653 m 0xec
 468 618 440 590 405 590 c 0
 371 590 343 618 343 653 c 0
 343 687 371 715 405 715 c 0
 440 715 468 688 468 653 c 0xec
234 635 m 2xda
 193 635 183 622 183 571 c 2
 183 496 l 1
 447 496 l 1
 447 0 l 1
 363 0 l 1
 363 429 l 1
 183 429 l 1
 183 0 l 1
 99 0 l 1
 99 429 l 1
 15 429 l 1
 15 496 l 1
 99 496 l 1
 99 570 l 2
 99 678 127 706 232 706 c 2
 286 706 l 1
 286 635 l 1
 234 635 l 2xda
EndSplineSet
LCarets2: 1 286
Ligature2: "'liga' Standard Ligatures lookup 0-1" f i
EndChar

StartChar: f_f_i
Encoding: 507 64259 370
Width: 791
Flags: W
HStem: 0 21G<99 183 363 447 627 711> 429 67<15 99 183 363 447 627> 590 125<622.2 716.707> 635 71<188.326 286 452.326 550>
VStem: 99 84<0 429 496 629.935> 363 84<0 429 496 629.935> 607 125<605.293 699.8> 627 84<0 429>
LayerCount: 2
Fore
SplineSet
732 653 m 0xee
 732 618 704 590 669 590 c 0
 635 590 607 618 607 653 c 0
 607 687 635 715 669 715 c 0
 704 715 732 688 732 653 c 0xee
498 635 m 2xdd
 457 635 447 622 447 571 c 2
 447 496 l 1
 711 496 l 1
 711 0 l 1
 627 0 l 1
 627 429 l 1
 447 429 l 1
 447 0 l 1
 363 0 l 1
 363 429 l 1
 183 429 l 1
 183 0 l 1
 99 0 l 1
 99 429 l 1
 15 429 l 1
 15 496 l 1
 99 496 l 1
 99 570 l 2
 99 678 127 706 232 706 c 2
 286 706 l 1
 286 635 l 1
 234 635 l 2
 193 635 183 622 183 571 c 2
 183 496 l 1
 363 496 l 1
 363 570 l 2
 363 678 391 706 496 706 c 2
 550 706 l 1
 550 635 l 1
 498 635 l 2xdd
EndSplineSet
LCarets2: 2 288 550
Ligature2: "'liga' Standard Ligatures lookup 0-1" f f i
EndChar

StartChar: f_f
Encoding: 510 64256 373
Width: 575
Flags: W
HStem: 0 21G<99 183 363 447> 429 67<15 99 183 363 447 550> 635 71<188.326 286 452.326 550>
VStem: 99 84<0 429 496 629.935> 363 84<0 429 496 629.935>
LayerCount: 2
Fore
SplineSet
498 635 m 2
 457 635 447 622 447 571 c 2
 447 496 l 1
 550 496 l 1
 550 429 l 1
 447 429 l 1
 447 0 l 1
 363 0 l 1
 363 429 l 1
 183 429 l 1
 183 0 l 1
 99 0 l 1
 99 429 l 1
 15 429 l 1
 15 496 l 1
 99 496 l 1
 99 570 l 2
 99 678 127 706 232 706 c 2
 286 706 l 1
 286 635 l 1
 234 635 l 2
 193 635 183 622 183 571 c 2
 183 496 l 1
 363 496 l 1
 363 570 l 2
 363 678 391 706 496 706 c 2
 550 706 l 1
 550 635 l 1
 498 635 l 2
EndSplineSet
Ligature2: "'liga' Standard Ligatures lookup 0-1" f f
LCarets2: 1 288
EndChar

StartChar: dong
Encoding: 511 8363 374
Width: 603
Flags: W
HStem: -129 67<50 553> -12 72<199.459 344.882> 0 21G<428.133 513> 432 72<199.459 344.507> 548 67<249 412 496 578> 648 20G<412 496>
VStem: 38 94<136.169 355.831> 412 84<133.003 359.45 418 548 615 668>
LayerCount: 2
Fore
SplineSet
50 -129 m 1x9f
 50 -62 l 1
 553 -62 l 1
 553 -129 l 1
 50 -129 l 1x9f
EndSplineSet
Refer: 319 273 N 1 0 0 1 0 0 2
EndChar

StartChar: uni0237
Encoding: 547 567 410
Width: 254
HStem: -161 74<-58 72.777> 476 20G<90 174>
VStem: 90 84<-69.5282 496>
AnchorPoint: "Anchor-0" 134 496 basechar 0
LayerCount: 2
Fore
SplineSet
174 7 m 2
 174 -122 132 -161 -3 -161 c 1
 -58 -159 l 1
 -58 -86 l 1
 -11 -87 l 1
 73 -87 90 -70 90 12 c 2
 90 496 l 1
 174 496 l 1
 174 7 l 2
EndSplineSet
EndChar

StartChar: uni2010
Encoding: 562 8208 425
Width: 328
Flags: W
HStem: 208 81<38 290>
VStem: 38 252<208 289>
LayerCount: 2
Fore
SplineSet
38 208 m 1
 38 289 l 1
 290 289 l 1
 290 208 l 1
 38 208 l 1
EndSplineSet
EndChar

StartChar: Ldot
Encoding: 569 319 432
Width: 539
HStem: 0 81<170 529> 250 130<317.097 411.8> 648 20G<76 170>
VStem: 76 94<81 668> 300 129<267.303 362.903>
LayerCount: 2
Fore
SplineSet
429 316 m 0
 429 280 399 250 364 250 c 0
 329 250 300 280 300 316 c 0
 300 350 330 380 364 380 c 0
 399 380 429 351 429 316 c 0
EndSplineSet
Refer: 26 76 N 1 0 0 1 0 0 3
EndChar

StartChar: ldot
Encoding: 570 320 433
Width: 370
Flags: W
HStem: 0 74<158.381 224> 250 129<247.747 343.15> 647 20G<70 154>
VStem: 70 84<78.5552 667> 231 129<266.85 362.253>
LayerCount: 2
Fore
SplineSet
360 315 m 0
 360 279 331 250 295 250 c 0
 260 250 231 279 231 315 c 0
 231 350 260 379 295 379 c 0
 331 379 360 350 360 315 c 0
EndSplineSet
Refer: 52 108 N 1 0 0 1 0 0 2
EndChar

StartChar: uni031B
Encoding: 592 795 455
Width: 324
Flags: W
HStem: 427 74<0 187.871>
VStem: 205 79<517.199 616>
LayerCount: 2
Fore
SplineSet
134 501 m 2
 181 501 205 527 205 578 c 2
 205 616 l 1
 284 616 l 1
 284 575 l 2
 284 476 237 427 144 427 c 2
 0 427 l 1
 0 501 l 1
 134 501 l 2
EndSplineSet
EndChar

StartChar: Ohorn
Encoding: 593 416 456
Width: 727
Flags: W
HStem: -12 79<272.442 455.823> 591 79<272.882 457.667 569 630.431>
VStem: 50 96<211.402 451.954> 581 96<205.686 452.143> 648 79<688.65 765>
AnchorPoint: "Anchor-2" 654 10 basechar 0
AnchorPoint: "Anchor-1" 364 0 basechar 0
AnchorPoint: "Anchor-0" 364 658 basechar 0
LayerCount: 2
Fore
SplineSet
677 329 m 0xf0
 677 127 549 -12 364 -12 c 0
 180 -12 50 127 50 325 c 0
 50 532 176 670 364 670 c 2
 577 670 l 2
 624 670 648 696 648 747 c 2
 648 765 l 1
 727 765 l 1
 727 744 l 2xe8
 727 650 674 600 569 596 c 1
 638 535 677 439 677 329 c 0xf0
146 329 m 0
 146 173 235 67 364 67 c 0
 494 67 581 173 581 330 c 0xf0
 581 486 494 591 364 591 c 0
 233 591 146 486 146 329 c 0
EndSplineSet
EndChar

StartChar: ohorn
Encoding: 594 417 457
Width: 570
Flags: W
HStem: -12 74<202.807 349.193> 420 74<203.891 348.316 440 494.255>
VStem: 38 90<145.443 336.945> 424 90<145.071 336.879> 510 79<509.922 589>
AnchorPoint: "Anchor-2" 497 10 basechar 0
AnchorPoint: "Anchor-1" 276 0 basechar 0
AnchorPoint: "Anchor-0" 276 486 basechar 0
LayerCount: 2
Fore
SplineSet
128 240 m 0xf0
 128 137 190 62 276 62 c 0
 362 62 424 137 424 242 c 0
 424 344 361 420 277 420 c 0
 190 420 128 346 128 240 c 0xf0
38 242 m 0
 38 389 138 494 276 494 c 2
 439 494 l 2
 486 494 510 520 510 571 c 2
 510 589 l 1
 589 589 l 1
 589 568 l 2xe8
 589 475 539 426 440 421 c 1
 459 408 476 387 492 355 c 0
 507 326 514 289 514 240 c 0
 514 92 416 -12 276 -12 c 0
 136 -12 38 93 38 242 c 0
EndSplineSet
EndChar

StartChar: Uhorn
Encoding: 595 431 458
Width: 710
Flags: W
HStem: -12 81<249.358 441.365> 648 20G<76 170>
VStem: 76 94<155.282 668> 520 94<155.282 597.081> 662 79<689.002 775>
AnchorPoint: "Anchor-2" 427 0 basechar 0
AnchorPoint: "Anchor-1" 345 0 basechar 0
AnchorPoint: "Anchor-0" 345 668 basechar 0
LayerCount: 2
Fore
SplineSet
614 279 m 2
 614 77 532 -12 346 -12 c 0
 159 -12 76 77 76 279 c 2
 76 668 l 1
 170 668 l 1
 170 272 l 2
 170 132 224 69 345 69 c 0
 466 69 520 132 520 272 c 2
 520 668 l 1
 583 668 l 2
 636 668 662 698 662 757 c 2
 662 775 l 1
 741 775 l 1
 741 754 l 2
 741 654 701 604 614 594 c 1
 614 279 l 2
EndSplineSet
EndChar

StartChar: uhorn
Encoding: 596 432 459
Width: 564
Flags: W
HStem: -12 74<187.158 319.674> 0 21G<397.167 466> 477 20G<68 152>
VStem: 68 84<100.547 497> 382 84<123.897 430.111> 403 63<0 24> 520 75<516.684 599>
AnchorPoint: "Anchor-2" 466 0 basechar 0
AnchorPoint: "Anchor-1" 268 0 basechar 0
AnchorPoint: "Anchor-0" 267 496 basechar 0
LayerCount: 2
Fore
SplineSet
255 62 m 0xba
 336 62 382 120 382 224 c 2
 382 497 l 1
 449 497 l 2
 496 497 520 525 520 581 c 2
 520 599 l 1
 595 599 l 1
 595 578 l 2
 595 478 558 434 466 428 c 1xba
 466 0 l 1
 403 0 l 1x76
 382 72 l 1
 349 16 298 -12 229 -12 c 0
 122 -12 68 52 68 180 c 2
 68 497 l 1
 152 497 l 1
 152 200 l 2
 152 104 184 62 255 62 c 0xba
EndSplineSet
EndChar

StartChar: dotbelowcomb
Encoding: 681 803 544
Width: 205
Flags: W
HStem: -207 129<42.7473 137.253>
VStem: 26 128<-190.15 -93.3863>
AnchorPoint: "Anchor-3" 90 -207 basemark 0
AnchorPoint: "Anchor-3" 90 0 mark 0
AnchorPoint: "Anchor-1" 90 0 mark 0
LayerCount: 2
Fore
SplineSet
154 -142 m 0
 154 -178 125 -207 90 -207 c 0
 55 -207 26 -178 26 -142 c 0
 26 -106 54 -78 90 -78 c 0
 126 -78 154 -106 154 -142 c 0
EndSplineSet
EndChar

StartChar: hookabovecomb
Encoding: 682 777 545
Width: 157
Flags: W
HStem: 678 21G<0 7> 686 58<0.866089 82.1386>
VStem: 87 70<602.693 679.742>
AnchorPoint: "Anchor-4" 81 744 basemark 0
AnchorPoint: "Anchor-4" 67 496 mark 0
AnchorPoint: "Anchor-0" 67 496 mark 0
LayerCount: 2
Fore
SplineSet
38 686 m 0x60
 27 686 14 683 0 678 c 1xa0
 0 732 l 1
 23 740 44 744 64 744 c 0
 118 744 157 709 157 662 c 0
 157 624 146 604 107 571 c 1
 30 571 l 1
 74 607 87 624 87 647 c 0
 87 671 68 686 38 686 c 0x60
EndSplineSet
EndChar

StartChar: longs
Encoding: 683 383 546
Width: 311
Flags: W
HStem: 0 21G<99 183> 429 67<15 99> 635 71<188.326 286>
VStem: 99 84<0 429 496 629.935>
AnchorPoint: "Anchor-0" 90 668 basechar 0
LayerCount: 2
Fore
SplineSet
234 635 m 2
 193 635 183 622 183 571 c 2
 183 0 l 1
 99 0 l 1
 99 429 l 1
 15 429 l 1
 15 496 l 1
 99 496 l 1
 99 570 l 2
 99 678 127 706 232 706 c 2
 286 706 l 1
 286 635 l 1
 234 635 l 2
EndSplineSet
EndChar

StartChar: uniFFFD
Encoding: 684 65533 547
Width: 523
Flags: W
HStem: 0 21<77 447> 680 20<76 447>
VStem: 48 21<49 650> 455 20<47 652>
LayerCount: 2
Fore
SplineSet
77 21 m 1
 447 21 l 1
 262 329 l 1
 77 21 l 1
69 49 m 1
 249 350 l 1
 69 650 l 1
 69 49 l 1
455 47 m 1
 455 652 l 1
 274 350 l 1
 455 47 l 1
261 371 m 1
 447 680 l 1
 76 680 l 1
 261 371 l 1
48 0 m 1
 48 700 l 1
 475 700 l 1
 475 0 l 1
 48 0 l 1
EndSplineSet
EndChar

StartChar: uni0256
Encoding: 713 598 576
Width: 579
Flags: W
HStem: -161 74<500.381 586> -12 72<199.459 344.882> 432 72<199.459 344.507> 648 20G<412 496>
VStem: 38 94<136.169 355.831> 412 84<-82.4448 75 132.55 359.45 418 668>
AnchorPoint: "Anchor-1" 282 0 basechar 0
AnchorPoint: "Anchor-0" 251 496 basechar 0
LayerCount: 2
Fore
SplineSet
273 432 m 0
 185 432 132 362 132 246 c 0
 132 130 185 60 273 60 c 0
 361 60 414 130 414 246 c 0
 414 362 361 432 273 432 c 0
496 668 m 1
 496 -23 l 2
 496 -77 504 -87 547 -87 c 2
 586 -87 l 1
 586 -161 l 1
 529 -161 l 2
 434 -161 412 -138 412 -37 c 2
 412 75 l 1
 381 18 325 -12 251 -12 c 0
 126 -12 38 95 38 246 c 0
 38 397 126 504 251 504 c 0
 324 504 380 474 412 418 c 1
 412 668 l 1
 496 668 l 1
EndSplineSet
EndChar

StartChar: Eng
Encoding: 715 330 578
Width: 689
Flags: W
HStem: -161 74<429 512.969> 0 21G<76 170> 648 20G<76 225.704 519 613>
VStem: 76 94<0 571> 519 94<-82.4448 0 100 668>
AnchorPoint: "Anchor-1" 311 0 basechar 0
AnchorPoint: "Anchor-0" 362 668 basechar 0
LayerCount: 2
Fore
SplineSet
613 668 m 9
 613 -37 l 2
 613 -138 591 -161 496 -161 c 2
 429 -161 l 1
 429 -87 l 1
 468 -87 l 2
 511 -87 519 -77 519 -24 c 10
 519 0 l 25
 475 0 l 17
 170 571 l 1
 170 0 l 1
 76 0 l 1
 76 668 l 1
 215 668 l 1
 519 100 l 1
 519 668 l 1
 613 668 l 9
EndSplineSet
EndChar

StartChar: eng
Encoding: 716 331 579
Width: 546
Flags: W
HStem: -161 74<304 389.619> 0 21G<70 154> 432 72<218.01 357.536> 476 20G<70 137.867>
VStem: 70 84<0 369.441> 70 62<472.136 496> 394 84<-82.4448 392.763>
AnchorPoint: "Anchor-1" 257 0 basechar 0
AnchorPoint: "Anchor-0" 288 496 basechar 0
LayerCount: 2
Fore
SplineSet
478 314 m 10xea
 478 -37 l 2
 478 -138 456 -161 361 -161 c 2
 304 -161 l 1
 304 -87 l 1
 343 -87 l 2
 386 -87 394 -77 394 -23 c 2
 394 289 l 2
 394 392 364 432 285 432 c 0
 201 432 154 373 154 269 c 2
 154 0 l 1
 70 0 l 1xea
 70 496 l 1
 132 496 l 1xd6
 154 421 l 1
 187 476 240 504 314 504 c 0
 423 504 478 441 478 314 c 10xea
EndSplineSet
EndChar

StartChar: uni019D
Encoding: 717 413 580
Width: 689
Flags: W
HStem: -161 74<-14 71.4526> 0 21G<464.317 613> 648 20G<76 225.704 519 613>
VStem: 76 94<-81.3251 571> 519 94<100 668>
AnchorPoint: "Anchor-1" 311 0 basechar 0
AnchorPoint: "Anchor-0" 362 668 basechar 0
LayerCount: 2
Fore
SplineSet
170 571 m 1
 170 0 l 2
 170 -143 157 -161 53 -161 c 2
 -14 -161 l 1
 -14 -87 l 1
 25 -87 l 2
 68 -87 76 -77 76 -23 c 2
 76 668 l 1
 215 668 l 1
 519 100 l 1
 519 668 l 1
 613 668 l 1
 613 0 l 1
 475 0 l 1
 170 571 l 1
EndSplineSet
EndChar

StartChar: uni019E
Encoding: 718 414 581
Width: 546
Flags: W
HStem: -161 21G<394 478> 0 21G<70 154> 432 72<218.01 357.536> 476 20G<70 137.867>
VStem: 70 84<0 369.441> 70 62<472.136 496> 394 84<-161 392.763>
AnchorPoint: "Anchor-1" 257 0 basechar 0
AnchorPoint: "Anchor-0" 288 496 basechar 0
LayerCount: 2
Fore
SplineSet
285 432 m 0xea
 201 432 154 373 154 269 c 2
 154 0 l 1
 70 0 l 1xea
 70 496 l 1
 132 496 l 1xd6
 154 421 l 1
 187 476 240 504 314 504 c 0
 423 504 478 441 478 314 c 2
 478 -161 l 1
 394 -161 l 1
 394 289 l 2
 394 392 364 432 285 432 c 0xea
EndSplineSet
EndChar

StartChar: uni0272
Encoding: 719 626 582
Width: 546
Flags: W
HStem: -161 74<-20 65.6187> 0 21G<394 478> 432 72<218.01 357.536> 476 20G<70 137.867>
VStem: 70 84<-82.4448 369.441> 70 62<472.136 496> 394 84<0 392.763>
AnchorPoint: "Anchor-1" 257 0 basechar 0
AnchorPoint: "Anchor-0" 288 496 basechar 0
LayerCount: 2
Fore
SplineSet
70 496 m 17xd6
 132 496 l 1xd6
 154 421 l 1
 187 476 240 504 314 504 c 0
 423 504 478 441 478 314 c 2
 478 0 l 1
 394 0 l 1
 394 289 l 2
 394 392 364 432 285 432 c 0
 201 432 154 373 154 269 c 2
 154 -37 l 2
 154 -138 132 -161 37 -161 c 2
 -20 -161 l 1
 -20 -87 l 1
 19 -87 l 2
 62 -87 70 -77 70 -23 c 2xea
 70 496 l 17xd6
EndSplineSet
EndChar

StartChar: uni01EA
Encoding: 720 490 583
Width: 727
HStem: -173 58<371.165 453.134> -12 79<275.262 347> 601 79<270.609 455.909>
VStem: 50 96<209.836 461.059> 297 70<-109.095 -35.1147> 581 96<207.648 461.259>
LayerCount: 2
Fore
SplineSet
416 -115 m 0
 427 -115 440 -112 454 -107 c 1
 454 -161 l 1
 431 -169 410 -173 391 -173 c 0
 336 -173 297 -139 297 -91 c 0
 297 -59 316 -29 347 -12 c 1
 168 -4 50 134 50 335 c 0
 50 541 176 680 363 680 c 0
 551 680 677 542 677 335 c 0
 677 163 593 37 453 -1 c 1
 394 -23 367 -46 367 -75 c 0
 367 -100 385 -115 416 -115 c 0
146 335 m 0
 146 173 232 67 363 67 c 0
 495 67 581 173 581 335 c 0
 581 496 495 601 363 601 c 0
 232 601 146 496 146 335 c 0
EndSplineSet
EndChar

StartChar: uni01EB
Encoding: 721 491 584
Width: 552
HStem: -173 58<272.165 354.134> 430 74<202.179 350.007>
VStem: 38 90<145.593 346.687> 198 70<-109.095 -34.9785> 424 90<144.59 347.114>
LayerCount: 2
Fore
SplineSet
317 -115 m 0
 328 -115 341 -112 355 -107 c 1
 355 -161 l 1
 332 -169 311 -173 292 -173 c 0
 237 -173 198 -139 198 -91 c 0
 198 -58 217 -28 249 -11 c 1
 122 1 38 104 38 246 c 0
 38 399 135 504 276 504 c 0
 418 504 514 400 514 246 c 0
 514 124 454 32 354 -0 c 0
 295 -22 268 -46 268 -75 c 0
 268 -100 286 -115 317 -115 c 0
128 246 m 0
 128 137 188 62 276 62 c 0
 364 62 424 136 424 246 c 0
 424 356 364 430 276 430 c 0
 188 430 128 355 128 246 c 0
EndSplineSet
EndChar

StartChar: uni0197
Encoding: 722 407 585
Width: 414
Flags: W
HStem: 0 74<66 160 254 348> 297 74<66 160 254 348> 594 74<66 160 254 348>
VStem: 66 282<0 74 297 371 594 668> 160 94<74 297 371 594>
CounterMasks: 1 e0
AnchorPoint: "Anchor-2" 273 0 basechar 0
AnchorPoint: "Anchor-1" 207 0 basechar 0
AnchorPoint: "Anchor-0" 207 668 basechar 0
LayerCount: 2
Fore
SplineSet
66 0 m 1xf0
 66 74 l 1xf0
 160 74 l 1
 160 297 l 1xe8
 66 297 l 1
 66 371 l 1xf0
 160 371 l 1
 160 594 l 1xe8
 66 594 l 1
 66 668 l 1
 348 668 l 1
 348 594 l 1xf0
 254 594 l 1
 254 371 l 1xe8
 348 371 l 1
 348 297 l 1xf0
 254 297 l 1
 254 74 l 1xe8
 348 74 l 1
 348 0 l 1
 66 0 l 1xf0
EndSplineSet
EndChar

StartChar: uni0268
Encoding: 723 616 586
Width: 278
Flags: W
HStem: 0 21G<114 198> 252 67<45 114 198 267> 429 67<45 114> 590 125<109.2 203.707>
VStem: 94 125<605.293 699.8> 114 84<0 252 319 429>
AnchorPoint: "Anchor-2" 198 0 basechar 0
LayerCount: 2
Fore
SplineSet
219 653 m 0xf8
 219 618 191 590 156 590 c 0
 122 590 94 618 94 653 c 0
 94 687 122 715 156 715 c 0
 191 715 219 688 219 653 c 0xf8
45 252 m 1
 45 319 l 1
 114 319 l 1
 114 429 l 1
 45 429 l 1
 45 496 l 1
 198 496 l 1
 198 319 l 1
 267 319 l 1
 267 252 l 1
 198 252 l 1
 198 0 l 1
 114 0 l 1
 114 252 l 1xf4
 45 252 l 1
EndSplineSet
EndChar

StartChar: Tbar
Encoding: 724 358 587
Width: 558
Flags: W
HStem: 0 21G<232 326> 297 74<122 232 326 436> 587 81<10 232 326 548>
VStem: 232 94<0 297 371 587>
AnchorPoint: "Anchor-1" 279 0 basechar 0
AnchorPoint: "Anchor-0" 279 668 basechar 0
LayerCount: 2
Fore
SplineSet
122 297 m 1
 122 371 l 1
 232 371 l 1
 232 587 l 1
 10 587 l 1
 10 668 l 1
 548 668 l 1
 548 587 l 1
 326 587 l 1
 326 371 l 1
 436 371 l 1
 436 297 l 1
 326 297 l 1
 326 0 l 1
 232 0 l 1
 232 297 l 1
 122 297 l 1
EndSplineSet
EndChar

StartChar: tbar
Encoding: 725 359 588
Width: 324
Flags: W
HStem: 0 74<192.381 284> 252 67<20 104 188 284> 429 67<20 104 188 284>
VStem: 104 84<78.5552 252 319 429 496 621>
AnchorPoint: "Anchor-1" 183 0 basechar 0
AnchorPoint: "Anchor-0" 145 621 basechar 0
LayerCount: 2
Fore
SplineSet
188 138 m 2
 188 84 196 74 239 74 c 2
 284 74 l 1
 284 0 l 1
 221 0 l 2
 126 0 104 23 104 124 c 2
 104 252 l 1
 20 252 l 1
 20 319 l 1
 104 319 l 1
 104 429 l 1
 20 429 l 1
 20 496 l 1
 104 496 l 1
 104 621 l 1
 188 621 l 1
 188 496 l 1
 284 496 l 1
 284 429 l 1
 188 429 l 1
 188 319 l 1
 284 319 l 1
 284 252 l 1
 188 252 l 1
 188 138 l 2
EndSplineSet
EndChar

StartChar: kgreenlandic
Encoding: 234 312 589
AltUni2: 0003ba.ffffffff.0
Width: 490
Flags: W
HStem: 0 21G<70 154 362.59 480> 476 20G<70 154 336.063 455>
VStem: 70 84<0 166 273 496>
AnchorPoint: "Anchor-1" 251 0 basechar 0
AnchorPoint: "Anchor-0" 242 496 basechar 0
LayerCount: 2
Fore
SplineSet
70 0 m 1
 70 496 l 1
 154 496 l 5
 154 273 l 1
 354 496 l 1
 455 496 l 1
 268 291 l 1
 480 0 l 1
 377 0 l 1
 212 229 l 1
 154 166 l 1
 154 0 l 1
 70 0 l 1
EndSplineSet
EndChar

StartChar: Pi
Encoding: 208 928 590
Width: 631
Flags: W
HStem: 0 21G<76 157 473 555> 587 81<157 473>
VStem: 76 81<0 587> 473 82<0 587>
LayerCount: 2
Fore
SplineSet
76 0 m 1
 76 668 l 1
 555 668 l 1
 555 0 l 1
 473 0 l 1
 473 587 l 1
 157 587 l 1
 157 0 l 1
 76 0 l 1
EndSplineSet
EndChar

StartChar: Lambda
Encoding: 203 923 591
Width: 626
Flags: W
HStem: 0 21G<10 117.048 508.952 616> 574 95<261 366>
AnchorPoint: "Anchor-2" 615 0 basechar 0
AnchorPoint: "Anchor-1" 313 0 basechar 0
AnchorPoint: "Anchor-0" 313 668 basechar 0
LayerCount: 2
Fore
SplineSet
436 227 m 1
 313 574 l 1
 190 227 l 1
 110 0 l 1
 10 0 l 1
 261 669 l 1
 366 669 l 1
 616 0 l 1
 516 0 l 1
 436 227 l 1
EndSplineSet
EndChar

StartChar: eta
Encoding: 231 951 594
Width: 546
Flags: W
HStem: -161 21G<394 478> 0 21G<70 154> 432 72<218.01 357.536> 476 20G<70 137.867>
VStem: 70 84<0 369.441> 70 62<472.136 496> 394 84<-161 392.763>
AnchorPoint: "Anchor-1" 257 0 basechar 0
AnchorPoint: "Anchor-0" 288 496 basechar 0
LayerCount: 2
Fore
SplineSet
285 432 m 0xea
 201 432 154 373 154 269 c 2
 154 0 l 1
 70 0 l 1xea
 70 496 l 1
 132 496 l 1xd6
 154 421 l 1
 187 476 240 504 314 504 c 0
 423 504 478 441 478 314 c 2
 478 -161 l 1
 394 -161 l 1
 394 289 l 2
 394 392 364 432 285 432 c 0xea
EndSplineSet
EndChar

StartChar: Xi
Encoding: 206 926 595
Width: 529
Flags: W
HStem: 0 81<38 491> 303 81<94 435>
AnchorPoint: "Anchor-2" 325 0 basechar 0
AnchorPoint: "Anchor-1" 239 0 basechar 0
AnchorPoint: "Anchor-0" 239 668 basechar 0
LayerCount: 2
Fore
SplineSet
491 587 m 1
 491 668 l 1
 38 668 l 1
 38 587 l 1
 491 587 l 1
491 81 m 1
 491 0 l 1
 38 0 l 1
 38 81 l 1
 491 81 l 1
94 303 m 1
 94 384 l 1
 435 384 l 1
 435 303 l 1
 94 303 l 1
EndSplineSet
EndChar

StartChar: Gamma
Encoding: 195 915 596
Width: 483
Flags: W
LayerCount: 2
Fore
SplineSet
473 668 m 17
 76 668 l 1
 76 0 l 1
 157 0 l 1
 157 587 l 1
 473 587 l 1
 473 668 l 17
EndSplineSet
EndChar

StartChar: Sigma
Encoding: 211 931 597
Width: 553
Flags: W
HStem: 0 81<135 515> 587 81<135 515>
VStem: 270 100<284 384>
LayerCount: 2
Fore
SplineSet
34 0 m 5
 34 81 l 1
 270 334 l 1
 34 587 l 1
 34 668 l 1
 515 668 l 1
 515 587 l 1
 135 587 l 1
 370 334 l 1
 135 81 l 1
 515 81 l 1
 515 0 l 1
 34 0 l 5
EndSplineSet
EndChar

StartChar: lambda
Encoding: 235 955 598
Width: 429
Flags: W
HStem: 0 21G<0 99.3874 330.613 429> 582 74<37 148.767>
VStem: 0 93<0 93> 337 92<0 92>
AnchorPoint: "Anchor-1" 215 0 basechar 0
AnchorPoint: "Anchor-0" 220 496 basechar 0
LayerCount: 2
Fore
SplineSet
37 656 m 1
 80 656 l 2
 184 656 214 632 253 517 c 2
 429 0 l 1
 337 0 l 1
 215 382 l 1
 93 0 l 1
 0 0 l 1
 179 496 l 1
 158 570 143 582 71 582 c 2
 37 582 l 1
 37 656 l 1
EndSplineSet
EndChar

StartChar: iota
Encoding: 233 953 599
Width: 239
Flags: W
HStem: 0 74<158.381 224> 476 20G<70 154>
VStem: 70 84<78.5552 496>
AnchorPoint: "Anchor-1" 145 0 basechar 0
AnchorPoint: "Anchor-0" 117 497 basechar 0
LayerCount: 2
Fore
SplineSet
154 138 m 2
 154 84 162 74 205 74 c 2
 224 74 l 1
 224 0 l 1
 187 0 l 2
 92 0 70 23 70 124 c 2
 70 496 l 1
 154 496 l 1
 154 138 l 2
EndSplineSet
EndChar
